ISO-10303-21;
HEADER;
/* Generated by software containing ST-Developer
 * from STEP Tools, Inc. (www.steptools.com) 
 */
/* OPTION: strings as raw bytes, not using required /X/ escapes */

FILE_DESCRIPTION(
/* description */ ('Unknown'),
/* implementation_level */ '2;1');

FILE_NAME(
/* name */ '511D476M025AA4D',
/* time_stamp */ '2024-02-13T10:28:33+02:00',
/* author */ ('Unknown'),
/* organization */ ('Unknown'),
/* preprocessor_version */ 'ST-DEVELOPER v18.102',
/* originating_system */ 'Solid Edge',
/* authorisation */ 'Unknown');

FILE_SCHEMA (('AUTOMOTIVE_DESIGN {1 0 10303 214 3 1 1}'));
ENDSEC;

DATA;
#10=PROPERTY_DEFINITION_REPRESENTATION(#14,#12);
#11=PROPERTY_DEFINITION_REPRESENTATION(#15,#13);
#12=REPRESENTATION('',(#16),#395);
#13=REPRESENTATION('',(#17),#395);
#14=PROPERTY_DEFINITION('pmi validation property','',#400);
#15=PROPERTY_DEFINITION('pmi validation property','',#400);
#16=VALUE_REPRESENTATION_ITEM('number of annotations',COUNT_MEASURE(0.));
#17=VALUE_REPRESENTATION_ITEM('number of views',COUNT_MEASURE(0.));
#18=SHAPE_REPRESENTATION_RELATIONSHIP('','',#268,#19);
#19=ADVANCED_BREP_SHAPE_REPRESENTATION('',(#266),#395);
#20=PLANE('',#279);
#21=PLANE('',#284);
#22=PLANE('',#286);
#23=PLANE('',#290);
#24=PLANE('',#293);
#25=CYLINDRICAL_SURFACE('',#273,3.);
#26=CYLINDRICAL_SURFACE('',#275,3.);
#27=CYLINDRICAL_SURFACE('',#281,2.07681684151462);
#28=CYLINDRICAL_SURFACE('',#292,0.315);
#29=CYLINDRICAL_SURFACE('',#295,0.315);
#30=ORIENTED_EDGE('',*,*,#56,.T.);
#31=ORIENTED_EDGE('',*,*,#57,.F.);
#32=ORIENTED_EDGE('',*,*,#58,.T.);
#33=ORIENTED_EDGE('',*,*,#56,.F.);
#34=ORIENTED_EDGE('',*,*,#57,.T.);
#35=ORIENTED_EDGE('',*,*,#59,.F.);
#36=ORIENTED_EDGE('',*,*,#60,.F.);
#37=ORIENTED_EDGE('',*,*,#59,.T.);
#38=ORIENTED_EDGE('',*,*,#61,.T.);
#39=ORIENTED_EDGE('',*,*,#60,.T.);
#40=ORIENTED_EDGE('',*,*,#62,.T.);
#41=ORIENTED_EDGE('',*,*,#63,.T.);
#42=ORIENTED_EDGE('',*,*,#63,.F.);
#43=ORIENTED_EDGE('',*,*,#62,.F.);
#44=ORIENTED_EDGE('',*,*,#61,.F.);
#45=ORIENTED_EDGE('',*,*,#64,.T.);
#46=ORIENTED_EDGE('',*,*,#65,.T.);
#47=ORIENTED_EDGE('',*,*,#66,.T.);
#48=ORIENTED_EDGE('',*,*,#67,.F.);
#49=ORIENTED_EDGE('',*,*,#66,.F.);
#50=ORIENTED_EDGE('',*,*,#67,.T.);
#51=ORIENTED_EDGE('',*,*,#68,.F.);
#52=ORIENTED_EDGE('',*,*,#65,.F.);
#53=ORIENTED_EDGE('',*,*,#68,.T.);
#54=ORIENTED_EDGE('',*,*,#64,.F.);
#55=ORIENTED_EDGE('',*,*,#58,.F.);
#56=EDGE_CURVE('',#69,#69,#82,.T.);
#57=EDGE_CURVE('',#70,#70,#83,.T.);
#58=EDGE_CURVE('',#71,#71,#84,.F.);
#59=EDGE_CURVE('',#72,#72,#85,.F.);
#60=EDGE_CURVE('',#73,#73,#86,.F.);
#61=EDGE_CURVE('',#74,#74,#87,.T.);
#62=EDGE_CURVE('',#75,#75,#88,.F.);
#63=EDGE_CURVE('',#76,#76,#89,.T.);
#64=EDGE_CURVE('',#77,#77,#90,.T.);
#65=EDGE_CURVE('',#78,#78,#91,.F.);
#66=EDGE_CURVE('',#79,#79,#92,.F.);
#67=EDGE_CURVE('',#80,#80,#93,.T.);
#68=EDGE_CURVE('',#81,#81,#94,.T.);
#69=VERTEX_POINT('',#356);
#70=VERTEX_POINT('',#358);
#71=VERTEX_POINT('',#361);
#72=VERTEX_POINT('',#364);
#73=VERTEX_POINT('',#367);
#74=VERTEX_POINT('',#370);
#75=VERTEX_POINT('',#373);
#76=VERTEX_POINT('',#375);
#77=VERTEX_POINT('',#380);
#78=VERTEX_POINT('',#382);
#79=VERTEX_POINT('',#384);
#80=VERTEX_POINT('',#387);
#81=VERTEX_POINT('',#391);
#82=CIRCLE('',#271,3.);
#83=CIRCLE('',#272,3.);
#84=CIRCLE('',#274,3.);
#85=CIRCLE('',#276,3.);
#86=CIRCLE('',#278,2.42);
#87=CIRCLE('',#280,2.27681684151462);
#88=CIRCLE('',#282,2.07681684151462);
#89=CIRCLE('',#283,2.07681684151462);
#90=CIRCLE('',#287,2.42);
#91=CIRCLE('',#288,0.315);
#92=CIRCLE('',#289,0.315);
#93=CIRCLE('',#291,0.315);
#94=CIRCLE('',#294,0.315);
#95=EDGE_LOOP('',(#30));
#96=EDGE_LOOP('',(#31));
#97=EDGE_LOOP('',(#32));
#98=EDGE_LOOP('',(#33));
#99=EDGE_LOOP('',(#34));
#100=EDGE_LOOP('',(#35));
#101=EDGE_LOOP('',(#36));
#102=EDGE_LOOP('',(#37));
#103=EDGE_LOOP('',(#38));
#104=EDGE_LOOP('',(#39));
#105=EDGE_LOOP('',(#40));
#106=EDGE_LOOP('',(#41));
#107=EDGE_LOOP('',(#42));
#108=EDGE_LOOP('',(#43));
#109=EDGE_LOOP('',(#44));
#110=EDGE_LOOP('',(#45));
#111=EDGE_LOOP('',(#46));
#112=EDGE_LOOP('',(#47));
#113=EDGE_LOOP('',(#48));
#114=EDGE_LOOP('',(#49));
#115=EDGE_LOOP('',(#50));
#116=EDGE_LOOP('',(#51));
#117=EDGE_LOOP('',(#52));
#118=EDGE_LOOP('',(#53));
#119=EDGE_LOOP('',(#54));
#120=EDGE_LOOP('',(#55));
#121=FACE_BOUND('',#95,.T.);
#122=FACE_BOUND('',#96,.T.);
#123=FACE_BOUND('',#97,.T.);
#124=FACE_BOUND('',#98,.T.);
#125=FACE_BOUND('',#99,.T.);
#126=FACE_BOUND('',#100,.T.);
#127=FACE_BOUND('',#101,.T.);
#128=FACE_BOUND('',#102,.T.);
#129=FACE_BOUND('',#103,.T.);
#130=FACE_BOUND('',#104,.T.);
#131=FACE_BOUND('',#105,.T.);
#132=FACE_BOUND('',#106,.T.);
#133=FACE_BOUND('',#107,.T.);
#134=FACE_BOUND('',#108,.T.);
#135=FACE_BOUND('',#109,.T.);
#136=FACE_BOUND('',#110,.T.);
#137=FACE_BOUND('',#111,.T.);
#138=FACE_BOUND('',#112,.T.);
#139=FACE_BOUND('',#113,.T.);
#140=FACE_BOUND('',#114,.T.);
#141=FACE_BOUND('',#115,.T.);
#142=FACE_BOUND('',#116,.T.);
#143=FACE_BOUND('',#117,.T.);
#144=FACE_BOUND('',#118,.T.);
#145=FACE_BOUND('',#119,.T.);
#146=FACE_BOUND('',#120,.T.);
#147=TOROIDAL_SURFACE('',#270,3.26699330187936,0.551544879153887);
#148=TOROIDAL_SURFACE('',#277,2.42,0.58);
#149=TOROIDAL_SURFACE('',#285,2.27681684151462,0.2);
#150=TOROIDAL_SURFACE('',#296,2.42,0.58);
#151=STYLED_ITEM('',(#165),#251);
#152=STYLED_ITEM('',(#166),#252);
#153=STYLED_ITEM('',(#167),#253);
#154=STYLED_ITEM('',(#168),#254);
#155=STYLED_ITEM('',(#169),#255);
#156=STYLED_ITEM('',(#170),#256);
#157=STYLED_ITEM('',(#171),#257);
#158=STYLED_ITEM('',(#172),#258);
#159=STYLED_ITEM('',(#173),#259);
#160=STYLED_ITEM('',(#174),#260);
#161=STYLED_ITEM('',(#175),#261);
#162=STYLED_ITEM('',(#176),#262);
#163=STYLED_ITEM('',(#177),#263);
#164=STYLED_ITEM('',(#178),#264);
#165=PRESENTATION_STYLE_ASSIGNMENT((#179));
#166=PRESENTATION_STYLE_ASSIGNMENT((#180));
#167=PRESENTATION_STYLE_ASSIGNMENT((#181));
#168=PRESENTATION_STYLE_ASSIGNMENT((#182));
#169=PRESENTATION_STYLE_ASSIGNMENT((#183));
#170=PRESENTATION_STYLE_ASSIGNMENT((#184));
#171=PRESENTATION_STYLE_ASSIGNMENT((#185));
#172=PRESENTATION_STYLE_ASSIGNMENT((#186));
#173=PRESENTATION_STYLE_ASSIGNMENT((#187));
#174=PRESENTATION_STYLE_ASSIGNMENT((#188));
#175=PRESENTATION_STYLE_ASSIGNMENT((#189));
#176=PRESENTATION_STYLE_ASSIGNMENT((#190));
#177=PRESENTATION_STYLE_ASSIGNMENT((#191));
#178=PRESENTATION_STYLE_ASSIGNMENT((#192));
#179=SURFACE_STYLE_USAGE(.BOTH.,#193);
#180=SURFACE_STYLE_USAGE(.BOTH.,#194);
#181=SURFACE_STYLE_USAGE(.BOTH.,#195);
#182=SURFACE_STYLE_USAGE(.BOTH.,#196);
#183=SURFACE_STYLE_USAGE(.BOTH.,#197);
#184=SURFACE_STYLE_USAGE(.BOTH.,#198);
#185=SURFACE_STYLE_USAGE(.BOTH.,#199);
#186=SURFACE_STYLE_USAGE(.BOTH.,#200);
#187=SURFACE_STYLE_USAGE(.BOTH.,#201);
#188=SURFACE_STYLE_USAGE(.BOTH.,#202);
#189=SURFACE_STYLE_USAGE(.BOTH.,#203);
#190=SURFACE_STYLE_USAGE(.BOTH.,#204);
#191=SURFACE_STYLE_USAGE(.BOTH.,#205);
#192=SURFACE_STYLE_USAGE(.BOTH.,#206);
#193=SURFACE_SIDE_STYLE('',(#207));
#194=SURFACE_SIDE_STYLE('',(#208));
#195=SURFACE_SIDE_STYLE('',(#209));
#196=SURFACE_SIDE_STYLE('',(#210));
#197=SURFACE_SIDE_STYLE('',(#211));
#198=SURFACE_SIDE_STYLE('',(#212));
#199=SURFACE_SIDE_STYLE('',(#213));
#200=SURFACE_SIDE_STYLE('',(#214));
#201=SURFACE_SIDE_STYLE('',(#215));
#202=SURFACE_SIDE_STYLE('',(#216));
#203=SURFACE_SIDE_STYLE('',(#217));
#204=SURFACE_SIDE_STYLE('',(#218));
#205=SURFACE_SIDE_STYLE('',(#219));
#206=SURFACE_SIDE_STYLE('',(#220));
#207=SURFACE_STYLE_FILL_AREA(#221);
#208=SURFACE_STYLE_FILL_AREA(#222);
#209=SURFACE_STYLE_FILL_AREA(#223);
#210=SURFACE_STYLE_FILL_AREA(#224);
#211=SURFACE_STYLE_FILL_AREA(#225);
#212=SURFACE_STYLE_FILL_AREA(#226);
#213=SURFACE_STYLE_FILL_AREA(#227);
#214=SURFACE_STYLE_FILL_AREA(#228);
#215=SURFACE_STYLE_FILL_AREA(#229);
#216=SURFACE_STYLE_FILL_AREA(#230);
#217=SURFACE_STYLE_FILL_AREA(#231);
#218=SURFACE_STYLE_FILL_AREA(#232);
#219=SURFACE_STYLE_FILL_AREA(#233);
#220=SURFACE_STYLE_FILL_AREA(#234);
#221=FILL_AREA_STYLE('',(#235));
#222=FILL_AREA_STYLE('',(#236));
#223=FILL_AREA_STYLE('',(#237));
#224=FILL_AREA_STYLE('',(#238));
#225=FILL_AREA_STYLE('',(#239));
#226=FILL_AREA_STYLE('',(#240));
#227=FILL_AREA_STYLE('',(#241));
#228=FILL_AREA_STYLE('',(#242));
#229=FILL_AREA_STYLE('',(#243));
#230=FILL_AREA_STYLE('',(#244));
#231=FILL_AREA_STYLE('',(#245));
#232=FILL_AREA_STYLE('',(#246));
#233=FILL_AREA_STYLE('',(#247));
#234=FILL_AREA_STYLE('',(#248));
#235=FILL_AREA_STYLE_COLOUR('',#249);
#236=FILL_AREA_STYLE_COLOUR('',#249);
#237=FILL_AREA_STYLE_COLOUR('',#249);
#238=FILL_AREA_STYLE_COLOUR('',#249);
#239=FILL_AREA_STYLE_COLOUR('',#249);
#240=FILL_AREA_STYLE_COLOUR('',#250);
#241=FILL_AREA_STYLE_COLOUR('',#250);
#242=FILL_AREA_STYLE_COLOUR('',#249);
#243=FILL_AREA_STYLE_COLOUR('',#249);
#244=FILL_AREA_STYLE_COLOUR('',#250);
#245=FILL_AREA_STYLE_COLOUR('',#250);
#246=FILL_AREA_STYLE_COLOUR('',#250);
#247=FILL_AREA_STYLE_COLOUR('',#250);
#248=FILL_AREA_STYLE_COLOUR('',#249);
#249=COLOUR_RGB('',0.,0.25,0.75);
#250=COLOUR_RGB('',0.699999988079071,0.699999988079071,0.699999988079071);
#251=ADVANCED_FACE('',(#121,#122),#147,.F.);
#252=ADVANCED_FACE('',(#123,#124),#25,.T.);
#253=ADVANCED_FACE('',(#125,#126),#26,.T.);
#254=ADVANCED_FACE('',(#127,#128),#148,.T.);
#255=ADVANCED_FACE('',(#129,#130),#20,.F.);
#256=ADVANCED_FACE('',(#131,#132),#27,.F.);
#257=ADVANCED_FACE('',(#133),#21,.F.);
#258=ADVANCED_FACE('',(#134,#135),#149,.T.);
#259=ADVANCED_FACE('',(#136,#137,#138),#22,.T.);
#260=ADVANCED_FACE('',(#139),#23,.F.);
#261=ADVANCED_FACE('',(#140,#141),#28,.T.);
#262=ADVANCED_FACE('',(#142),#24,.F.);
#263=ADVANCED_FACE('',(#143,#144),#29,.T.);
#264=ADVANCED_FACE('',(#145,#146),#150,.T.);
#265=CLOSED_SHELL('',(#251,#252,#253,#254,#255,#256,#257,#258,#259,#260,
#261,#262,#263,#264));
#266=MANIFOLD_SOLID_BREP('',#265);
#267=SHAPE_DEFINITION_REPRESENTATION(#400,#268);
#268=SHAPE_REPRESENTATION('511D476M025AA4D',(#269),#395);
#269=AXIS2_PLACEMENT_3D('',#353,#297,#298);
#270=AXIS2_PLACEMENT_3D('',#354,#299,#300);
#271=AXIS2_PLACEMENT_3D('',#355,#301,#302);
#272=AXIS2_PLACEMENT_3D('',#357,#303,#304);
#273=AXIS2_PLACEMENT_3D('',#359,#305,#306);
#274=AXIS2_PLACEMENT_3D('',#360,#307,#308);
#275=AXIS2_PLACEMENT_3D('',#362,#309,#310);
#276=AXIS2_PLACEMENT_3D('',#363,#311,#312);
#277=AXIS2_PLACEMENT_3D('',#365,#313,#314);
#278=AXIS2_PLACEMENT_3D('',#366,#315,#316);
#279=AXIS2_PLACEMENT_3D('',#368,#317,#318);
#280=AXIS2_PLACEMENT_3D('',#369,#319,#320);
#281=AXIS2_PLACEMENT_3D('',#371,#321,#322);
#282=AXIS2_PLACEMENT_3D('',#372,#323,#324);
#283=AXIS2_PLACEMENT_3D('',#374,#325,#326);
#284=AXIS2_PLACEMENT_3D('',#376,#327,#328);
#285=AXIS2_PLACEMENT_3D('',#377,#329,#330);
#286=AXIS2_PLACEMENT_3D('',#378,#331,#332);
#287=AXIS2_PLACEMENT_3D('',#379,#333,#334);
#288=AXIS2_PLACEMENT_3D('',#381,#335,#336);
#289=AXIS2_PLACEMENT_3D('',#383,#337,#338);
#290=AXIS2_PLACEMENT_3D('',#385,#339,#340);
#291=AXIS2_PLACEMENT_3D('',#386,#341,#342);
#292=AXIS2_PLACEMENT_3D('',#388,#343,#344);
#293=AXIS2_PLACEMENT_3D('',#389,#345,#346);
#294=AXIS2_PLACEMENT_3D('',#390,#347,#348);
#295=AXIS2_PLACEMENT_3D('',#392,#349,#350);
#296=AXIS2_PLACEMENT_3D('',#393,#351,#352);
#297=DIRECTION('',(0.,0.,1.));
#298=DIRECTION('',(1.,0.,0.));
#299=DIRECTION('',(0.,0.,1.));
#300=DIRECTION('',(1.,0.,0.));
#301=DIRECTION('',(0.,0.,1.));
#302=DIRECTION('',(1.,0.,0.));
#303=DIRECTION('',(0.,0.,1.));
#304=DIRECTION('',(1.,0.,0.));
#305=DIRECTION('',(0.,0.,1.));
#306=DIRECTION('',(1.,0.,0.));
#307=DIRECTION('',(0.,0.,-1.));
#308=DIRECTION('',(-1.,0.,0.));
#309=DIRECTION('',(0.,0.,1.));
#310=DIRECTION('',(1.,0.,0.));
#311=DIRECTION('',(0.,0.,-1.));
#312=DIRECTION('',(-1.,0.,0.));
#313=DIRECTION('',(0.,0.,-1.));
#314=DIRECTION('',(-1.,0.,0.));
#315=DIRECTION('',(0.,0.,-1.));
#316=DIRECTION('',(-1.,0.,0.));
#317=DIRECTION('',(0.,0.,-1.));
#318=DIRECTION('',(-1.,0.,0.));
#319=DIRECTION('',(0.,0.,-1.));
#320=DIRECTION('',(-1.,0.,0.));
#321=DIRECTION('',(0.,0.,1.));
#322=DIRECTION('',(1.,0.,0.));
#323=DIRECTION('',(0.,0.,-1.));
#324=DIRECTION('',(-1.,0.,0.));
#325=DIRECTION('',(0.,0.,-1.));
#326=DIRECTION('',(1.,0.,0.));
#327=DIRECTION('',(0.,0.,-1.));
#328=DIRECTION('',(-1.,0.,0.));
#329=DIRECTION('',(0.,0.,-1.));
#330=DIRECTION('',(-1.,0.,0.));
#331=DIRECTION('',(0.,0.,-1.));
#332=DIRECTION('',(-1.,0.,0.));
#333=DIRECTION('',(0.,0.,-1.));
#334=DIRECTION('',(-1.,0.,0.));
#335=DIRECTION('',(0.,0.,-1.));
#336=DIRECTION('',(-1.,0.,0.));
#337=DIRECTION('',(0.,0.,-1.));
#338=DIRECTION('',(-1.,0.,0.));
#339=DIRECTION('',(0.,0.,1.));
#340=DIRECTION('',(1.,0.,0.));
#341=DIRECTION('',(0.,0.,1.));
#342=DIRECTION('',(1.,0.,0.));
#343=DIRECTION('',(0.,0.,1.));
#344=DIRECTION('',(1.,0.,0.));
#345=DIRECTION('',(0.,0.,1.));
#346=DIRECTION('',(1.,0.,0.));
#347=DIRECTION('',(0.,0.,1.));
#348=DIRECTION('',(1.,0.,0.));
#349=DIRECTION('',(0.,0.,1.));
#350=DIRECTION('',(1.,0.,0.));
#351=DIRECTION('',(0.,0.,-1.));
#352=DIRECTION('',(-1.,0.,0.));
#353=CARTESIAN_POINT('',(0.,0.,0.));
#354=CARTESIAN_POINT('',(0.,0.,1.62376961718516));
#355=CARTESIAN_POINT('',(0.,0.,1.14115555763816));
#356=CARTESIAN_POINT('',(3.,0.,1.14115555763816));
#357=CARTESIAN_POINT('',(0.,0.,2.10638367673216));
#358=CARTESIAN_POINT('',(3.,0.,2.10638367673216));
#359=CARTESIAN_POINT('',(0.,0.,2.73853256028164));
#360=CARTESIAN_POINT('',(0.,0.,0.58));
#361=CARTESIAN_POINT('',(-3.,0.,0.58));
#362=CARTESIAN_POINT('',(0.,0.,-1.1));
#363=CARTESIAN_POINT('',(0.,0.,10.42));
#364=CARTESIAN_POINT('',(-3.,0.,10.42));
#365=CARTESIAN_POINT('',(0.,0.,10.42));
#366=CARTESIAN_POINT('',(0.,0.,11.));
#367=CARTESIAN_POINT('',(-2.42,0.,11.));
#368=CARTESIAN_POINT('',(1.57939750163881,0.,11.));
#369=CARTESIAN_POINT('',(0.,0.,11.));
#370=CARTESIAN_POINT('',(-2.27681684151462,0.,11.));
#371=CARTESIAN_POINT('',(0.,0.,10.7964166231224));
#372=CARTESIAN_POINT('',(0.,0.,10.8));
#373=CARTESIAN_POINT('',(-2.07681684151462,0.,10.8));
#374=CARTESIAN_POINT('',(0.,0.,10.7964166231224));
#375=CARTESIAN_POINT('',(2.07681684151462,0.,10.7964166231224));
#376=CARTESIAN_POINT('',(0.,0.,10.7964166231224));
#377=CARTESIAN_POINT('',(0.,0.,10.8));
#378=CARTESIAN_POINT('',(0.,0.,0.));
#379=CARTESIAN_POINT('',(0.,0.,0.));
#380=CARTESIAN_POINT('',(-2.42,0.,0.));
#381=CARTESIAN_POINT('',(-1.25,0.,1.73472347597681E-15));
#382=CARTESIAN_POINT('',(-1.565,0.,1.73472347597681E-15));
#383=CARTESIAN_POINT('',(1.25,0.,1.73472347597681E-15));
#384=CARTESIAN_POINT('',(0.935,0.,1.73472347597681E-15));
#385=CARTESIAN_POINT('',(1.25,0.,-24.3328324573901));
#386=CARTESIAN_POINT('',(1.25,0.,-24.3328324573901));
#387=CARTESIAN_POINT('',(1.565,0.,-24.3328324573901));
#388=CARTESIAN_POINT('',(1.25,0.,-18.5));
#389=CARTESIAN_POINT('',(-1.25,0.,-19.6787632401803));
#390=CARTESIAN_POINT('',(-1.25,0.,-19.6787632401803));
#391=CARTESIAN_POINT('',(-0.935,0.,-19.6787632401803));
#392=CARTESIAN_POINT('',(-1.25,0.,-18.5));
#393=CARTESIAN_POINT('',(0.,0.,0.58));
#394=MECHANICAL_DESIGN_GEOMETRIC_PRESENTATION_REPRESENTATION('',(#151,#152,
#153,#154,#155,#156,#157,#158,#159,#160,#161,#162,#163,#164),#395);
#395=(
GEOMETRIC_REPRESENTATION_CONTEXT(3)
GLOBAL_UNCERTAINTY_ASSIGNED_CONTEXT((#396))
GLOBAL_UNIT_ASSIGNED_CONTEXT((#399,#398,#397))
REPRESENTATION_CONTEXT('511D476M025AA4D','TOP_LEVEL_ASSEMBLY_PART')
);
#396=UNCERTAINTY_MEASURE_WITH_UNIT(LENGTH_MEASURE(0.005),#399,
'DISTANCE_ACCURACY_VALUE','Maximum Tolerance applied to model');
#397=(
NAMED_UNIT(*)
SI_UNIT($,.STERADIAN.)
SOLID_ANGLE_UNIT()
);
#398=(
NAMED_UNIT(*)
PLANE_ANGLE_UNIT()
SI_UNIT($,.RADIAN.)
);
#399=(
LENGTH_UNIT()
NAMED_UNIT(*)
SI_UNIT(.MILLI.,.METRE.)
);
#400=PRODUCT_DEFINITION_SHAPE('','',#401);
#401=PRODUCT_DEFINITION('','',#403,#402);
#402=PRODUCT_DEFINITION_CONTEXT('',#409,'design');
#403=PRODUCT_DEFINITION_FORMATION_WITH_SPECIFIED_SOURCE('','',#405,
 .NOT_KNOWN.);
#404=PRODUCT_RELATED_PRODUCT_CATEGORY('','',(#405));
#405=PRODUCT('511D476M025AA4D','511D476M025AA4D','511D476M025AA4D',(#407));
#406=PRODUCT_CATEGORY('','');
#407=PRODUCT_CONTEXT('',#409,'mechanical');
#408=APPLICATION_PROTOCOL_DEFINITION('international standard',
'automotive_design',2010,#409);
#409=APPLICATION_CONTEXT(
'core data for automotive mechanical design processes');
ENDSEC;
END-ISO-10303-21;
