ISO-10303-21;
HEADER;
FILE_DESCRIPTION (( 'STEP AP214' ),
    '1' );
FILE_NAME ('SRP2512TMA-2R2M.STEP',
    '2023-04-06T11:35:36',
    ( '' ),
    ( '' ),
    'SwSTEP 2.0',
    'SolidWorks 2022',
    '' );
FILE_SCHEMA (( 'AUTOMOTIVE_DESIGN' ));
ENDSEC;

DATA;
#1 = ORIENTED_EDGE ( 'NONE', *, *, #804, .F. ) ;
#2 = DIRECTION ( 'NONE',  ( 2.409338161078898194E-16, 0.000000000000000000, -1.000000000000000000 ) ) ;
#3 = MANIFOLD_SOLID_BREP ( 'Boss-Extrude2[1]', #324 ) ;
#4 = EDGE_CURVE ( 'NONE', #1205, #1169, #1195, .T. ) ;
#5 = ORIENTED_EDGE ( 'NONE', *, *, #749, .F. ) ;
#6 = LINE ( 'NONE', #199, #149 ) ;
#7 =( LENGTH_UNIT ( ) NAMED_UNIT ( * ) SI_UNIT ( .MILLI., .METRE. ) );
#8 = CARTESIAN_POINT ( 'NONE',  ( -1.149999999999999911, -0.8499999999999999778, 0.09999999999999982514 ) ) ;
#9 = CARTESIAN_POINT ( 'NONE',  ( 0.6499999999999994671, -0.8499999999999999778, 0.09999999999999983902 ) ) ;
#10 = ORIENTED_EDGE ( 'NONE', *, *, #385, .F. ) ;
#11 = DIRECTION ( 'NONE',  ( 0.000000000000000000, 1.000000000000000000, 0.000000000000000000 ) ) ;
#12 = ORIENTED_EDGE ( 'NONE', *, *, #733, .F. ) ;
#13 = DIRECTION ( 'NONE',  ( 0.000000000000000000, -0.000000000000000000, 1.000000000000000000 ) ) ;
#14 = CARTESIAN_POINT ( 'NONE',  ( 0.6499999999999994671, 0.8499999999999999778, 0.09999999999999983902 ) ) ;
#15 = DIRECTION ( 'NONE',  ( 1.000000000000000000, -0.000000000000000000, 1.084202172485504434E-15 ) ) ;
#16 = ORIENTED_EDGE ( 'NONE', *, *, #940, .T. ) ;
#17 = ORIENTED_EDGE ( 'NONE', *, *, #794, .T. ) ;
#18 = VECTOR ( 'NONE', #160, 1000.000000000000000 ) ;
#19 = VECTOR ( 'NONE', #899, 1000.000000000000000 ) ;
#20 = DIRECTION ( 'NONE',  ( -0.000000000000000000, -1.000000000000000000, -0.000000000000000000 ) ) ;
#21 = CIRCLE ( 'NONE', #708, 0.09999999999999939493 ) ;
#22 = EDGE_CURVE ( 'NONE', #743, #309, #548, .T. ) ;
#23 = FACE_OUTER_BOUND ( 'NONE', #691, .T. ) ;
#24 = FACE_OUTER_BOUND ( 'NONE', #483, .T. ) ;
#25 = EDGE_LOOP ( 'NONE', ( #1284, #1269, #1232, #125 ) ) ;
#26 = DIRECTION ( 'NONE',  ( 0.000000000000000000, -0.000000000000000000, 1.000000000000000000 ) ) ;
#27 = ORIENTED_EDGE ( 'NONE', *, *, #1306, .T. ) ;
#28 = CARTESIAN_POINT ( 'NONE',  ( -1.149999999999999911, -1.000000000000000000, 0.000000000000000000 ) ) ;
#29 = EDGE_CURVE ( 'NONE', #38, #392, #606, .T. ) ;
#30 = EDGE_CURVE ( 'NONE', #626, #850, #63, .T. ) ;
#31 = SURFACE_STYLE_FILL_AREA ( #960 ) ;
#32 = ORIENTED_EDGE ( 'NONE', *, *, #1183, .T. ) ;
#33 = SPHERICAL_SURFACE ( 'NONE', #1180, 0.05000000000000000278 ) ;
#34 = DIRECTION ( 'NONE',  ( 0.000000000000000000, 1.000000000000000000, 0.000000000000000000 ) ) ;
#35 = FACE_OUTER_BOUND ( 'NONE', #237, .T. ) ;
#36 = VERTEX_POINT ( 'NONE', #591 ) ;
#37 = EDGE_CURVE ( 'NONE', #246, #643, #21, .T. ) ;
#38 = VERTEX_POINT ( 'NONE', #1007 ) ;
#39 = AXIS2_PLACEMENT_3D ( 'NONE', #821, #319, #328 ) ;
#40 = CARTESIAN_POINT ( 'NONE',  ( -1.100000000000000089, -1.000000000000000000, 1.199999999999999956 ) ) ;
#41 = VECTOR ( 'NONE', #307, 1000.000000000000000 ) ;
#42 = VECTOR ( 'NONE', #765, 1000.000000000000000 ) ;
#43 = CYLINDRICAL_SURFACE ( 'NONE', #389, 0.09999999999999950595 ) ;
#44 = ORIENTED_EDGE ( 'NONE', *, *, #824, .F. ) ;
#45 = FACE_OUTER_BOUND ( 'NONE', #183, .T. ) ;
#46 = ORIENTED_EDGE ( 'NONE', *, *, #1279, .T. ) ;
#47 = EDGE_CURVE ( 'NONE', #1169, #609, #74, .T. ) ;
#48 = LINE ( 'NONE', #1265, #216 ) ;
#49 = DIRECTION ( 'NONE',  ( 0.000000000000000000, -0.000000000000000000, 1.000000000000000000 ) ) ;
#50 = ORIENTED_EDGE ( 'NONE', *, *, #727, .F. ) ;
#51 = DIRECTION ( 'NONE',  ( 1.000000000000000000, -0.000000000000000000, -0.000000000000000000 ) ) ;
#52 = ORIENTED_EDGE ( 'NONE', *, *, #654, .F. ) ;
#53 = DIRECTION ( 'NONE',  ( -1.000000000000000000, 0.000000000000000000, 0.000000000000000000 ) ) ;
#54 = FACE_OUTER_BOUND ( 'NONE', #1241, .T. ) ;
#55 = VERTEX_POINT ( 'NONE', #89 ) ;
#56 = CARTESIAN_POINT ( 'NONE',  ( -1.100000000000000089, -0.9499999999999999556, 1.149999999999999911 ) ) ;
#57 = ORIENTED_EDGE ( 'NONE', *, *, #794, .F. ) ;
#58 = CARTESIAN_POINT ( 'NONE',  ( 0.000000000000000000, 0.9499999999999999556, 1.199999999999999956 ) ) ;
#59 = CIRCLE ( 'NONE', #404, 0.04999999999999991257 ) ;
#60 = VECTOR ( 'NONE', #1206, 1000.000000000000000 ) ;
#61 = EDGE_CURVE ( 'NONE', #561, #656, #1310, .T. ) ;
#62 = CIRCLE ( 'NONE', #819, 0.04999999999999991257 ) ;
#63 = LINE ( 'NONE', #689, #1186 ) ;
#64 = CARTESIAN_POINT ( 'NONE',  ( 1.149999999999999911, -1.000000000000000000, 0.04999999999999991257 ) ) ;
#65 = ORIENTED_EDGE ( 'NONE', *, *, #30, .T. ) ;
#66 = DIRECTION ( 'NONE',  ( 1.000000000000000000, 0.000000000000000000, 0.000000000000000000 ) ) ;
#67 = EDGE_CURVE ( 'NONE', #358, #416, #400, .T. ) ;
#68 = CARTESIAN_POINT ( 'NONE',  ( 1.129289321881345565, -1.000000000000000000, 0.02071067811865468997 ) ) ;
#69 = CARTESIAN_POINT ( 'NONE',  ( -1.150000000000000133, 0.8499999999999999778, 1.000000000000000000 ) ) ;
#70 = EDGE_CURVE ( 'NONE', #356, #333, #781, .T. ) ;
#71 = ORIENTED_EDGE ( 'NONE', *, *, #1089, .F. ) ;
#72 = CARTESIAN_POINT ( 'NONE',  ( -1.249999999999999778, 0.8499999999999999778, 0.09999999999999981126 ) ) ;
#73 = DIRECTION ( 'NONE',  ( -0.000000000000000000, 1.000000000000000000, -0.000000000000000000 ) ) ;
#74 = LINE ( 'NONE', #1018, #953 ) ;
#75 = CARTESIAN_POINT ( 'NONE',  ( -0.6499999999999995781, -0.8499999999999999778, 9.838710202321310719E-19 ) ) ;
#76 = ORIENTED_EDGE ( 'NONE', *, *, #407, .T. ) ;
#77 = EDGE_CURVE ( 'NONE', #411, #850, #226, .T. ) ;
#78 = LINE ( 'NONE', #897, #388 ) ;
#79 = DIRECTION ( 'NONE',  ( 0.000000000000000000, 0.000000000000000000, -1.000000000000000000 ) ) ;
#80 = AXIS2_PLACEMENT_3D ( 'NONE', #614, #713, #1223 ) ;
#81 = VECTOR ( 'NONE', #1216, 1000.000000000000000 ) ;
#82 = VECTOR ( 'NONE', #547, 1000.000000000000000 ) ;
#83 = PLANE ( 'NONE',  #542 ) ;
#84 = FACE_OUTER_BOUND ( 'NONE', #900, .T. ) ;
#85 = AXIS2_PLACEMENT_3D ( 'NONE', #238, #748, #531 ) ;
#86 = EDGE_LOOP ( 'NONE', ( #848, #723, #702 ) ) ;
#87 = ADVANCED_FACE ( 'NONE', ( #1092 ), #83, .F. ) ;
#88 = CARTESIAN_POINT ( 'NONE',  ( 1.100000000000000089, -1.000000000000000000, 1.149999999999999911 ) ) ;
#89 = CARTESIAN_POINT ( 'NONE',  ( -1.149999999999999911, -0.9499999999999999556, 0.000000000000000000 ) ) ;
#90 = DIRECTION ( 'NONE',  ( 1.000000000000000000, -0.000000000000000000, 0.000000000000000000 ) ) ;
#91 = ORIENTED_EDGE ( 'NONE', *, *, #442, .T. ) ;
#92 = DIRECTION ( 'NONE',  ( 0.000000000000000000, 1.000000000000000000, 0.000000000000000000 ) ) ;
#93 = FACE_OUTER_BOUND ( 'NONE', #818, .T. ) ;
#94 = CARTESIAN_POINT ( 'NONE',  ( 1.149999999999999911, -0.8499999999999999778, 0.09999999999999954758 ) ) ;
#95 = ORIENTED_EDGE ( 'NONE', *, *, #901, .T. ) ;
#96 = FACE_OUTER_BOUND ( 'NONE', #523, .T. ) ;
#97 = EDGE_CURVE ( 'NONE', #1025, #1072, #894, .T. ) ;
#98 = CARTESIAN_POINT ( 'NONE',  ( -0.6499999999999994671, 0.8499999999999999778, 0.1000000000000000056 ) ) ;
#99 = CARTESIAN_POINT ( 'NONE',  ( -1.100000000000000089, 0.9499999999999999556, 1.149999999999999911 ) ) ;
#100 = VECTOR ( 'NONE', #826, 1000.000000000000000 ) ;
#101 = EDGE_LOOP ( 'NONE', ( #1215, #1291, #46, #1299 ) ) ;
#102 = AXIS2_PLACEMENT_3D ( 'NONE', #433, #653, #243 ) ;
#103 = VECTOR ( 'NONE', #391, 1000.000000000000000 ) ;
#104 = ORIENTED_EDGE ( 'NONE', *, *, #118, .T. ) ;
#105 = CARTESIAN_POINT ( 'NONE',  ( 1.150000000000000577, -0.8499999999999999778, 0.8999999999999998002 ) ) ;
#106 = CARTESIAN_POINT ( 'NONE',  ( 0.6499999999999995781, -0.8499999999999999778, -1.582202128689236671E-16 ) ) ;
#107 = VERTEX_POINT ( 'NONE', #382 ) ;
#108 = DIRECTION ( 'NONE',  ( -1.000000000000000000, 0.000000000000000000, 0.000000000000000000 ) ) ;
#109 = EDGE_CURVE ( 'NONE', #880, #416, #1013, .T. ) ;
#110 = VERTEX_POINT ( 'NONE', #1318 ) ;
#111 = LINE ( 'NONE', #526, #100 ) ;
#112 =( NAMED_UNIT ( * ) SI_UNIT ( $, .STERADIAN. ) SOLID_ANGLE_UNIT ( ) );
#113 = CARTESIAN_POINT ( 'NONE',  ( 1.149999999999999911, 0.9499999999999998446, 1.199999999999999956 ) ) ;
#114 = DIRECTION ( 'NONE',  ( 1.000000000000000000, 0.000000000000000000, -1.113718303092468747E-16 ) ) ;
#115 = ORIENTED_EDGE ( 'NONE', *, *, #595, .T. ) ;
#116 = FACE_OUTER_BOUND ( 'NONE', #678, .T. ) ;
#117 = ORIENTED_EDGE ( 'NONE', *, *, #283, .T. ) ;
#118 = EDGE_CURVE ( 'NONE', #1074, #1051, #811, .T. ) ;
#119 = CARTESIAN_POINT ( 'NONE',  ( -1.100000000000000089, 0.9499999999999998446, 1.199999999999999956 ) ) ;
#120 = APPLICATION_PROTOCOL_DEFINITION ( 'draft international standard', 'automotive_design', 1998, #1137 ) ;
#121 = DIRECTION ( 'NONE',  ( 4.336808689942025625E-15, 0.000000000000000000, -1.000000000000000000 ) ) ;
#122 = LINE ( 'NONE', #952, #950 ) ;
#123 = ORIENTED_EDGE ( 'NONE', *, *, #661, .F. ) ;
#124 = CIRCLE ( 'NONE', #321, 0.04999999999999991257 ) ;
#125 = ORIENTED_EDGE ( 'NONE', *, *, #551, .T. ) ;
#126 = VECTOR ( 'NONE', #151, 1000.000000000000000 ) ;
#127 = AXIS2_PLACEMENT_3D ( 'NONE', #1008, #90, #1099 ) ;
#128 = PRESENTATION_LAYER_ASSIGNMENT (  '', '', ( #669 ) ) ;
#129 = EDGE_CURVE ( 'NONE', #309, #666, #1264, .T. ) ;
#130 = LINE ( 'NONE', #544, #1287 ) ;
#131 = VECTOR ( 'NONE', #476, 1000.000000000000000 ) ;
#132 = DIRECTION ( 'NONE',  ( -1.000000000000000000, 0.000000000000000000, -3.523657060577884973E-16 ) ) ;
#133 = CARTESIAN_POINT ( 'NONE',  ( -0.6499999999999994671, -0.8499999999999999778, 0.1000000000000000056 ) ) ;
#134 = VERTEX_POINT ( 'NONE', #846 ) ;
#135 = ORIENTED_EDGE ( 'NONE', *, *, #109, .F. ) ;
#136 = LINE ( 'NONE', #28, #1080 ) ;
#137 = EDGE_CURVE ( 'NONE', #833, #392, #304, .T. ) ;
#138 = CARTESIAN_POINT ( 'NONE',  ( -1.149999999999999911, 0.8500000000000000888, 1.199999999999999956 ) ) ;
#139 = ORIENTED_EDGE ( 'NONE', *, *, #424, .F. ) ;
#140 = SURFACE_STYLE_FILL_AREA ( #1292 ) ;
#141 = ORIENTED_EDGE ( 'NONE', *, *, #351, .F. ) ;
#142 = DIRECTION ( 'NONE',  ( 0.000000000000000000, 0.000000000000000000, -1.000000000000000000 ) ) ;
#143 = DIRECTION ( 'NONE',  ( -1.000000000000000000, 0.000000000000000000, 1.113718303092468747E-16 ) ) ;
#144 = DIRECTION ( 'NONE',  ( -1.000000000000000000, 0.000000000000000000, -2.409338161078898194E-16 ) ) ;
#145 = EDGE_CURVE ( 'NONE', #1205, #55, #1130, .T. ) ;
#146 = EDGE_LOOP ( 'NONE', ( #362, #12, #1134, #652 ) ) ;
#147 = FACE_OUTER_BOUND ( 'NONE', #163, .T. ) ;
#148 = ORIENTED_EDGE ( 'NONE', *, *, #129, .T. ) ;
#149 = VECTOR ( 'NONE', #918, 1000.000000000000000 ) ;
#150 = AXIS2_PLACEMENT_3D ( 'NONE', #496, #700, #285 ) ;
#151 = DIRECTION ( 'NONE',  ( -1.000000000000000000, -0.000000000000000000, 1.113718303092468747E-16 ) ) ;
#152 = AXIS2_PLACEMENT_3D ( 'NONE', #717, #444, #26 ) ;
#153 = PRESENTATION_LAYER_ASSIGNMENT (  '', '', ( #668 ) ) ;
#154 = DIRECTION ( 'NONE',  ( 0.000000000000000000, 0.000000000000000000, 1.000000000000000000 ) ) ;
#155 = CYLINDRICAL_SURFACE ( 'NONE', #1182, 0.09999999999999971412 ) ;
#156 = ORIENTED_EDGE ( 'NONE', *, *, #976, .T. ) ;
#157 = LINE ( 'NONE', #1260, #42 ) ;
#158 = PRODUCT_DEFINITION ( 'UNKNOWN', '', #1116, #1281 ) ;
#159 = ORIENTED_EDGE ( 'NONE', *, *, #399, .F. ) ;
#160 = DIRECTION ( 'NONE',  ( -1.084202172485504434E-15, 0.000000000000000000, 1.000000000000000000 ) ) ;
#161 = FACE_OUTER_BOUND ( 'NONE', #86, .T. ) ;
#162 = DIRECTION ( 'NONE',  ( -1.000000000000000000, 0.000000000000000000, 0.000000000000000000 ) ) ;
#163 = EDGE_LOOP ( 'NONE', ( #1282, #625, #650, #1247, #148, #887, #619 ) ) ;
#164 = CARTESIAN_POINT ( 'NONE',  ( -1.100000000000000089, 0.000000000000000000, 1.149999999999999911 ) ) ;
#165 = ORIENTED_EDGE ( 'NONE', *, *, #622, .F. ) ;
#166 = ADVANCED_FACE ( 'NONE', ( #1049 ), #935, .F. ) ;
#167 = CARTESIAN_POINT ( 'NONE',  ( 0.6499999999999994671, -0.8499999999999999778, 0.09999999999999983902 ) ) ;
#168 = PRESENTATION_STYLE_ASSIGNMENT (( #1175 ) ) ;
#169 = VERTEX_POINT ( 'NONE', #732 ) ;
#170 = DIRECTION ( 'NONE',  ( -1.000000000000000000, 0.000000000000000000, -1.084202172485504434E-15 ) ) ;
#171 = EDGE_CURVE ( 'NONE', #38, #306, #239, .T. ) ;
#172 = AXIS2_PLACEMENT_3D ( 'NONE', #615, #200, #1038 ) ;
#173 = VECTOR ( 'NONE', #902, 1000.000000000000000 ) ;
#174 = AXIS2_PLACEMENT_3D ( 'NONE', #1093, #875, #651 ) ;
#175 = EDGE_CURVE ( 'NONE', #358, #626, #510, .T. ) ;
#176 = DIRECTION ( 'NONE',  ( 1.000000000000000000, 0.000000000000000000, 0.000000000000000000 ) ) ;
#177 = DIRECTION ( 'NONE',  ( -1.000000000000000000, 0.000000000000000000, 1.335575295202237667E-16 ) ) ;
#178 = ORIENTED_EDGE ( 'NONE', *, *, #269, .F. ) ;
#179 = CARTESIAN_POINT ( 'NONE',  ( -0.6499999999999995781, 0.8499999999999999778, 9.838710202321310719E-19 ) ) ;
#180 = EDGE_CURVE ( 'NONE', #314, #202, #951, .T. ) ;
#181 = DIRECTION ( 'NONE',  ( -0.000000000000000000, -0.000000000000000000, -1.000000000000000000 ) ) ;
#182 = CARTESIAN_POINT ( 'NONE',  ( -1.100000000000000089, 1.000000000000000000, 1.199999999999999956 ) ) ;
#183 = EDGE_LOOP ( 'NONE', ( #697, #1060, #52, #570 ) ) ;
#184 = CARTESIAN_POINT ( 'NONE',  ( -0.6499999999999994671, -0.8499999999999999778, 0.1000000000000000056 ) ) ;
#185 = DIRECTION ( 'NONE',  ( 1.000000000000000000, 0.000000000000000000, 0.000000000000000000 ) ) ;
#186 = LINE ( 'NONE', #75, #1203 ) ;
#187 = EDGE_CURVE ( 'NONE', #759, #294, #213, .T. ) ;
#188 = VERTEX_POINT ( 'NONE', #211 ) ;
#189 = DIRECTION ( 'NONE',  ( 1.000000000000000000, 0.000000000000000000, -5.963111948670267485E-16 ) ) ;
#190 = VECTOR ( 'NONE', #1236, 1000.000000000000000 ) ;
#191 = CIRCLE ( 'NONE', #343, 0.09999999999999982514 ) ;
#192 = VECTOR ( 'NONE', #428, 1000.000000000000000 ) ;
#193 =( NAMED_UNIT ( * ) SI_UNIT ( $, .STERADIAN. ) SOLID_ANGLE_UNIT ( ) );
#194 = DIRECTION ( 'NONE',  ( 0.000000000000000000, 0.000000000000000000, 1.000000000000000000 ) ) ;
#195 = COLOUR_RGB ( '',0.8039215686274510109, 0.8039215686274510109, 0.8039215686274510109 ) ;
#196 = ORIENTED_EDGE ( 'NONE', *, *, #551, .F. ) ;
#197 = VECTOR ( 'NONE', #1324, 1000.000000000000000 ) ;
#198 = ADVANCED_FACE ( 'NONE', ( #23 ), #1139, .F. ) ;
#199 = CARTESIAN_POINT ( 'NONE',  ( -1.249999999999999778, 0.8499999999999999778, 0.9000000000000002442 ) ) ;
#200 = DIRECTION ( 'NONE',  ( 0.000000000000000000, 1.000000000000000000, 0.000000000000000000 ) ) ;
#201 = PLANE ( 'NONE',  #214 ) ;
#202 = VERTEX_POINT ( 'NONE', #312 ) ;
#203 = EDGE_CURVE ( 'NONE', #169, #358, #59, .T. ) ;
#204 = DIRECTION ( 'NONE',  ( 0.000000000000000000, 1.000000000000000000, 0.000000000000000000 ) ) ;
#205 = DIRECTION ( 'NONE',  ( 0.000000000000000000, 1.000000000000000000, 0.000000000000000000 ) ) ;
#206 = ORIENTED_EDGE ( 'NONE', *, *, #460, .T. ) ;
#207 = CARTESIAN_POINT ( 'NONE',  ( -0.6499999999999994671, 0.8499999999999999778, 0.1000000000000000056 ) ) ;
#208 = EDGE_LOOP ( 'NONE', ( #1204, #123, #502, #584 ) ) ;
#209 = DIRECTION ( 'NONE',  ( -0.000000000000000000, -1.000000000000000000, -0.000000000000000000 ) ) ;
#210 = EDGE_CURVE ( 'NONE', #999, #1187, #1217, .T. ) ;
#211 = CARTESIAN_POINT ( 'NONE',  ( -1.249999999999999778, -0.8499999999999999778, 0.9000000000000002442 ) ) ;
#212 = CARTESIAN_POINT ( 'NONE',  ( -1.149999999999999911, -0.8499999999999999778, 0.09999999999999982514 ) ) ;
#213 = CIRCLE ( 'NONE', #1242, 0.09999999999999978351 ) ;
#214 = AXIS2_PLACEMENT_3D ( 'NONE', #1297, #612, #378 ) ;
#215 = ORIENTED_EDGE ( 'NONE', *, *, #29, .F. ) ;
#216 = VECTOR ( 'NONE', #461, 1000.000000000000000 ) ;
#217 = VECTOR ( 'NONE', #681, 1000.000000000000000 ) ;
#218 = ORIENTED_EDGE ( 'NONE', *, *, #308, .T. ) ;
#219 = CARTESIAN_POINT ( 'NONE',  ( 1.149999999999999911, 0.9499999999999999556, 0.000000000000000000 ) ) ;
#220 = SHAPE_DEFINITION_REPRESENTATION ( #467, #228 ) ;
#221 = DIRECTION ( 'NONE',  ( 0.000000000000000000, 1.000000000000000000, 0.000000000000000000 ) ) ;
#222 = CARTESIAN_POINT ( 'NONE',  ( 1.149999999999999911, -0.8499999999999999778, 0.09999999999999954758 ) ) ;
#223 = ADVANCED_FACE ( 'NONE', ( #528 ), #709, .T. ) ;
#224 = ORIENTED_EDGE ( 'NONE', *, *, #701, .T. ) ;
#225 = CARTESIAN_POINT ( 'NONE',  ( -1.149999999999999911, 0.9499999999999998446, 0.000000000000000000 ) ) ;
#226 =( BOUNDED_CURVE ( )  B_SPLINE_CURVE ( 3, ( #997, #68, #289, #480 ),
 .UNSPECIFIED., .F., .F. ) 
 B_SPLINE_CURVE_WITH_KNOTS ( ( 4, 4 ),
 ( 1.570796326794895892, 3.141592653589793116 ),
 .UNSPECIFIED. ) 
 CURVE ( )  GEOMETRIC_REPRESENTATION_ITEM ( )  RATIONAL_B_SPLINE_CURVE ( ( 1.000000000000000000, 0.8047378541243649375, 0.8047378541243649375, 1.000000000000000000 ) ) 
 REPRESENTATION_ITEM ( '' )  );
#227 = ORIENTED_EDGE ( 'NONE', *, *, #994, .F. ) ;
#228 = ADVANCED_BREP_SHAPE_REPRESENTATION ( 'SRP2512TMA-2R2M', ( #448, #3, #881, #494 ), #758 ) ;
#229 = CARTESIAN_POINT ( 'NONE',  ( -1.149999999999999911, 0.8499999999999999778, 6.776263578034407643E-17 ) ) ;
#230 = CARTESIAN_POINT ( 'NONE',  ( 1.149999999999999911, 0.8499999999999999778, 0.09999999999999954758 ) ) ;
#231 = ORIENTED_EDGE ( 'NONE', *, *, #4, .F. ) ;
#232 = CYLINDRICAL_SURFACE ( 'NONE', #867, 0.04999999999999991257 ) ;
#233 = EDGE_CURVE ( 'NONE', #169, #306, #1023, .T. ) ;
#234 = VERTEX_POINT ( 'NONE', #14 ) ;
#235 = FACE_OUTER_BOUND ( 'NONE', #838, .T. ) ;
#236 = CARTESIAN_POINT ( 'NONE',  ( 1.149999999999999911, -0.8499999999999999778, -2.139061280235471538E-16 ) ) ;
#237 = EDGE_LOOP ( 'NONE', ( #336, #635, #1256, #674 ) ) ;
#238 = CARTESIAN_POINT ( 'NONE',  ( -1.149999999999999911, -0.8499999999999999778, 0.09999999999999982514 ) ) ;
#239 = CIRCLE ( 'NONE', #996, 0.04999999999999991257 ) ;
#240 = ORIENTED_EDGE ( 'NONE', *, *, #940, .F. ) ;
#241 = PRESENTATION_LAYER_ASSIGNMENT (  '', '', ( #260 ) ) ;
#242 = VECTOR ( 'NONE', #690, 1000.000000000000000 ) ;
#243 = DIRECTION ( 'NONE',  ( 0.000000000000000000, 0.000000000000000000, 1.000000000000000000 ) ) ;
#244 = DIRECTION ( 'NONE',  ( 1.000000000000000000, 0.000000000000000000, 3.523657060577885466E-16 ) ) ;
#245 = CARTESIAN_POINT ( 'NONE',  ( 0.6499999999999994671, 0.8499999999999999778, 0.09999999999999983902 ) ) ;
#246 = VERTEX_POINT ( 'NONE', #426 ) ;
#247 = DIRECTION ( 'NONE',  ( 2.710505431213760099E-16, 0.000000000000000000, 1.000000000000000000 ) ) ;
#248 = ORIENTED_EDGE ( 'NONE', *, *, #564, .F. ) ;
#249 = CARTESIAN_POINT ( 'NONE',  ( 1.149999999999999911, 0.8499999999999999778, 0.09999999999999954758 ) ) ;
#250 = ADVANCED_FACE ( 'NONE', ( #93 ), #1028, .F. ) ;
#251 = CARTESIAN_POINT ( 'NONE',  ( 1.149999999999999911, 0.8499999999999999778, 0.09999999999999954758 ) ) ;
#252 = ORIENTED_EDGE ( 'NONE', *, *, #482, .F. ) ;
#253 = DIRECTION ( 'NONE',  ( 1.000000000000000000, -0.000000000000000000, 0.000000000000000000 ) ) ;
#254 = ORIENTED_EDGE ( 'NONE', *, *, #1021, .T. ) ;
#255 = CARTESIAN_POINT ( 'NONE',  ( 0.6499999999999995781, 0.8499999999999999778, -1.582202128689236671E-16 ) ) ;
#256 = DIRECTION ( 'NONE',  ( 0.000000000000000000, 0.000000000000000000, -1.000000000000000000 ) ) ;
#257 = VERTEX_POINT ( 'NONE', #106 ) ;
#258 = VERTEX_POINT ( 'NONE', #928 ) ;
#259 = COLOUR_RGB ( '',0.2862745098039215508, 0.2862745098039215508, 0.2862745098039215508 ) ;
#260 = STYLED_ITEM ( 'NONE', ( #720 ), #448 ) ;
#261 = VECTOR ( 'NONE', #998, 1000.000000000000000 ) ;
#262 = LINE ( 'NONE', #883, #908 ) ;
#263 = VECTOR ( 'NONE', #686, 1000.000000000000000 ) ;
#264 =( GEOMETRIC_REPRESENTATION_CONTEXT ( 3 ) GLOBAL_UNCERTAINTY_ASSIGNED_CONTEXT ( ( #1189 ) ) GLOBAL_UNIT_ASSIGNED_CONTEXT ( ( #699, #1112, #193 ) ) REPRESENTATION_CONTEXT ( 'NONE', 'WORKASPACE' ) );
#265 = DIRECTION ( 'NONE',  ( 3.523657060577884973E-16, 0.000000000000000000, -1.000000000000000000 ) ) ;
#266 = CARTESIAN_POINT ( 'NONE',  ( 1.149999999999999911, 0.8499999999999999778, 0.09999999999999954758 ) ) ;
#267 = EDGE_LOOP ( 'NONE', ( #550, #274, #741, #348 ) ) ;
#268 = DIRECTION ( 'NONE',  ( -1.084202172485504434E-15, 0.000000000000000000, -1.000000000000000000 ) ) ;
#269 = EDGE_CURVE ( 'NONE', #1169, #896, #521, .T. ) ;
#270 = ORIENTED_EDGE ( 'NONE', *, *, #733, .T. ) ;
#271 = CARTESIAN_POINT ( 'NONE',  ( 0.6499999999999995781, 0.8499999999999999778, -1.582202128689236671E-16 ) ) ;
#272 = DIRECTION ( 'NONE',  ( 0.000000000000000000, 0.000000000000000000, -1.000000000000000000 ) ) ;
#273 = CYLINDRICAL_SURFACE ( 'NONE', #366, 0.04999999999999991257 ) ;
#274 = ORIENTED_EDGE ( 'NONE', *, *, #1304, .F. ) ;
#275 = ADVANCED_FACE ( 'NONE', ( #161 ), #774, .T. ) ;
#276 = EDGE_CURVE ( 'NONE', #246, #356, #434, .T. ) ;
#277 = PLANE ( 'NONE',  #730 ) ;
#278 = CARTESIAN_POINT ( 'NONE',  ( 1.100000000000000089, 0.9499999999999999556, 1.149999999999999911 ) ) ;
#279 = PLANE ( 'NONE',  #868 ) ;
#280 = EDGE_LOOP ( 'NONE', ( #756, #449, #1, #840 ) ) ;
#281 = CARTESIAN_POINT ( 'NONE',  ( -1.149999999999999911, -0.8499999999999999778, 0.09999999999999982514 ) ) ;
#282 = VECTOR ( 'NONE', #920, 1000.000000000000000 ) ;
#283 = EDGE_CURVE ( 'NONE', #169, #626, #684, .T. ) ;
#284 = VECTOR ( 'NONE', #1329, 1000.000000000000000 ) ;
#285 = DIRECTION ( 'NONE',  ( 0.000000000000000000, 0.000000000000000000, 1.000000000000000000 ) ) ;
#286 = EDGE_LOOP ( 'NONE', ( #135, #1149, #725, #248 ) ) ;
#287 = CARTESIAN_POINT ( 'NONE',  ( -1.149999999999999911, 0.8499999999999999778, 0.09999999999999982514 ) ) ;
#288 = EDGE_CURVE ( 'NONE', #107, #999, #865, .T. ) ;
#289 = CARTESIAN_POINT ( 'NONE',  ( 1.150000000000000133, -0.9792893218813453204, -7.772825550729422594E-17 ) ) ;
#290 = CARTESIAN_POINT ( 'NONE',  ( -0.6499999999999995781, 0.8499999999999999778, 9.838710202321310719E-19 ) ) ;
#291 = VERTEX_POINT ( 'NONE', #440 ) ;
#292 = CARTESIAN_POINT ( 'NONE',  ( -1.149999999999999911, 1.000000000000000000, 0.04999999999999991257 ) ) ;
#293 = LINE ( 'NONE', #696, #103 ) ;
#294 = VERTEX_POINT ( 'NONE', #236 ) ;
#295 = CYLINDRICAL_SURFACE ( 'NONE', #491, 0.04999999999999991257 ) ;
#296 = AXIS2_PLACEMENT_3D ( 'NONE', #287, #1316, #475 ) ;
#297 = VECTOR ( 'NONE', #1131, 1000.000000000000000 ) ;
#298 = DIRECTION ( 'NONE',  ( -1.000000000000000000, 0.000000000000000000, 0.000000000000000000 ) ) ;
#299 = LINE ( 'NONE', #182, #19 ) ;
#300 = ORIENTED_EDGE ( 'NONE', *, *, #37, .F. ) ;
#301 = EDGE_CURVE ( 'NONE', #258, #1072, #1268, .T. ) ;
#302 = LINE ( 'NONE', #219, #948 ) ;
#303 = SURFACE_STYLE_USAGE ( .BOTH. , #505 ) ;
#304 = LINE ( 'NONE', #113, #752 ) ;
#305 = LINE ( 'NONE', #1152, #192 ) ;
#306 = VERTEX_POINT ( 'NONE', #1274 ) ;
#307 = DIRECTION ( 'NONE',  ( 0.000000000000000000, 1.000000000000000000, 0.000000000000000000 ) ) ;
#308 = EDGE_CURVE ( 'NONE', #306, #392, #124, .T. ) ;
#309 = VERTEX_POINT ( 'NONE', #762 ) ;
#310 = ADVANCED_FACE ( 'NONE', ( #1070 ), #359, .F. ) ;
#311 = SURFACE_STYLE_USAGE ( .BOTH. , #834 ) ;
#312 = CARTESIAN_POINT ( 'NONE',  ( -1.149999999999999911, -0.8499999999999999778, 6.776263578034407643E-17 ) ) ;
#313 = DIRECTION ( 'NONE',  ( 0.000000000000000000, -0.000000000000000000, 1.000000000000000000 ) ) ;
#314 = VERTEX_POINT ( 'NONE', #751 ) ;
#315 = DIRECTION ( 'NONE',  ( 1.000000000000000000, -0.000000000000000000, -0.000000000000000000 ) ) ;
#316 = ORIENTED_EDGE ( 'NONE', *, *, #793, .F. ) ;
#317 = CARTESIAN_POINT ( 'NONE',  ( 1.149999999999999911, -1.000000000000000000, 0.000000000000000000 ) ) ;
#318 = EDGE_CURVE ( 'NONE', #833, #1074, #682, .T. ) ;
#319 = DIRECTION ( 'NONE',  ( -1.000000000000000000, 0.000000000000000000, 1.084202172485504434E-15 ) ) ;
#320 = DIRECTION ( 'NONE',  ( 0.000000000000000000, 1.000000000000000000, 0.000000000000000000 ) ) ;
#321 = AXIS2_PLACEMENT_3D ( 'NONE', #1076, #354, #154 ) ;
#322 = VECTOR ( 'NONE', #522, 1000.000000000000000 ) ;
#323 = VERTEX_POINT ( 'NONE', #745 ) ;
#324 = CLOSED_SHELL ( 'NONE', ( #166, #198, #610, #986, #1213, #1208, #327, #947, #250 ) ) ;
#325 = ORIENTED_EDGE ( 'NONE', *, *, #1306, .F. ) ;
#326 = DIRECTION ( 'NONE',  ( 0.000000000000000000, 0.000000000000000000, 1.000000000000000000 ) ) ;
#327 = ADVANCED_FACE ( 'NONE', ( #1151 ), #980, .F. ) ;
#328 = DIRECTION ( 'NONE',  ( 1.084202172485504434E-15, 0.000000000000000000, 1.000000000000000000 ) ) ;
#329 = VERTEX_POINT ( 'NONE', #1167 ) ;
#330 = ORIENTED_EDGE ( 'NONE', *, *, #380, .T. ) ;
#331 = CARTESIAN_POINT ( 'NONE',  ( 0.6499999999999994671, 0.8499999999999999778, 0.09999999999999983902 ) ) ;
#332 = CARTESIAN_POINT ( 'NONE',  ( 1.150000000000000577, 0.8499999999999999778, 0.8999999999999998002 ) ) ;
#333 = VERTEX_POINT ( 'NONE', #546 ) ;
#334 = CARTESIAN_POINT ( 'NONE',  ( -0.6499999999999995781, -0.8499999999999999778, 9.838710202321310719E-19 ) ) ;
#335 = EDGE_CURVE ( 'NONE', #294, #978, #552, .T. ) ;
#336 = ORIENTED_EDGE ( 'NONE', *, *, #564, .T. ) ;
#337 = CARTESIAN_POINT ( 'NONE',  ( 1.150000000000000133, 0.9792893218813449874, -1.333434501817359347E-16 ) ) ;
#338 = DIRECTION ( 'NONE',  ( -0.000000000000000000, -1.000000000000000000, -0.000000000000000000 ) ) ;
#339 = ORIENTED_EDGE ( 'NONE', *, *, #1317, .T. ) ;
#340 = CARTESIAN_POINT ( 'NONE',  ( 1.149999999999999911, 0.8500000000000000888, 1.199999999999999956 ) ) ;
#341 = AXIS2_PLACEMENT_3D ( 'NONE', #105, #519, #13 ) ;
#342 = ORIENTED_EDGE ( 'NONE', *, *, #175, .F. ) ;
#343 = AXIS2_PLACEMENT_3D ( 'NONE', #961, #11, #1133 ) ;
#344 = ADVANCED_FACE ( 'NONE', ( #970 ), #503, .T. ) ;
#345 = VECTOR ( 'NONE', #870, 1000.000000000000000 ) ;
#346 = CARTESIAN_POINT ( 'NONE',  ( -1.149999999999999911, -0.9792893218813453204, -8.131516293641283255E-17 ) ) ;
#347 = CARTESIAN_POINT ( 'NONE',  ( -1.149999999999999911, -1.000000000000000000, 1.199999999999999956 ) ) ;
#348 = ORIENTED_EDGE ( 'NONE', *, *, #1009, .T. ) ;
#349 = DIRECTION ( 'NONE',  ( 0.000000000000000000, 0.000000000000000000, 1.000000000000000000 ) ) ;
#350 = ORIENTED_EDGE ( 'NONE', *, *, #580, .T. ) ;
#351 = EDGE_CURVE ( 'NONE', #978, #1025, #111, .T. ) ;
#352 = DIRECTION ( 'NONE',  ( -1.000000000000000000, 0.000000000000000000, 0.000000000000000000 ) ) ;
#353 = ADVANCED_FACE ( 'NONE', ( #706 ), #295, .T. ) ;
#354 = DIRECTION ( 'NONE',  ( 0.000000000000000000, 1.000000000000000000, 0.000000000000000000 ) ) ;
#355 = FACE_OUTER_BOUND ( 'NONE', #1305, .T. ) ;
#356 = VERTEX_POINT ( 'NONE', #425 ) ;
#357 =( NAMED_UNIT ( * ) SI_UNIT ( $, .STERADIAN. ) SOLID_ANGLE_UNIT ( ) );
#358 = VERTEX_POINT ( 'NONE', #88 ) ;
#359 = PLANE ( 'NONE',  #427 ) ;
#360 = EDGE_CURVE ( 'NONE', #309, #188, #6, .T. ) ;
#361 = LINE ( 'NONE', #860, #82 ) ;
#362 = ORIENTED_EDGE ( 'NONE', *, *, #1040, .F. ) ;
#363 = LINE ( 'NONE', #577, #345 ) ;
#364 = EDGE_LOOP ( 'NONE', ( #905, #518, #1005, #156, #974, #772, #1042 ) ) ;
#365 = VECTOR ( 'NONE', #941, 1000.000000000000000 ) ;
#366 = AXIS2_PLACEMENT_3D ( 'NONE', #164, #562, #1066 ) ;
#367 = CARTESIAN_POINT ( 'NONE',  ( 0.6499999999999995781, 0.8499999999999999778, -1.582202128689236671E-16 ) ) ;
#368 = MECHANICAL_DESIGN_GEOMETRIC_PRESENTATION_REPRESENTATION (  '', ( #669 ), #264 ) ;
#369 = AXIS2_PLACEMENT_3D ( 'NONE', #1209, #1190, #790 ) ;
#370 = CARTESIAN_POINT ( 'NONE',  ( -1.149999999999999911, 0.9499999999999999556, 0.04999999999999991257 ) ) ;
#371 = UNCERTAINTY_MEASURE_WITH_UNIT (LENGTH_MEASURE( 1.000000000000000082E-05 ), #7, 'distance_accuracy_value', 'NONE');
#372 = EDGE_CURVE ( 'NONE', #258, #246, #814, .T. ) ;
#373 = ORIENTED_EDGE ( 'NONE', *, *, #77, .F. ) ;
#374 =( NAMED_UNIT ( * ) PLANE_ANGLE_UNIT ( ) SI_UNIT ( $, .RADIAN. ) );
#375 = ORIENTED_EDGE ( 'NONE', *, *, #712, .T. ) ;
#376 = LINE ( 'NONE', #72, #474 ) ;
#377 = CARTESIAN_POINT ( 'NONE',  ( 0.6499999999999994671, -0.8499999999999999778, 0.09999999999999983902 ) ) ;
#378 = DIRECTION ( 'NONE',  ( 0.000000000000000000, -0.000000000000000000, 1.000000000000000000 ) ) ;
#379 = ORIENTED_EDGE ( 'NONE', *, *, #603, .T. ) ;
#380 = EDGE_CURVE ( 'NONE', #825, #1262, #499, .T. ) ;
#381 = CARTESIAN_POINT ( 'NONE',  ( -0.6499999999999994671, -0.8499999999999999778, 0.1000000000000000056 ) ) ;
#382 = CARTESIAN_POINT ( 'NONE',  ( -1.149999999999999911, 0.8499999999999999778, 0.09999999999999982514 ) ) ;
#383 = CARTESIAN_POINT ( 'NONE',  ( -1.150000000000000133, -0.8499999999999999778, 1.000000000000000000 ) ) ;
#384 = ORIENTED_EDGE ( 'NONE', *, *, #276, .T. ) ;
#385 = EDGE_CURVE ( 'NONE', #643, #333, #841, .T. ) ;
#386 = CARTESIAN_POINT ( 'NONE',  ( 1.250000000000000000, 0.8499999999999999778, 0.8999999999999998002 ) ) ;
#387 = VECTOR ( 'NONE', #204, 1000.000000000000000 ) ;
#388 = VECTOR ( 'NONE', #910, 1000.000000000000000 ) ;
#389 = AXIS2_PLACEMENT_3D ( 'NONE', #649, #671, #256 ) ;
#390 = CLOSED_SHELL ( 'NONE', ( #450, #1263, #853, #1229, #1122, #1172, #1261, #1123, #1053 ) ) ;
#391 = DIRECTION ( 'NONE',  ( -0.000000000000000000, -0.000000000000000000, 1.000000000000000000 ) ) ;
#392 = VERTEX_POINT ( 'NONE', #1138 ) ;
#393 = LINE ( 'NONE', #803, #1221 ) ;
#394 = FACE_OUTER_BOUND ( 'NONE', #543, .T. ) ;
#395 = DIRECTION ( 'NONE',  ( 0.000000000000000000, 0.000000000000000000, 1.000000000000000000 ) ) ;
#396 = CARTESIAN_POINT ( 'NONE',  ( -1.250000000000000000, 0.8499999999999999778, 0.09999999999999981126 ) ) ;
#397 = ORIENTED_EDGE ( 'NONE', *, *, #424, .T. ) ;
#398 = SURFACE_STYLE_FILL_AREA ( #925 ) ;
#399 = EDGE_CURVE ( 'NONE', #850, #110, #1036, .T. ) ;
#400 = LINE ( 'NONE', #805, #131 ) ;
#401 = LINE ( 'NONE', #1109, #889 ) ;
#402 = ORIENTED_EDGE ( 'NONE', *, *, #372, .F. ) ;
#403 = DIRECTION ( 'NONE',  ( 0.000000000000000000, 0.000000000000000000, 1.000000000000000000 ) ) ;
#404 = AXIS2_PLACEMENT_3D ( 'NONE', #836, #628, #943 ) ;
#405 = DIRECTION ( 'NONE',  ( 0.000000000000000000, 1.000000000000000000, 0.000000000000000000 ) ) ;
#406 = CARTESIAN_POINT ( 'NONE',  ( 0.6499999999999994671, 0.8499999999999999778, 0.09999999999999983902 ) ) ;
#407 = EDGE_CURVE ( 'NONE', #329, #110, #418, .T. ) ;
#408 = VECTOR ( 'NONE', #1001, 1000.000000000000000 ) ;
#409 = ORIENTED_EDGE ( 'NONE', *, *, #872, .T. ) ;
#410 = EDGE_CURVE ( 'NONE', #202, #423, #604, .T. ) ;
#411 = VERTEX_POINT ( 'NONE', #726 ) ;
#412 = PLANE ( 'NONE',  #1312 ) ;
#413 = DIRECTION ( 'NONE',  ( 1.000000000000000000, 0.000000000000000000, 0.000000000000000000 ) ) ;
#414 = FACE_OUTER_BOUND ( 'NONE', #1239, .T. ) ;
#415 = ORIENTED_EDGE ( 'NONE', *, *, #1009, .F. ) ;
#416 = VERTEX_POINT ( 'NONE', #1026 ) ;
#417 = ADVANCED_FACE ( 'NONE', ( #96 ), #820, .T. ) ;
#418 = LINE ( 'NONE', #611, #190 ) ;
#419 = DIRECTION ( 'NONE',  ( 0.000000000000000000, 1.000000000000000000, 0.000000000000000000 ) ) ;
#420 = CARTESIAN_POINT ( 'NONE',  ( 1.100000000000000311, 1.000000000000000000, 0.04999999999999991257 ) ) ;
#421 = ORIENTED_EDGE ( 'NONE', *, *, #335, .T. ) ;
#422 = LINE ( 'NONE', #742, #845 ) ;
#423 = VERTEX_POINT ( 'NONE', #1230 ) ;
#424 = EDGE_CURVE ( 'NONE', #134, #833, #302, .T. ) ;
#425 = CARTESIAN_POINT ( 'NONE',  ( 1.150000000000000577, -0.8499999999999999778, 0.9999999999999991118 ) ) ;
#426 = CARTESIAN_POINT ( 'NONE',  ( 1.150000000000000577, 0.8499999999999999778, 0.9999999999999991118 ) ) ;
#427 = AXIS2_PLACEMENT_3D ( 'NONE', #1057, #878, #768 ) ;
#428 = DIRECTION ( 'NONE',  ( 1.000000000000000000, -0.000000000000000000, -5.963111948670267485E-16 ) ) ;
#429 = AXIS2_PLACEMENT_3D ( 'NONE', #99, #320, #1146 ) ;
#430 = EDGE_LOOP ( 'NONE', ( #1010, #876, #1143, #1048 ) ) ;
#431 = PLANE ( 'NONE',  #85 ) ;
#432 = ORIENTED_EDGE ( 'NONE', *, *, #1219, .T. ) ;
#433 = CARTESIAN_POINT ( 'NONE',  ( -1.149999999999999911, 0.8499999999999999778, 0.09999999999999982514 ) ) ;
#434 = LINE ( 'NONE', #446, #585 ) ;
#435 = PLANE ( 'NONE',  #1079 ) ;
#436 = ORIENTED_EDGE ( 'NONE', *, *, #118, .F. ) ;
#437 = DIRECTION ( 'NONE',  ( 0.000000000000000000, 0.000000000000000000, -1.000000000000000000 ) ) ;
#438 = ORIENTED_EDGE ( 'NONE', *, *, #380, .F. ) ;
#439 = CARTESIAN_POINT ( 'NONE',  ( 1.100000000000000089, -0.9499999999999999556, 1.149999999999999911 ) ) ;
#440 = CARTESIAN_POINT ( 'NONE',  ( 0.6499999999999994671, 0.8499999999999999778, 0.000000000000000000 ) ) ;
#441 = DIRECTION ( 'NONE',  ( 0.000000000000000000, 0.000000000000000000, -1.000000000000000000 ) ) ;
#442 = EDGE_CURVE ( 'NONE', #666, #954, #1124, .T. ) ;
#443 = ORIENTED_EDGE ( 'NONE', *, *, #688, .T. ) ;
#444 = DIRECTION ( 'NONE',  ( 0.000000000000000000, 1.000000000000000000, 0.000000000000000000 ) ) ;
#445 = ORIENTED_EDGE ( 'NONE', *, *, #1083, .T. ) ;
#446 = CARTESIAN_POINT ( 'NONE',  ( 1.150000000000000577, 0.8499999999999999778, 0.9999999999999991118 ) ) ;
#447 = PLANE ( 'NONE',  #924 ) ;
#448 = MANIFOLD_SOLID_BREP ( 'Fillet1', #780 ) ;
#449 = ORIENTED_EDGE ( 'NONE', *, *, #1021, .F. ) ;
#450 = ADVANCED_FACE ( 'NONE', ( #235 ), #412, .F. ) ;
#451 = ORIENTED_EDGE ( 'NONE', *, *, #1089, .T. ) ;
#452 = VECTOR ( 'NONE', #20, 1000.000000000000000 ) ;
#453 = AXIS2_PLACEMENT_3D ( 'NONE', #1173, #144, #470 ) ;
#454 = EDGE_CURVE ( 'NONE', #656, #978, #130, .T. ) ;
#455 = CYLINDRICAL_SURFACE ( 'NONE', #754, 0.04999999999999991257 ) ;
#456 = CARTESIAN_POINT ( 'NONE',  ( 1.100000000000000089, -0.9499999999999999556, 1.149999999999999911 ) ) ;
#457 = ORIENTED_EDGE ( 'NONE', *, *, #171, .T. ) ;
#458 = DIRECTION ( 'NONE',  ( -1.000000000000000000, 0.000000000000000000, 2.710505431213760099E-16 ) ) ;
#459 = ORIENTED_EDGE ( 'NONE', *, *, #1272, .T. ) ;
#460 = EDGE_CURVE ( 'NONE', #1187, #630, #48, .T. ) ;
#461 = DIRECTION ( 'NONE',  ( -0.000000000000000000, -1.000000000000000000, -0.000000000000000000 ) ) ;
#462 = CARTESIAN_POINT ( 'NONE',  ( 1.149999999999999911, 0.9499999999999998446, 0.000000000000000000 ) ) ;
#463 =( BOUNDED_CURVE ( )  B_SPLINE_CURVE ( 3, ( #979, #1257, #346, #1158 ),
 .UNSPECIFIED., .F., .F. ) 
 B_SPLINE_CURVE_WITH_KNOTS ( ( 4, 4 ),
 ( 4.712388980384689674, 6.283185307179586232 ),
 .UNSPECIFIED. ) 
 CURVE ( )  GEOMETRIC_REPRESENTATION_ITEM ( )  RATIONAL_B_SPLINE_CURVE ( ( 1.000000000000000000, 0.8047378541243649375, 0.8047378541243649375, 1.000000000000000000 ) ) 
 REPRESENTATION_ITEM ( '' )  );
#464 = ORIENTED_EDGE ( 'NONE', *, *, #679, .T. ) ;
#465 = CARTESIAN_POINT ( 'NONE',  ( -1.149999999999999911, 0.8499999999999999778, 0.09999999999999982514 ) ) ;
#466 = VERTEX_POINT ( 'NONE', #957 ) ;
#467 = PRODUCT_DEFINITION_SHAPE ( 'NONE', 'NONE',  #158 ) ;
#468 = FACE_OUTER_BOUND ( 'NONE', #430, .T. ) ;
#469 = EDGE_CURVE ( 'NONE', #566, #466, #538, .T. ) ;
#470 = DIRECTION ( 'NONE',  ( -2.409338161078898194E-16, 0.000000000000000000, 1.000000000000000000 ) ) ;
#471 = EDGE_LOOP ( 'NONE', ( #117, #1065, #1228, #530 ) ) ;
#472 = ORIENTED_EDGE ( 'NONE', *, *, #410, .F. ) ;
#473 = VECTOR ( 'NONE', #1334, 1000.000000000000000 ) ;
#474 = VECTOR ( 'NONE', #1300, 1000.000000000000000 ) ;
#475 = DIRECTION ( 'NONE',  ( 0.000000000000000000, 0.000000000000000000, -1.000000000000000000 ) ) ;
#476 = DIRECTION ( 'NONE',  ( -1.000000000000000000, 0.000000000000000000, -0.000000000000000000 ) ) ;
#477 = DIRECTION ( 'NONE',  ( 0.000000000000000000, 0.000000000000000000, -1.000000000000000000 ) ) ;
#478 = ORIENTED_EDGE ( 'NONE', *, *, #1071, .T. ) ;
#479 = DIRECTION ( 'NONE',  ( 0.000000000000000000, 0.000000000000000000, -1.000000000000000000 ) ) ;
#480 = CARTESIAN_POINT ( 'NONE',  ( 1.149999999999999911, -0.9499999999999999556, 0.000000000000000000 ) ) ;
#481 = DIRECTION ( 'NONE',  ( 0.000000000000000000, -0.000000000000000000, 1.000000000000000000 ) ) ;
#482 = EDGE_CURVE ( 'NONE', #134, #323, #136, .T. ) ;
#483 = EDGE_LOOP ( 'NONE', ( #798, #1141, #1086, #240 ) ) ;
#484 = LINE ( 'NONE', #600, #60 ) ;
#485 = FACE_OUTER_BOUND ( 'NONE', #578, .T. ) ;
#486 = SURFACE_SIDE_STYLE ('',( #31 ) ) ;
#487 = CARTESIAN_POINT ( 'NONE',  ( 1.150000000000000577, -0.8499999999999999778, 0.8999999999999998002 ) ) ;
#488 = ORIENTED_EDGE ( 'NONE', *, *, #269, .T. ) ;
#489 = ADVANCED_FACE ( 'NONE', ( #533 ), #33, .T. ) ;
#490 = CYLINDRICAL_SURFACE ( 'NONE', #296, 0.09999999999999990841 ) ;
#491 = AXIS2_PLACEMENT_3D ( 'NONE', #1118, #1321, #1022 ) ;
#492 = AXIS2_PLACEMENT_3D ( 'NONE', #1163, #458, #247 ) ;
#493 = VECTOR ( 'NONE', #955, 1000.000000000000000 ) ;
#494 = AXIS2_PLACEMENT_3D ( 'NONE', #1037, #728, #942 ) ;
#495 = PRESENTATION_STYLE_ASSIGNMENT (( #1201 ) ) ;
#496 = CARTESIAN_POINT ( 'NONE',  ( 1.100000000000000089, 0.000000000000000000, 1.149999999999999911 ) ) ;
#497 = ORIENTED_EDGE ( 'NONE', *, *, #454, .F. ) ;
#498 = EDGE_CURVE ( 'NONE', #711, #55, #463, .T. ) ;
#499 = LINE ( 'NONE', #934, #365 ) ;
#500 = CARTESIAN_POINT ( 'NONE',  ( 1.149999999999999911, 0.8499999999999999778, -2.139061280235471538E-16 ) ) ;
#501 = LINE ( 'NONE', #290, #907 ) ;
#502 = ORIENTED_EDGE ( 'NONE', *, *, #515, .F. ) ;
#503 = PLANE ( 'NONE',  #341 ) ;
#504 = EDGE_CURVE ( 'NONE', #775, #1025, #1278, .T. ) ;
#505 = SURFACE_SIDE_STYLE ('',( #852 ) ) ;
#506 = DIRECTION ( 'NONE',  ( 1.335575295202237667E-16, -0.000000000000000000, 1.000000000000000000 ) ) ;
#507 = LINE ( 'NONE', #529, #284 ) ;
#508 = ORIENTED_EDGE ( 'NONE', *, *, #145, .T. ) ;
#509 = DIRECTION ( 'NONE',  ( -0.000000000000000000, -1.000000000000000000, -0.000000000000000000 ) ) ;
#510 = CIRCLE ( 'NONE', #799, 0.04999999999999991257 ) ;
#511 = VECTOR ( 'NONE', #1177, 1000.000000000000000 ) ;
#512 = AXIS2_PLACEMENT_3D ( 'NONE', #245, #559, #972 ) ;
#513 = DIRECTION ( 'NONE',  ( 0.000000000000000000, -0.000000000000000000, 1.000000000000000000 ) ) ;
#514 = PLANE ( 'NONE',  #1035 ) ;
#515 = EDGE_CURVE ( 'NONE', #314, #743, #1332, .T. ) ;
#516 = ORIENTED_EDGE ( 'NONE', *, *, #919, .T. ) ;
#517 = CARTESIAN_POINT ( 'NONE',  ( -1.249999999999999778, 0.8499999999999999778, 0.09999999999999981126 ) ) ;
#518 = ORIENTED_EDGE ( 'NONE', *, *, #37, .T. ) ;
#519 = DIRECTION ( 'NONE',  ( 0.000000000000000000, 1.000000000000000000, 0.000000000000000000 ) ) ;
#520 = APPLICATION_PROTOCOL_DEFINITION ( 'draft international standard', 'automotive_design', 1998, #704 ) ;
#521 = LINE ( 'NONE', #8, #906 ) ;
#522 = DIRECTION ( 'NONE',  ( -0.000000000000000000, 1.000000000000000000, -0.000000000000000000 ) ) ;
#523 = EDGE_LOOP ( 'NONE', ( #613, #1294, #1106, #1059 ) ) ;
#524 = LINE ( 'NONE', #938, #621 ) ;
#525 = ORIENTED_EDGE ( 'NONE', *, *, #793, .T. ) ;
#526 = CARTESIAN_POINT ( 'NONE',  ( 0.6499999999999995781, -0.8499999999999999778, -1.582202128689236671E-16 ) ) ;
#527 =( NAMED_UNIT ( * ) PLANE_ANGLE_UNIT ( ) SI_UNIT ( $, .RADIAN. ) );
#528 = FACE_OUTER_BOUND ( 'NONE', #1121, .T. ) ;
#529 = CARTESIAN_POINT ( 'NONE',  ( -1.149999999999999911, -0.9499999999999999556, 0.000000000000000000 ) ) ;
#530 = ORIENTED_EDGE ( 'NONE', *, *, #233, .F. ) ;
#531 = DIRECTION ( 'NONE',  ( 1.000000000000000000, 0.000000000000000000, 3.523657060577884973E-16 ) ) ;
#532 = ORIENTED_EDGE ( 'NONE', *, *, #407, .F. ) ;
#533 = FACE_OUTER_BOUND ( 'NONE', #939, .T. ) ;
#534 = DIRECTION ( 'NONE',  ( -1.000000000000000000, 0.000000000000000000, 0.000000000000000000 ) ) ;
#535 = CARTESIAN_POINT ( 'NONE',  ( 1.100000000000000311, 0.9499999999999999556, 1.149999999999999911 ) ) ;
#536 = VECTOR ( 'NONE', #298, 1000.000000000000000 ) ;
#537 = DIRECTION ( 'NONE',  ( 1.084202172485504434E-15, 0.000000000000000000, -1.000000000000000000 ) ) ;
#538 = CIRCLE ( 'NONE', #1159, 0.04999999999999991257 ) ;
#539 = CIRCLE ( 'NONE', #174, 0.04999999999999991257 ) ;
#540 = ORIENTED_EDGE ( 'NONE', *, *, #804, .T. ) ;
#541 = LINE ( 'NONE', #644, #41 ) ;
#542 = AXIS2_PLACEMENT_3D ( 'NONE', #695, #1003, #582 ) ;
#543 = EDGE_LOOP ( 'NONE', ( #379, #1211, #576, #967 ) ) ;
#544 = CARTESIAN_POINT ( 'NONE',  ( 0.6499999999999995781, 0.8499999999999999778, -1.582202128689236671E-16 ) ) ;
#545 = EDGE_CURVE ( 'NONE', #921, #759, #949, .T. ) ;
#546 = CARTESIAN_POINT ( 'NONE',  ( 1.250000000000000000, -0.8499999999999999778, 0.8999999999999998002 ) ) ;
#547 = DIRECTION ( 'NONE',  ( -0.000000000000000000, -1.000000000000000000, -0.000000000000000000 ) ) ;
#548 = LINE ( 'NONE', #1296, #1293 ) ;
#549 = LINE ( 'NONE', #1046, #667 ) ;
#550 = ORIENTED_EDGE ( 'NONE', *, *, #1165, .T. ) ;
#551 = EDGE_CURVE ( 'NONE', #999, #962, #744, .T. ) ;
#552 = LINE ( 'NONE', #964, #1077 ) ;
#553 = CYLINDRICAL_SURFACE ( 'NONE', #977, 0.05000000000000000278 ) ;
#554 = EDGE_LOOP ( 'NONE', ( #1153, #1052, #141, #602, #1326, #858, #1041 ) ) ;
#555 = SURFACE_SIDE_STYLE ('',( #140 ) ) ;
#556 = ORIENTED_EDGE ( 'NONE', *, *, #727, .T. ) ;
#557 = FACE_OUTER_BOUND ( 'NONE', #280, .T. ) ;
#558 = DIRECTION ( 'NONE',  ( 0.000000000000000000, 0.000000000000000000, -1.000000000000000000 ) ) ;
#559 = DIRECTION ( 'NONE',  ( -5.963111948670267485E-16, 0.000000000000000000, -1.000000000000000000 ) ) ;
#560 =( BOUNDED_CURVE ( )  B_SPLINE_CURVE ( 3, ( #225, #857, #1255, #946 ),
 .UNSPECIFIED., .F., .F. ) 
 B_SPLINE_CURVE_WITH_KNOTS ( ( 4, 4 ),
 ( 3.141592653589793116, 4.712388980384689674 ),
 .UNSPECIFIED. ) 
 CURVE ( )  GEOMETRIC_REPRESENTATION_ITEM ( )  RATIONAL_B_SPLINE_CURVE ( ( 1.000000000000000000, 0.8047378541243649375, 0.8047378541243649375, 1.000000000000000000 ) ) 
 REPRESENTATION_ITEM ( '' )  );
#561 = VERTEX_POINT ( 'NONE', #1273 ) ;
#562 = DIRECTION ( 'NONE',  ( 0.000000000000000000, -1.000000000000000000, 0.000000000000000000 ) ) ;
#563 = VECTOR ( 'NONE', #1301, 1000.000000000000000 ) ;
#564 = EDGE_CURVE ( 'NONE', #416, #711, #1250, .T. ) ;
#565 = AXIS2_PLACEMENT_3D ( 'NONE', #465, #776, #481 ) ;
#566 = VERTEX_POINT ( 'NONE', #1150 ) ;
#567 = VECTOR ( 'NONE', #724, 1000.000000000000000 ) ;
#568 = DIRECTION ( 'NONE',  ( 0.000000000000000000, 0.000000000000000000, -1.000000000000000000 ) ) ;
#569 = DIRECTION ( 'NONE',  ( -0.000000000000000000, 1.000000000000000000, -0.000000000000000000 ) ) ;
#570 = ORIENTED_EDGE ( 'NONE', *, *, #385, .T. ) ;
#571 = PLANE ( 'NONE',  #565 ) ;
#572 = ORIENTED_EDGE ( 'NONE', *, *, #893, .F. ) ;
#573 = ADVANCED_FACE ( 'NONE', ( #557 ), #455, .T. ) ;
#574 = PLANE ( 'NONE',  #888 ) ;
#575 = DIRECTION ( 'NONE',  ( 1.000000000000000000, 0.000000000000000000, 0.000000000000000000 ) ) ;
#576 = ORIENTED_EDGE ( 'NONE', *, *, #1083, .F. ) ;
#577 = CARTESIAN_POINT ( 'NONE',  ( -1.250000000000000000, -0.8499999999999999778, 0.09999999999999981126 ) ) ;
#578 = EDGE_LOOP ( 'NONE', ( #1314, #779, #432, #65, #1147, #532, #861, #16 ) ) ;
#579 = LINE ( 'NONE', #58, #1055 ) ;
#580 = EDGE_CURVE ( 'NONE', #1164, #291, #1171, .T. ) ;
#581 = DIRECTION ( 'NONE',  ( 0.000000000000000000, 0.000000000000000000, -1.000000000000000000 ) ) ;
#582 = DIRECTION ( 'NONE',  ( 0.000000000000000000, -0.000000000000000000, -1.000000000000000000 ) ) ;
#583 = CARTESIAN_POINT ( 'NONE',  ( -1.149999999999999911, -0.9499999999999999556, 1.199999999999999956 ) ) ;
#584 = ORIENTED_EDGE ( 'NONE', *, *, #180, .T. ) ;
#585 = VECTOR ( 'NONE', #1160, 1000.000000000000000 ) ;
#586 = VECTOR ( 'NONE', #963, 1000.000000000000000 ) ;
#587 = AXIS2_PLACEMENT_3D ( 'NONE', #266, #338, #272 ) ;
#588 = CARTESIAN_POINT ( 'NONE',  ( 1.100000000000000311, 0.9499999999999999556, 1.199999999999999956 ) ) ;
#589 = AXIS2_PLACEMENT_3D ( 'NONE', #789, #73, #581 ) ;
#590 = EDGE_CURVE ( 'NONE', #775, #258, #773, .T. ) ;
#591 = CARTESIAN_POINT ( 'NONE',  ( 0.6499999999999994671, -0.8499999999999999778, 0.09999999999999983902 ) ) ;
#592 = DIRECTION ( 'NONE',  ( -1.000000000000000000, 0.000000000000000000, -0.000000000000000000 ) ) ;
#593 = ORIENTED_EDGE ( 'NONE', *, *, #70, .T. ) ;
#594 = CARTESIAN_POINT ( 'NONE',  ( -0.6499999999999995781, -0.8499999999999999778, 9.838710202321310719E-19 ) ) ;
#595 = EDGE_CURVE ( 'NONE', #609, #871, #680, .T. ) ;
#596 = DIRECTION ( 'NONE',  ( 0.000000000000000000, 0.000000000000000000, 1.000000000000000000 ) ) ;
#597 = FACE_OUTER_BOUND ( 'NONE', #1045, .T. ) ;
#598 = EDGE_CURVE ( 'NONE', #656, #775, #1011, .T. ) ;
#599 = ORIENTED_EDGE ( 'NONE', *, *, #740, .T. ) ;
#600 = CARTESIAN_POINT ( 'NONE',  ( 1.149999999999999911, -0.8499999999999999778, 0.09999999999999954758 ) ) ;
#601 = CYLINDRICAL_SURFACE ( 'NONE', #150, 0.04999999999999991257 ) ;
#602 = ORIENTED_EDGE ( 'NONE', *, *, #335, .F. ) ;
#603 = EDGE_CURVE ( 'NONE', #234, #1174, #1090, .T. ) ;
#604 = CIRCLE ( 'NONE', #886, 0.09999999999999990841 ) ;
#605 =( GEOMETRIC_REPRESENTATION_CONTEXT ( 3 ) GLOBAL_UNCERTAINTY_ASSIGNED_CONTEXT ( ( #1200 ) ) GLOBAL_UNIT_ASSIGNED_CONTEXT ( ( #1276, #374, #357 ) ) REPRESENTATION_CONTEXT ( 'NONE', 'WORKASPACE' ) );
#606 = CIRCLE ( 'NONE', #1117, 0.04999999999999991257 ) ;
#607 = DIRECTION ( 'NONE',  ( 0.000000000000000000, 1.000000000000000000, 0.000000000000000000 ) ) ;
#608 = DIRECTION ( 'NONE',  ( -1.000000000000000000, 0.000000000000000000, 1.335575295202237667E-16 ) ) ;
#609 = VERTEX_POINT ( 'NONE', #184 ) ;
#610 = ADVANCED_FACE ( 'NONE', ( #1295 ), #490, .T. ) ;
#611 = CARTESIAN_POINT ( 'NONE',  ( 1.149999999999999911, -0.8499999999999999778, 1.199999999999999956 ) ) ;
#612 = DIRECTION ( 'NONE',  ( 0.000000000000000000, 1.000000000000000000, 0.000000000000000000 ) ) ;
#613 = ORIENTED_EDGE ( 'NONE', *, *, #622, .T. ) ;
#614 = CARTESIAN_POINT ( 'NONE',  ( 0.000000000000000000, 0.9499999999999999556, 1.149999999999999911 ) ) ;
#615 = CARTESIAN_POINT ( 'NONE',  ( 1.100000000000000089, 0.9499999999999999556, 1.149999999999999911 ) ) ;
#616 = DIRECTION ( 'NONE',  ( 1.113718303092468747E-16, -0.000000000000000000, 1.000000000000000000 ) ) ;
#617 = ORIENTED_EDGE ( 'NONE', *, *, #893, .T. ) ;
#618 = LINE ( 'NONE', #207, #493 ) ;
#619 = ORIENTED_EDGE ( 'NONE', *, *, #288, .T. ) ;
#620 = CARTESIAN_POINT ( 'NONE',  ( 1.149999999999999911, 0.8499999999999999778, 0.09999999999999954758 ) ) ;
#621 = VECTOR ( 'NONE', #315, 1000.000000000000000 ) ;
#622 = EDGE_CURVE ( 'NONE', #466, #830, #1100, .T. ) ;
#623 = DIRECTION ( 'NONE',  ( 0.000000000000000000, 0.000000000000000000, 1.000000000000000000 ) ) ;
#624 = CARTESIAN_POINT ( 'NONE',  ( 0.6499999999999995781, 0.8499999999999999778, -1.582202128689236671E-16 ) ) ;
#625 = ORIENTED_EDGE ( 'NONE', *, *, #694, .T. ) ;
#626 = VERTEX_POINT ( 'NONE', #795 ) ;
#627 = CARTESIAN_POINT ( 'NONE',  ( -1.150000000000000133, 0.8499999999999999778, 1.000000000000000000 ) ) ;
#628 = DIRECTION ( 'NONE',  ( 1.000000000000000000, 0.000000000000000000, -0.000000000000000000 ) ) ;
#629 = PLANE ( 'NONE',  #1333 ) ;
#630 = VERTEX_POINT ( 'NONE', #594 ) ;
#631 = ORIENTED_EDGE ( 'NONE', *, *, #360, .F. ) ;
#632 =( NAMED_UNIT ( * ) PLANE_ANGLE_UNIT ( ) SI_UNIT ( $, .RADIAN. ) );
#633 = CARTESIAN_POINT ( 'NONE',  ( -0.6499999999999995781, 0.8499999999999999778, 9.838710202321310719E-19 ) ) ;
#634 = DIRECTION ( 'NONE',  ( -1.084202172485504434E-15, -0.000000000000000000, 1.000000000000000000 ) ) ;
#635 = ORIENTED_EDGE ( 'NONE', *, *, #884, .T. ) ;
#636 = CARTESIAN_POINT ( 'NONE',  ( 1.100000000000000089, -0.9499999999999999556, 1.199999999999999956 ) ) ;
#637 = ORIENTED_EDGE ( 'NONE', *, *, #61, .F. ) ;
#638 = ADVANCED_FACE ( 'NONE', ( #1095 ), #277, .F. ) ;
#639 = DIRECTION ( 'NONE',  ( 1.000000000000000000, 0.000000000000000000, 0.000000000000000000 ) ) ;
#640 = LINE ( 'NONE', #406, #1309 ) ;
#641 = VECTOR ( 'NONE', #1193, 1000.000000000000000 ) ;
#642 = VECTOR ( 'NONE', #1050, 1000.000000000000000 ) ;
#643 = VERTEX_POINT ( 'NONE', #386 ) ;
#644 = CARTESIAN_POINT ( 'NONE',  ( 1.149999999999999911, -1.000000000000000000, 0.000000000000000000 ) ) ;
#645 = ORIENTED_EDGE ( 'NONE', *, *, #1062, .F. ) ;
#646 = ADVANCED_FACE ( 'NONE', ( #993 ), #574, .F. ) ;
#647 = DIRECTION ( 'NONE',  ( 1.000000000000000000, 0.000000000000000000, -7.228014483236696555E-16 ) ) ;
#648 = EDGE_CURVE ( 'NONE', #306, #830, #579, .T. ) ;
#649 = CARTESIAN_POINT ( 'NONE',  ( 1.150000000000000577, 0.8499999999999999778, 0.8999999999999998002 ) ) ;
#650 = ORIENTED_EDGE ( 'NONE', *, *, #515, .T. ) ;
#651 = DIRECTION ( 'NONE',  ( 0.000000000000000000, 2.168404344971012812E-15, 1.000000000000000000 ) ) ;
#652 = ORIENTED_EDGE ( 'NONE', *, *, #1272, .F. ) ;
#653 = DIRECTION ( 'NONE',  ( 0.000000000000000000, 1.000000000000000000, 0.000000000000000000 ) ) ;
#654 = EDGE_CURVE ( 'NONE', #643, #921, #78, .T. ) ;
#655 = FACE_OUTER_BOUND ( 'NONE', #737, .T. ) ;
#656 = VERTEX_POINT ( 'NONE', #367 ) ;
#657 = DIRECTION ( 'NONE',  ( 0.000000000000000000, 0.000000000000000000, -1.000000000000000000 ) ) ;
#658 = ORIENTED_EDGE ( 'NONE', *, *, #688, .F. ) ;
#659 = DIRECTION ( 'NONE',  ( -0.000000000000000000, -1.000000000000000000, -0.000000000000000000 ) ) ;
#660 = LINE ( 'NONE', #138, #802 ) ;
#661 = EDGE_CURVE ( 'NONE', #743, #423, #376, .T. ) ;
#662 = VECTOR ( 'NONE', #509, 1000.000000000000000 ) ;
#663 = ORIENTED_EDGE ( 'NONE', *, *, #504, .T. ) ;
#664 = VECTOR ( 'NONE', #209, 1000.000000000000000 ) ;
#665 = AXIS2_PLACEMENT_3D ( 'NONE', #829, #205, #313 ) ;
#666 = VERTEX_POINT ( 'NONE', #1285 ) ;
#667 = VECTOR ( 'NONE', #2, 1000.000000000000000 ) ;
#668 = STYLED_ITEM ( 'NONE', ( #827 ), #228 ) ;
#669 = STYLED_ITEM ( 'NONE', ( #495 ), #3 ) ;
#670 = DIRECTION ( 'NONE',  ( 0.000000000000000000, 0.000000000000000000, 1.000000000000000000 ) ) ;
#671 = DIRECTION ( 'NONE',  ( -0.000000000000000000, -1.000000000000000000, -0.000000000000000000 ) ) ;
#672 = VERTEX_POINT ( 'NONE', #281 ) ;
#673 = FACE_OUTER_BOUND ( 'NONE', #764, .T. ) ;
#674 = ORIENTED_EDGE ( 'NONE', *, *, #67, .T. ) ;
#675 = DIRECTION ( 'NONE',  ( 1.000000000000000000, -0.000000000000000000, -0.000000000000000000 ) ) ;
#676 = DIRECTION ( 'NONE',  ( -0.000000000000000000, 1.000000000000000000, -0.000000000000000000 ) ) ;
#677 = CARTESIAN_POINT ( 'NONE',  ( -0.6499999999999994671, 0.8499999999999999778, 0.1000000000000000056 ) ) ;
#678 = EDGE_LOOP ( 'NONE', ( #464, #913, #1094, #488 ) ) ;
#679 = EDGE_CURVE ( 'NONE', #896, #871, #393, .T. ) ;
#680 = LINE ( 'NONE', #381, #173 ) ;
#681 = DIRECTION ( 'NONE',  ( 2.409338161078898194E-16, 0.000000000000000000, -1.000000000000000000 ) ) ;
#682 =( BOUNDED_CURVE ( )  B_SPLINE_CURVE ( 3, ( #462, #337, #1179, #1251 ),
 .UNSPECIFIED., .F., .F. ) 
 B_SPLINE_CURVE_WITH_KNOTS ( ( 4, 4 ),
 ( -1.776356839400250465E-15, 1.570796326794896558 ),
 .UNSPECIFIED. ) 
 CURVE ( )  GEOMETRIC_REPRESENTATION_ITEM ( )  RATIONAL_B_SPLINE_CURVE ( ( 1.000000000000000000, 0.8047378541243646044, 0.8047378541243646044, 1.000000000000000000 ) ) 
 REPRESENTATION_ITEM ( '' )  );
#683 = EDGE_LOOP ( 'NONE', ( #76, #443, #32, #445 ) ) ;
#684 = CIRCLE ( 'NONE', #1178, 0.04999999999999991257 ) ;
#685 = VECTOR ( 'NONE', #1006, 1000.000000000000000 ) ;
#686 = DIRECTION ( 'NONE',  ( 1.000000000000000000, -0.000000000000000000, -5.963111948670267485E-16 ) ) ;
#687 = ADVANCED_FACE ( 'NONE', ( #468 ), #788, .T. ) ;
#688 = EDGE_CURVE ( 'NONE', #110, #257, #782, .T. ) ;
#689 = CARTESIAN_POINT ( 'NONE',  ( 1.149999999999999911, -0.9499999999999999556, 1.199999999999999956 ) ) ;
#690 = DIRECTION ( 'NONE',  ( -0.000000000000000000, 1.000000000000000000, -0.000000000000000000 ) ) ;
#691 = EDGE_LOOP ( 'NONE', ( #27, #1315, #890, #206 ) ) ;
#692 = DIRECTION ( 'NONE',  ( -1.000000000000000000, 0.000000000000000000, 0.000000000000000000 ) ) ;
#693 = PLANE ( 'NONE',  #1313 ) ;
#694 = EDGE_CURVE ( 'NONE', #1187, #314, #1188, .T. ) ;
#695 = CARTESIAN_POINT ( 'NONE',  ( -1.149999999999999911, 1.000000000000000000, 1.199999999999999956 ) ) ;
#696 = CARTESIAN_POINT ( 'NONE',  ( 1.100000000000000311, -1.000000000000000000, 1.199999999999999956 ) ) ;
#697 = ORIENTED_EDGE ( 'NONE', *, *, #1129, .T. ) ;
#698 = CARTESIAN_POINT ( 'NONE',  ( 1.149999999999999911, -0.8499999999999999778, 0.09999999999999954758 ) ) ;
#699 =( LENGTH_UNIT ( ) NAMED_UNIT ( * ) SI_UNIT ( .MILLI., .METRE. ) );
#700 = DIRECTION ( 'NONE',  ( 0.000000000000000000, 1.000000000000000000, 0.000000000000000000 ) ) ;
#701 = EDGE_CURVE ( 'NONE', #1072, #356, #484, .T. ) ;
#702 = ORIENTED_EDGE ( 'NONE', *, *, #901, .F. ) ;
#703 = VECTOR ( 'NONE', #244, 1000.000000000000000 ) ;
#704 = APPLICATION_CONTEXT ( 'automotive_design' ) ;
#705 = MECHANICAL_DESIGN_GEOMETRIC_PRESENTATION_REPRESENTATION (  '', ( #1056 ), #605 ) ;
#706 = FACE_OUTER_BOUND ( 'NONE', #286, .T. ) ;
#707 = COLOUR_RGB ( '',0.7921568627450980005, 0.8196078431372548767, 0.9333333333333333481 ) ;
#708 = AXIS2_PLACEMENT_3D ( 'NONE', #1104, #607, #596 ) ;
#709 = SPHERICAL_SURFACE ( 'NONE', #172, 0.05000000000000000278 ) ;
#710 = DIRECTION ( 'NONE',  ( 1.000000000000000000, -0.000000000000000000, 0.000000000000000000 ) ) ;
#711 = VERTEX_POINT ( 'NONE', #808 ) ;
#712 = EDGE_CURVE ( 'NONE', #830, #945, #262, .T. ) ;
#713 = DIRECTION ( 'NONE',  ( -1.000000000000000000, 0.000000000000000000, 0.000000000000000000 ) ) ;
#714 = DIRECTION ( 'NONE',  ( -0.000000000000000000, -1.000000000000000000, -0.000000000000000000 ) ) ;
#715 = PLANE ( 'NONE',  #665 ) ;
#716 = ORIENTED_EDGE ( 'NONE', *, *, #187, .T. ) ;
#717 = CARTESIAN_POINT ( 'NONE',  ( -1.149999999999999911, 0.8499999999999999778, 0.09999999999999982514 ) ) ;
#718 = ORIENTED_EDGE ( 'NONE', *, *, #482, .T. ) ;
#719 = ADVANCED_FACE ( 'NONE', ( #932 ), #232, .T. ) ;
#720 = PRESENTATION_STYLE_ASSIGNMENT (( #311 ) ) ;
#721 = DIRECTION ( 'NONE',  ( -1.084202172485504434E-15, 0.000000000000000000, -1.000000000000000000 ) ) ;
#722 = LINE ( 'NONE', #944, #297 ) ;
#723 = ORIENTED_EDGE ( 'NONE', *, *, #109, .T. ) ;
#724 = DIRECTION ( 'NONE',  ( -0.000000000000000000, -1.000000000000000000, -0.000000000000000000 ) ) ;
#725 = ORIENTED_EDGE ( 'NONE', *, *, #498, .F. ) ;
#726 = CARTESIAN_POINT ( 'NONE',  ( 1.100000000000000089, -1.000000000000000000, 0.04999999999999991257 ) ) ;
#727 = EDGE_CURVE ( 'NONE', #188, #954, #191, .T. ) ;
#728 = DIRECTION ( 'NONE',  ( 0.000000000000000000, 0.000000000000000000, 1.000000000000000000 ) ) ;
#729 = VECTOR ( 'NONE', #634, 1000.000000000000000 ) ;
#730 = AXIS2_PLACEMENT_3D ( 'NONE', #892, #66, #479 ) ;
#731 =( GEOMETRIC_REPRESENTATION_CONTEXT ( 3 ) GLOBAL_UNCERTAINTY_ASSIGNED_CONTEXT ( ( #1096 ) ) GLOBAL_UNIT_ASSIGNED_CONTEXT ( ( #1119, #1043, #112 ) ) REPRESENTATION_CONTEXT ( 'NONE', 'WORKASPACE' ) );
#732 = CARTESIAN_POINT ( 'NONE',  ( 1.100000000000000089, -0.9499999999999999556, 1.199999999999999956 ) ) ;
#733 = EDGE_CURVE ( 'NONE', #871, #1262, #618, .T. ) ;
#734 = CARTESIAN_POINT ( 'NONE',  ( 1.100000000000000311, 1.000000000000000000, 1.199999999999999956 ) ) ;
#735 = ORIENTED_EDGE ( 'NONE', *, *, #454, .T. ) ;
#736 = PLANE ( 'NONE',  #152 ) ;
#737 = EDGE_LOOP ( 'NONE', ( #1259, #813, #1132, #663 ) ) ;
#738 = DIRECTION ( 'NONE',  ( -0.000000000000000000, 0.000000000000000000, 1.000000000000000000 ) ) ;
#739 = SPHERICAL_SURFACE ( 'NONE', #429, 0.05000000000000000278 ) ;
#740 = EDGE_CURVE ( 'NONE', #466, #38, #524, .T. ) ;
#741 = ORIENTED_EDGE ( 'NONE', *, *, #1183, .F. ) ;
#742 = CARTESIAN_POINT ( 'NONE',  ( -1.149999999999999911, 0.8499999999999999778, 0.09999999999999982514 ) ) ;
#743 = VERTEX_POINT ( 'NONE', #517 ) ;
#744 = LINE ( 'NONE', #851, #452 ) ;
#745 = CARTESIAN_POINT ( 'NONE',  ( -1.149999999999999911, 0.8500000000000000888, 0.000000000000000000 ) ) ;
#746 = DIRECTION ( 'NONE',  ( 0.000000000000000000, 1.000000000000000000, 0.000000000000000000 ) ) ;
#747 = ORIENTED_EDGE ( 'NONE', *, *, #648, .T. ) ;
#748 = DIRECTION ( 'NONE',  ( -3.523657060577884973E-16, 0.000000000000000000, 1.000000000000000000 ) ) ;
#749 = EDGE_CURVE ( 'NONE', #1164, #833, #541, .T. ) ;
#750 = ORIENTED_EDGE ( 'NONE', *, *, #67, .F. ) ;
#751 = CARTESIAN_POINT ( 'NONE',  ( -1.149999999999999911, 0.8499999999999999778, 6.776263578034407643E-17 ) ) ;
#752 = VECTOR ( 'NONE', #1237, 1000.000000000000000 ) ;
#753 = DIRECTION ( 'NONE',  ( 0.000000000000000000, 0.000000000000000000, 1.000000000000000000 ) ) ;
#754 = AXIS2_PLACEMENT_3D ( 'NONE', #119, #568, #352 ) ;
#755 = AXIS2_PLACEMENT_3D ( 'NONE', #1202, #904, #194 ) ;
#756 = ORIENTED_EDGE ( 'NONE', *, *, #469, .T. ) ;
#757 = DIRECTION ( 'NONE',  ( 1.000000000000000000, 0.000000000000000000, -1.084202172485504434E-15 ) ) ;
#758 =( GEOMETRIC_REPRESENTATION_CONTEXT ( 3 ) GLOBAL_UNCERTAINTY_ASSIGNED_CONTEXT ( ( #371 ) ) GLOBAL_UNIT_ASSIGNED_CONTEXT ( ( #7, #527, #835 ) ) REPRESENTATION_CONTEXT ( 'NONE', 'WORKASPACE' ) );
#759 = VERTEX_POINT ( 'NONE', #831 ) ;
#760 = ADVANCED_FACE ( 'NONE', ( #849 ), #736, .F. ) ;
#761 = CARTESIAN_POINT ( 'NONE',  ( -1.100000000000000089, 0.9499999999999999556, 1.149999999999999911 ) ) ;
#762 = CARTESIAN_POINT ( 'NONE',  ( -1.249999999999999778, 0.8499999999999999778, 0.9000000000000002442 ) ) ;
#763 = DIRECTION ( 'NONE',  ( -0.000000000000000000, -1.000000000000000000, -0.000000000000000000 ) ) ;
#764 = EDGE_LOOP ( 'NONE', ( #339, #1126, #1254, #1320 ) ) ;
#765 = DIRECTION ( 'NONE',  ( -0.000000000000000000, 1.000000000000000000, -0.000000000000000000 ) ) ;
#766 = EDGE_LOOP ( 'NONE', ( #617, #631, #1227, #933 ) ) ;
#767 = CARTESIAN_POINT ( 'NONE',  ( 0.6499999999999994671, 0.8499999999999999778, 0.09999999999999983902 ) ) ;
#768 = DIRECTION ( 'NONE',  ( -1.000000000000000000, 0.000000000000000000, -0.000000000000000000 ) ) ;
#769 = DIRECTION ( 'NONE',  ( 0.000000000000000000, 1.000000000000000000, 0.000000000000000000 ) ) ;
#770 = ORIENTED_EDGE ( 'NONE', *, *, #145, .F. ) ;
#771 = CARTESIAN_POINT ( 'NONE',  ( -0.6499999999999994671, -0.8499999999999999778, 0.1000000000000000056 ) ) ;
#772 = ORIENTED_EDGE ( 'NONE', *, *, #598, .T. ) ;
#773 = LINE ( 'NONE', #331, #511 ) ;
#774 = SPHERICAL_SURFACE ( 'NONE', #1135, 0.05000000000000000278 ) ;
#775 = VERTEX_POINT ( 'NONE', #1233 ) ;
#776 = DIRECTION ( 'NONE',  ( 0.000000000000000000, 1.000000000000000000, 0.000000000000000000 ) ) ;
#777 = AXIS2_PLACEMENT_3D ( 'NONE', #588, #1103, #53 ) ;
#778 = VECTOR ( 'NONE', #1302, 1000.000000000000000 ) ;
#779 = ORIENTED_EDGE ( 'NONE', *, *, #137, .T. ) ;
#780 = CLOSED_SHELL ( 'NONE', ( #958, #1322, #87, #638, #1253, #310, #344, #1207, #1298, #646, #1069, #760, #832, #809, #353, #1235, #275, #719, #1029, #843, #489, #1115, #1002, #417, #573, #223, #1290, #687 ) ) ;
#781 = CIRCLE ( 'NONE', #369, 0.09999999999999939493 ) ;
#782 = LINE ( 'NONE', #987, #641 ) ;
#783 = DIRECTION ( 'NONE',  ( 1.000000000000000000, 0.000000000000000000, 0.000000000000000000 ) ) ;
#784 = ORIENTED_EDGE ( 'NONE', *, *, #233, .T. ) ;
#785 = CARTESIAN_POINT ( 'NONE',  ( 1.149999999999999911, -0.9499999999999999556, 0.000000000000000000 ) ) ;
#786 = EDGE_CURVE ( 'NONE', #962, #630, #1031, .T. ) ;
#787 = ORIENTED_EDGE ( 'NONE', *, *, #1040, .T. ) ;
#788 = CYLINDRICAL_SURFACE ( 'NONE', #777, 0.04999999999999991257 ) ;
#789 = CARTESIAN_POINT ( 'NONE',  ( -1.100000000000000089, -0.9499999999999999556, 1.149999999999999911 ) ) ;
#790 = DIRECTION ( 'NONE',  ( 0.000000000000000000, 0.000000000000000000, 1.000000000000000000 ) ) ;
#791 = CYLINDRICAL_SURFACE ( 'NONE', #127, 0.04999999999999991257 ) ;
#792 = ORIENTED_EDGE ( 'NONE', *, *, #175, .T. ) ;
#793 = EDGE_CURVE ( 'NONE', #561, #294, #1142, .T. ) ;
#794 = EDGE_CURVE ( 'NONE', #954, #672, #549, .T. ) ;
#795 = CARTESIAN_POINT ( 'NONE',  ( 1.149999999999999911, -0.9499999999999999556, 1.149999999999999911 ) ) ;
#796 = DIRECTION ( 'NONE',  ( 0.000000000000000000, 0.000000000000000000, -1.000000000000000000 ) ) ;
#797 = CARTESIAN_POINT ( 'NONE',  ( -0.6499999999999994671, -0.8499999999999999778, 0.1000000000000000056 ) ) ;
#798 = ORIENTED_EDGE ( 'NONE', *, *, #603, .F. ) ;
#799 = AXIS2_PLACEMENT_3D ( 'NONE', #1145, #738, #413 ) ;
#800 = AXIS2_PLACEMENT_3D ( 'NONE', #396, #817, #1105 ) ;
#801 = VECTOR ( 'NONE', #1248, 1000.000000000000000 ) ;
#802 = VECTOR ( 'NONE', #1078, 1000.000000000000000 ) ;
#803 = CARTESIAN_POINT ( 'NONE',  ( -1.149999999999999911, 0.8499999999999999778, 0.09999999999999982514 ) ) ;
#804 = EDGE_CURVE ( 'NONE', #134, #1051, #560, .T. ) ;
#805 = CARTESIAN_POINT ( 'NONE',  ( -1.149999999999999911, -1.000000000000000000, 1.149999999999999911 ) ) ;
#806 = FACE_OUTER_BOUND ( 'NONE', #766, .T. ) ;
#807 = EDGE_LOOP ( 'NONE', ( #375, #1020, #784, #747 ) ) ;
#808 = CARTESIAN_POINT ( 'NONE',  ( -1.100000000000000089, -1.000000000000000000, 0.04999999999999991257 ) ) ;
#809 = ADVANCED_FACE ( 'NONE', ( #116 ), #431, .F. ) ;
#810 = CARTESIAN_POINT ( 'NONE',  ( -0.6499999999999995781, -0.8499999999999999778, 9.838710202321310719E-19 ) ) ;
#811 = LINE ( 'NONE', #292, #536 ) ;
#812 = LINE ( 'NONE', #1214, #778 ) ;
#813 = ORIENTED_EDGE ( 'NONE', *, *, #301, .F. ) ;
#814 = LINE ( 'NONE', #620, #473 ) ;
#815 = PRODUCT ( 'SRP2512TMA-2R2M', 'SRP2512TMA-2R2M', '', ( #926 ) ) ;
#816 = DIRECTION ( 'NONE',  ( 1.000000000000000000, 0.000000000000000000, -1.335575295202237667E-16 ) ) ;
#817 = DIRECTION ( 'NONE',  ( 1.000000000000000000, 0.000000000000000000, -2.710505431213760099E-16 ) ) ;
#818 = EDGE_LOOP ( 'NONE', ( #1114, #71, #57, #50, #572, #472, #325 ) ) ;
#819 = AXIS2_PLACEMENT_3D ( 'NONE', #56, #51, #349 ) ;
#820 = CYLINDRICAL_SURFACE ( 'NONE', #80, 0.04999999999999991257 ) ;
#821 = CARTESIAN_POINT ( 'NONE',  ( -0.6499999999999994671, 0.8499999999999999778, 0.1000000000000000056 ) ) ;
#822 = FACE_OUTER_BOUND ( 'NONE', #917, .T. ) ;
#823 = ORIENTED_EDGE ( 'NONE', *, *, #1071, .F. ) ;
#824 = EDGE_CURVE ( 'NONE', #107, #672, #422, .T. ) ;
#825 = VERTEX_POINT ( 'NONE', #334 ) ;
#826 = DIRECTION ( 'NONE',  ( -1.084202172485504434E-15, 0.000000000000000000, 1.000000000000000000 ) ) ;
#827 = PRESENTATION_STYLE_ASSIGNMENT (( #303 ) ) ;
#828 = DIRECTION ( 'NONE',  ( 0.000000000000000000, 0.000000000000000000, 1.000000000000000000 ) ) ;
#829 = CARTESIAN_POINT ( 'NONE',  ( 1.150000000000000577, 0.8499999999999999778, 0.8999999999999998002 ) ) ;
#830 = VERTEX_POINT ( 'NONE', #1154 ) ;
#831 = CARTESIAN_POINT ( 'NONE',  ( 1.249999999999999778, -0.8499999999999999778, 0.09999999999999953371 ) ) ;
#832 = ADVANCED_FACE ( 'NONE', ( #1212 ), #968, .F. ) ;
#833 = VERTEX_POINT ( 'NONE', #975 ) ;
#834 = SURFACE_SIDE_STYLE ('',( #398 ) ) ;
#835 =( NAMED_UNIT ( * ) SI_UNIT ( $, .STERADIAN. ) SOLID_ANGLE_UNIT ( ) );
#836 = CARTESIAN_POINT ( 'NONE',  ( 1.100000000000000089, -0.9499999999999999556, 1.149999999999999911 ) ) ;
#837 = LINE ( 'NONE', #734, #642 ) ;
#838 = EDGE_LOOP ( 'NONE', ( #224, #1234, #402, #882 ) ) ;
#839 = CARTESIAN_POINT ( 'NONE',  ( 1.149999999999999911, 0.8499999999999999778, -2.139061280235471538E-16 ) ) ;
#840 = ORIENTED_EDGE ( 'NONE', *, *, #1027, .F. ) ;
#841 = LINE ( 'NONE', #1128, #664 ) ;
#842 = AXIS2_PLACEMENT_3D ( 'NONE', #771, #757, #268 ) ;
#843 = ADVANCED_FACE ( 'NONE', ( #673 ), #273, .T. ) ;
#844 = CIRCLE ( 'NONE', #755, 0.09999999999999978351 ) ;
#845 = VECTOR ( 'NONE', #1148, 1000.000000000000000 ) ;
#846 = CARTESIAN_POINT ( 'NONE',  ( -1.149999999999999911, 0.9499999999999998446, 0.000000000000000000 ) ) ;
#847 = LINE ( 'NONE', #94, #322 ) ;
#848 = ORIENTED_EDGE ( 'NONE', *, *, #1317, .F. ) ;
#849 = FACE_OUTER_BOUND ( 'NONE', #146, .T. ) ;
#850 = VERTEX_POINT ( 'NONE', #785 ) ;
#851 = CARTESIAN_POINT ( 'NONE',  ( -0.6499999999999994671, 0.8499999999999999778, 0.1000000000000000056 ) ) ;
#852 = SURFACE_STYLE_FILL_AREA ( #1335 ) ;
#853 = ADVANCED_FACE ( 'NONE', ( #45 ), #1283, .F. ) ;
#854 = DIRECTION ( 'NONE',  ( -0.000000000000000000, -1.000000000000000000, -0.000000000000000000 ) ) ;
#855 = CARTESIAN_POINT ( 'NONE',  ( 1.149999999999999911, 0.8499999999999999778, -2.139061280235471538E-16 ) ) ;
#856 = EDGE_LOOP ( 'NONE', ( #931, #104, #254, #599 ) ) ;
#857 = CARTESIAN_POINT ( 'NONE',  ( -1.149999999999999911, 0.9792893218813450984, -8.490207036553142683E-17 ) ) ;
#858 = ORIENTED_EDGE ( 'NONE', *, *, #1129, .F. ) ;
#859 = DIRECTION ( 'NONE',  ( -7.228014483236696555E-16, 0.000000000000000000, -1.000000000000000000 ) ) ;
#860 = CARTESIAN_POINT ( 'NONE',  ( 1.149999999999999911, -1.000000000000000000, 1.149999999999999911 ) ) ;
#861 = ORIENTED_EDGE ( 'NONE', *, *, #1156, .T. ) ;
#862 = CARTESIAN_POINT ( 'NONE',  ( 1.249999999999999778, 0.8499999999999999778, 0.09999999999999953371 ) ) ;
#863 = EDGE_LOOP ( 'NONE', ( #593, #10, #300, #384 ) ) ;
#864 = CARTESIAN_POINT ( 'NONE',  ( 1.249999999999999778, 0.8499999999999999778, 0.09999999999999953371 ) ) ;
#865 = LINE ( 'NONE', #988, #703 ) ;
#866 = DIRECTION ( 'NONE',  ( -1.084202172485504434E-15, 0.000000000000000000, -1.000000000000000000 ) ) ;
#867 = AXIS2_PLACEMENT_3D ( 'NONE', #636, #437, #108 ) ;
#868 = AXIS2_PLACEMENT_3D ( 'NONE', #487, #916, #1325 ) ;
#869 = ORIENTED_EDGE ( 'NONE', *, *, #77, .T. ) ;
#870 = DIRECTION ( 'NONE',  ( 2.710505431213760099E-16, 0.000000000000000000, 1.000000000000000000 ) ) ;
#871 = VERTEX_POINT ( 'NONE', #677 ) ;
#872 = EDGE_CURVE ( 'NONE', #566, #830, #539, .T. ) ;
#873 = PLANE ( 'NONE',  #453 ) ;
#874 = ORIENTED_EDGE ( 'NONE', *, *, #598, .F. ) ;
#875 = DIRECTION ( 'NONE',  ( 0.000000000000000000, 1.000000000000000000, -2.168404344971012418E-15 ) ) ;
#876 = ORIENTED_EDGE ( 'NONE', *, *, #137, .F. ) ;
#877 = DIRECTION ( 'NONE',  ( 0.000000000000000000, 1.000000000000000000, 0.000000000000000000 ) ) ;
#878 = DIRECTION ( 'NONE',  ( 0.000000000000000000, 0.000000000000000000, -1.000000000000000000 ) ) ;
#879 = LINE ( 'NONE', #133, #909 ) ;
#880 = VERTEX_POINT ( 'NONE', #991 ) ;
#881 = MANIFOLD_SOLID_BREP ( 'Boss-Extrude2[2]', #390 ) ;
#882 = ORIENTED_EDGE ( 'NONE', *, *, #301, .T. ) ;
#883 = CARTESIAN_POINT ( 'NONE',  ( -1.100000000000000089, 0.000000000000000000, 1.199999999999999956 ) ) ;
#884 = EDGE_CURVE ( 'NONE', #711, #411, #1082, .T. ) ;
#885 = PLANE ( 'NONE',  #512 ) ;
#886 = AXIS2_PLACEMENT_3D ( 'NONE', #1327, #92, #403 ) ;
#887 = ORIENTED_EDGE ( 'NONE', *, *, #966, .T. ) ;
#888 = AXIS2_PLACEMENT_3D ( 'NONE', #167, #170, #1199 ) ;
#889 = VECTOR ( 'NONE', #710, 1000.000000000000000 ) ;
#890 = ORIENTED_EDGE ( 'NONE', *, *, #694, .F. ) ;
#891 = MECHANICAL_DESIGN_GEOMETRIC_PRESENTATION_REPRESENTATION (  '', ( #668 ), #731 ) ;
#892 = CARTESIAN_POINT ( 'NONE',  ( -1.149999999999999911, -1.000000000000000000, 1.199999999999999956 ) ) ;
#893 = EDGE_CURVE ( 'NONE', #423, #188, #363, .T. ) ;
#894 = LINE ( 'NONE', #898, #563 ) ;
#895 = FACE_OUTER_BOUND ( 'NONE', #471, .T. ) ;
#896 = VERTEX_POINT ( 'NONE', #1270 ) ;
#897 = CARTESIAN_POINT ( 'NONE',  ( 1.250000000000000000, 0.8499999999999999778, 0.8999999999999998002 ) ) ;
#898 = CARTESIAN_POINT ( 'NONE',  ( 0.6499999999999994671, -0.8499999999999999778, 0.09999999999999983902 ) ) ;
#899 = DIRECTION ( 'NONE',  ( -0.000000000000000000, -0.000000000000000000, 1.000000000000000000 ) ) ;
#900 = EDGE_LOOP ( 'NONE', ( #252, #397, #5, #350, #415, #658, #159, #478, #770, #227, #330, #787 ) ) ;
#901 = EDGE_CURVE ( 'NONE', #945, #416, #62, .T. ) ;
#902 = DIRECTION ( 'NONE',  ( -0.000000000000000000, 1.000000000000000000, -0.000000000000000000 ) ) ;
#903 = DIRECTION ( 'NONE',  ( 1.000000000000000000, 0.000000000000000000, 3.523657060577885466E-16 ) ) ;
#904 = DIRECTION ( 'NONE',  ( 0.000000000000000000, 1.000000000000000000, 0.000000000000000000 ) ) ;
#905 = ORIENTED_EDGE ( 'NONE', *, *, #372, .T. ) ;
#906 = VECTOR ( 'NONE', #1336, 1000.000000000000000 ) ;
#907 = VECTOR ( 'NONE', #177, 1000.000000000000000 ) ;
#908 = VECTOR ( 'NONE', #1085, 1000.000000000000000 ) ;
#909 = VECTOR ( 'NONE', #866, 1000.000000000000000 ) ;
#910 = DIRECTION ( 'NONE',  ( -2.710505431213760099E-16, 0.000000000000000000, -1.000000000000000000 ) ) ;
#911 = DIRECTION ( 'NONE',  ( 0.000000000000000000, 0.000000000000000000, 1.000000000000000000 ) ) ;
#912 = PLANE ( 'NONE',  #800 ) ;
#913 = ORIENTED_EDGE ( 'NONE', *, *, #595, .F. ) ;
#914 = DIRECTION ( 'NONE',  ( 1.000000000000000000, -0.000000000000000000, -0.000000000000000000 ) ) ;
#915 = CARTESIAN_POINT ( 'NONE',  ( -1.149999999999999911, -0.8499999999999999778, 1.199999999999999956 ) ) ;
#916 = DIRECTION ( 'NONE',  ( 0.000000000000000000, 1.000000000000000000, 0.000000000000000000 ) ) ;
#917 = EDGE_LOOP ( 'NONE', ( #937, #1067, #874, #735 ) ) ;
#918 = DIRECTION ( 'NONE',  ( -0.000000000000000000, -1.000000000000000000, -0.000000000000000000 ) ) ;
#919 = EDGE_CURVE ( 'NONE', #55, #880, #1087, .T. ) ;
#920 = DIRECTION ( 'NONE',  ( -0.000000000000000000, -1.000000000000000000, -0.000000000000000000 ) ) ;
#921 = VERTEX_POINT ( 'NONE', #862 ) ;
#922 = AXIS2_PLACEMENT_3D ( 'NONE', #1063, #265, #132 ) ;
#923 = AXIS2_PLACEMENT_3D ( 'NONE', #1307, #675, #670 ) ;
#924 = AXIS2_PLACEMENT_3D ( 'NONE', #347, #769, #1058 ) ;
#925 = FILL_AREA_STYLE ('',( #1244 ) ) ;
#926 = PRODUCT_CONTEXT ( 'NONE', #704, 'mechanical' ) ;
#927 = CIRCLE ( 'NONE', #589, 0.04999999999999991257 ) ;
#928 = CARTESIAN_POINT ( 'NONE',  ( 1.149999999999999911, 0.8499999999999999778, 0.09999999999999954758 ) ) ;
#929 = FACE_OUTER_BOUND ( 'NONE', #1176, .T. ) ;
#930 = EDGE_CURVE ( 'NONE', #880, #566, #157, .T. ) ;
#931 = ORIENTED_EDGE ( 'NONE', *, *, #1198, .T. ) ;
#932 = FACE_OUTER_BOUND ( 'NONE', #1127, .T. ) ;
#933 = ORIENTED_EDGE ( 'NONE', *, *, #661, .T. ) ;
#934 = CARTESIAN_POINT ( 'NONE',  ( -0.6499999999999995781, -0.8499999999999999778, 9.838710202321310719E-19 ) ) ;
#935 = PLANE ( 'NONE',  #39 ) ;
#936 = CARTESIAN_POINT ( 'NONE',  ( 1.149999999999999911, 0.8499999999999999778, -2.139061280235471538E-16 ) ) ;
#937 = ORIENTED_EDGE ( 'NONE', *, *, #351, .T. ) ;
#938 = CARTESIAN_POINT ( 'NONE',  ( -1.149999999999999911, 1.000000000000000000, 1.149999999999999911 ) ) ;
#939 = EDGE_LOOP ( 'NONE', ( #956, #792, #1162 ) ) ;
#940 = EDGE_CURVE ( 'NONE', #1174, #1164, #1185, .T. ) ;
#941 = DIRECTION ( 'NONE',  ( -0.000000000000000000, 1.000000000000000000, -0.000000000000000000 ) ) ;
#942 = DIRECTION ( 'NONE',  ( 1.000000000000000000, 0.000000000000000000, 0.000000000000000000 ) ) ;
#943 = DIRECTION ( 'NONE',  ( 0.000000000000000000, 0.000000000000000000, -1.000000000000000000 ) ) ;
#944 = CARTESIAN_POINT ( 'NONE',  ( 1.250000000000000000, -0.8499999999999999778, 0.8999999999999998002 ) ) ;
#945 = VERTEX_POINT ( 'NONE', #1073 ) ;
#946 = CARTESIAN_POINT ( 'NONE',  ( -1.100000000000000089, 1.000000000000000000, 0.04999999999999991257 ) ) ;
#947 = ADVANCED_FACE ( 'NONE', ( #147 ), #571, .T. ) ;
#948 = VECTOR ( 'NONE', #914, 1000.000000000000000 ) ;
#949 = LINE ( 'NONE', #864, #1015 ) ;
#950 = VECTOR ( 'NONE', #1238, 1000.000000000000000 ) ;
#951 = LINE ( 'NONE', #229, #1033 ) ;
#952 = CARTESIAN_POINT ( 'NONE',  ( -1.149999999999999911, -0.8499999999999999778, 0.09999999999999982514 ) ) ;
#953 = VECTOR ( 'NONE', #903, 1000.000000000000000 ) ;
#954 = VERTEX_POINT ( 'NONE', #383 ) ;
#955 = DIRECTION ( 'NONE',  ( -1.084202172485504434E-15, 0.000000000000000000, -1.000000000000000000 ) ) ;
#956 = ORIENTED_EDGE ( 'NONE', *, *, #203, .T. ) ;
#957 = CARTESIAN_POINT ( 'NONE',  ( -1.100000000000000089, 1.000000000000000000, 1.149999999999999911 ) ) ;
#958 = ADVANCED_FACE ( 'NONE', ( #84 ), #1319, .T. ) ;
#959 = CARTESIAN_POINT ( 'NONE',  ( -1.150000000000000133, 0.8499999999999999778, 0.9000000000000002442 ) ) ;
#960 = FILL_AREA_STYLE ('',( #1275 ) ) ;
#961 = CARTESIAN_POINT ( 'NONE',  ( -1.150000000000000133, -0.8499999999999999778, 0.9000000000000002442 ) ) ;
#962 = VERTEX_POINT ( 'NONE', #797 ) ;
#963 = DIRECTION ( 'NONE',  ( -0.000000000000000000, -1.000000000000000000, -0.000000000000000000 ) ) ;
#964 = CARTESIAN_POINT ( 'NONE',  ( 1.149999999999999911, -0.8499999999999999778, -2.139061280235471538E-16 ) ) ;
#965 = CYLINDRICAL_SURFACE ( 'NONE', #587, 0.09999999999999979738 ) ;
#966 = EDGE_CURVE ( 'NONE', #666, #107, #1113, .T. ) ;
#967 = ORIENTED_EDGE ( 'NONE', *, *, #1304, .T. ) ;
#968 = PLANE ( 'NONE',  #842 ) ;
#969 = ORIENTED_EDGE ( 'NONE', *, *, #966, .F. ) ;
#970 = FACE_OUTER_BOUND ( 'NONE', #683, .T. ) ;
#971 = AXIS2_PLACEMENT_3D ( 'NONE', #1231, #221, #623 ) ;
#972 = DIRECTION ( 'NONE',  ( -1.000000000000000000, 0.000000000000000000, 5.963111948670267485E-16 ) ) ;
#973 = VECTOR ( 'NONE', #142, 1000.000000000000000 ) ;
#974 = ORIENTED_EDGE ( 'NONE', *, *, #61, .T. ) ;
#975 = CARTESIAN_POINT ( 'NONE',  ( 1.149999999999999911, 0.9499999999999998446, 0.000000000000000000 ) ) ;
#976 = EDGE_CURVE ( 'NONE', #921, #561, #844, .T. ) ;
#977 = AXIS2_PLACEMENT_3D ( 'NONE', #370, #783, #79 ) ;
#978 = VERTEX_POINT ( 'NONE', #1218 ) ;
#979 = CARTESIAN_POINT ( 'NONE',  ( -1.100000000000000089, -1.000000000000000000, 0.04999999999999991257 ) ) ;
#980 = PLANE ( 'NONE',  #922 ) ;
#981 = CARTESIAN_POINT ( 'NONE',  ( -1.149999999999999911, -0.9499999999999999556, 0.04999999999999991257 ) ) ;
#982 = UNCERTAINTY_MEASURE_WITH_UNIT (LENGTH_MEASURE( 1.000000000000000082E-05 ), #1144, 'distance_accuracy_value', 'NONE');
#983 = ORIENTED_EDGE ( 'NONE', *, *, #976, .F. ) ;
#984 = FILL_AREA_STYLE_COLOUR ( '', #1222 ) ;
#985 = ORIENTED_EDGE ( 'NONE', *, *, #318, .F. ) ;
#986 = ADVANCED_FACE ( 'NONE', ( #806 ), #912, .F. ) ;
#987 = CARTESIAN_POINT ( 'NONE',  ( 0.6499999999999995781, -0.8499999999999999778, -1.582202128689236671E-16 ) ) ;
#988 = CARTESIAN_POINT ( 'NONE',  ( -1.149999999999999911, 0.8499999999999999778, 0.09999999999999982514 ) ) ;
#989 = CARTESIAN_POINT ( 'NONE',  ( -0.6499999999999995781, 0.8499999999999999778, 9.838710202321310719E-19 ) ) ;
#990 = ORIENTED_EDGE ( 'NONE', *, *, #1027, .T. ) ;
#991 = CARTESIAN_POINT ( 'NONE',  ( -1.149999999999999911, -0.9499999999999999556, 1.149999999999999911 ) ) ;
#992 = ORIENTED_EDGE ( 'NONE', *, *, #1279, .F. ) ;
#993 = FACE_OUTER_BOUND ( 'NONE', #267, .T. ) ;
#994 = EDGE_CURVE ( 'NONE', #825, #1205, #186, .T. ) ;
#995 = CARTESIAN_POINT ( 'NONE',  ( 1.149999999999999911, -1.000000000000000000, 1.199999999999999956 ) ) ;
#996 = AXIS2_PLACEMENT_3D ( 'NONE', #535, #1225, #121 ) ;
#997 = CARTESIAN_POINT ( 'NONE',  ( 1.100000000000000089, -1.000000000000000000, 0.04999999999999991257 ) ) ;
#998 = DIRECTION ( 'NONE',  ( -0.000000000000000000, -0.000000000000000000, 1.000000000000000000 ) ) ;
#999 = VERTEX_POINT ( 'NONE', #1311 ) ;
#1000 = CARTESIAN_POINT ( 'NONE',  ( 1.149999999999999911, 0.8499999999999999778, 0.09999999999999954758 ) ) ;
#1001 = DIRECTION ( 'NONE',  ( -1.000000000000000000, 0.000000000000000000, 1.335575295202237667E-16 ) ) ;
#1002 = ADVANCED_FACE ( 'NONE', ( #895 ), #601, .T. ) ;
#1003 = DIRECTION ( 'NONE',  ( 0.000000000000000000, -1.000000000000000000, 0.000000000000000000 ) ) ;
#1004 = CARTESIAN_POINT ( 'NONE',  ( 0.6499999999999995781, -0.8499999999999999778, -1.582202128689236671E-16 ) ) ;
#1005 = ORIENTED_EDGE ( 'NONE', *, *, #654, .T. ) ;
#1006 = DIRECTION ( 'NONE',  ( -1.000000000000000000, 0.000000000000000000, 1.335575295202237667E-16 ) ) ;
#1007 = CARTESIAN_POINT ( 'NONE',  ( 1.100000000000000311, 1.000000000000000000, 1.149999999999999911 ) ) ;
#1008 = CARTESIAN_POINT ( 'NONE',  ( 0.000000000000000000, -0.9499999999999999556, 1.149999999999999911 ) ) ;
#1009 = EDGE_CURVE ( 'NONE', #257, #291, #1019, .T. ) ;
#1010 = ORIENTED_EDGE ( 'NONE', *, *, #29, .T. ) ;
#1011 = LINE ( 'NONE', #271, #18 ) ;
#1012 = CARTESIAN_POINT ( 'NONE',  ( 0.000000000000000000, 0.000000000000000000, 0.000000000000000000 ) ) ;
#1013 = CIRCLE ( 'NONE', #1330, 0.04999999999999991257 ) ;
#1014 = ORIENTED_EDGE ( 'NONE', *, *, #469, .F. ) ;
#1015 = VECTOR ( 'NONE', #1068, 1000.000000000000000 ) ;
#1016 = AXIS2_PLACEMENT_3D ( 'NONE', #698, #1194, #189 ) ;
#1017 = VECTOR ( 'NONE', #911, 1000.000000000000000 ) ;
#1018 = CARTESIAN_POINT ( 'NONE',  ( -1.149999999999999911, -0.8499999999999999778, 0.09999999999999982514 ) ) ;
#1019 = LINE ( 'NONE', #1004, #242 ) ;
#1020 = ORIENTED_EDGE ( 'NONE', *, *, #1062, .T. ) ;
#1021 = EDGE_CURVE ( 'NONE', #1051, #466, #299, .T. ) ;
#1022 = DIRECTION ( 'NONE',  ( -1.000000000000000000, 0.000000000000000000, 0.000000000000000000 ) ) ;
#1023 = LINE ( 'NONE', #1044, #387 ) ;
#1024 = FACE_OUTER_BOUND ( 'NONE', #554, .T. ) ;
#1025 = VERTEX_POINT ( 'NONE', #1210 ) ;
#1026 = CARTESIAN_POINT ( 'NONE',  ( -1.100000000000000089, -1.000000000000000000, 1.149999999999999911 ) ) ;
#1027 = EDGE_CURVE ( 'NONE', #566, #134, #812, .T. ) ;
#1028 = PLANE ( 'NONE',  #1286 ) ;
#1029 = ADVANCED_FACE ( 'NONE', ( #597 ), #791, .T. ) ;
#1030 = ORIENTED_EDGE ( 'NONE', *, *, #129, .F. ) ;
#1031 = LINE ( 'NONE', #1240, #801 ) ;
#1032 = ORIENTED_EDGE ( 'NONE', *, *, #545, .T. ) ;
#1033 = VECTOR ( 'NONE', #714, 1000.000000000000000 ) ;
#1034 =( GEOMETRIC_REPRESENTATION_CONTEXT ( 3 ) GLOBAL_UNCERTAINTY_ASSIGNED_CONTEXT ( ( #982 ) ) GLOBAL_UNIT_ASSIGNED_CONTEXT ( ( #1144, #632, #1054 ) ) REPRESENTATION_CONTEXT ( 'NONE', 'WORKASPACE' ) );
#1035 = AXIS2_PLACEMENT_3D ( 'NONE', #936, #616, #114 ) ;
#1036 = LINE ( 'NONE', #317, #81 ) ;
#1037 = CARTESIAN_POINT ( 'NONE',  ( 0.000000000000000000, 0.000000000000000000, 0.000000000000000000 ) ) ;
#1038 = DIRECTION ( 'NONE',  ( 1.000000000000000000, 0.000000000000000000, 0.000000000000000000 ) ) ;
#1039 = LINE ( 'NONE', #9, #729 ) ;
#1040 = EDGE_CURVE ( 'NONE', #1262, #323, #501, .T. ) ;
#1041 = ORIENTED_EDGE ( 'NONE', *, *, #70, .F. ) ;
#1042 = ORIENTED_EDGE ( 'NONE', *, *, #590, .T. ) ;
#1043 =( NAMED_UNIT ( * ) PLANE_ANGLE_UNIT ( ) SI_UNIT ( $, .RADIAN. ) );
#1044 = CARTESIAN_POINT ( 'NONE',  ( 1.100000000000000089, 0.000000000000000000, 1.199999999999999956 ) ) ;
#1045 = EDGE_LOOP ( 'NONE', ( #95, #750, #1197, #645 ) ) ;
#1046 = CARTESIAN_POINT ( 'NONE',  ( -1.150000000000000133, -0.8499999999999999778, 1.000000000000000000 ) ) ;
#1047 = EDGE_CURVE ( 'NONE', #411, #358, #293, .T. ) ;
#1048 = ORIENTED_EDGE ( 'NONE', *, *, #1198, .F. ) ;
#1049 = FACE_OUTER_BOUND ( 'NONE', #25, .T. ) ;
#1050 = DIRECTION ( 'NONE',  ( 0.000000000000000000, 0.000000000000000000, -1.000000000000000000 ) ) ;
#1051 = VERTEX_POINT ( 'NONE', #1196 ) ;
#1052 = ORIENTED_EDGE ( 'NONE', *, *, #97, .F. ) ;
#1053 = ADVANCED_FACE ( 'NONE', ( #1024 ), #279, .F. ) ;
#1054 =( NAMED_UNIT ( * ) SI_UNIT ( $, .STERADIAN. ) SOLID_ANGLE_UNIT ( ) );
#1055 = VECTOR ( 'NONE', #692, 1000.000000000000000 ) ;
#1056 = STYLED_ITEM ( 'NONE', ( #168 ), #881 ) ;
#1057 = CARTESIAN_POINT ( 'NONE',  ( 0.000000000000000000, 0.000000000000000000, 1.199999999999999956 ) ) ;
#1058 = DIRECTION ( 'NONE',  ( 0.000000000000000000, -0.000000000000000000, 1.000000000000000000 ) ) ;
#1059 = ORIENTED_EDGE ( 'NONE', *, *, #740, .F. ) ;
#1060 = ORIENTED_EDGE ( 'NONE', *, *, #545, .F. ) ;
#1061 = DIRECTION ( 'NONE',  ( -0.000000000000000000, 0.000000000000000000, -1.000000000000000000 ) ) ;
#1062 = EDGE_CURVE ( 'NONE', #945, #169, #401, .T. ) ;
#1063 = CARTESIAN_POINT ( 'NONE',  ( -1.149999999999999911, 0.8499999999999999778, 0.09999999999999982514 ) ) ;
#1064 = CYLINDRICAL_SURFACE ( 'NONE', #1101, 0.04999999999999999584 ) ;
#1065 = ORIENTED_EDGE ( 'NONE', *, *, #1219, .F. ) ;
#1066 = DIRECTION ( 'NONE',  ( 0.000000000000000000, 0.000000000000000000, -1.000000000000000000 ) ) ;
#1067 = ORIENTED_EDGE ( 'NONE', *, *, #504, .F. ) ;
#1068 = DIRECTION ( 'NONE',  ( -0.000000000000000000, -1.000000000000000000, -0.000000000000000000 ) ) ;
#1069 = ADVANCED_FACE ( 'NONE', ( #1120 ), #201, .T. ) ;
#1070 = FACE_OUTER_BOUND ( 'NONE', #807, .T. ) ;
#1071 = EDGE_CURVE ( 'NONE', #850, #55, #507, .T. ) ;
#1072 = VERTEX_POINT ( 'NONE', #222 ) ;
#1073 = CARTESIAN_POINT ( 'NONE',  ( -1.100000000000000089, -0.9499999999999999556, 1.199999999999999956 ) ) ;
#1074 = VERTEX_POINT ( 'NONE', #420 ) ;
#1075 = DIRECTION ( 'NONE',  ( 1.000000000000000000, 0.000000000000000000, 0.000000000000000000 ) ) ;
#1076 = CARTESIAN_POINT ( 'NONE',  ( 1.100000000000000089, 0.9499999999999999556, 1.149999999999999911 ) ) ;
#1077 = VECTOR ( 'NONE', #143, 1000.000000000000000 ) ;
#1078 = DIRECTION ( 'NONE',  ( 0.000000000000000000, 0.000000000000000000, 1.000000000000000000 ) ) ;
#1079 = AXIS2_PLACEMENT_3D ( 'NONE', #332, #746, #49 ) ;
#1080 = VECTOR ( 'NONE', #1166, 1000.000000000000000 ) ;
#1081 = EDGE_LOOP ( 'NONE', ( #1331, #823, #373, #1184 ) ) ;
#1082 = LINE ( 'NONE', #64, #1243 ) ;
#1083 = EDGE_CURVE ( 'NONE', #36, #329, #305, .T. ) ;
#1084 = EDGE_LOOP ( 'NONE', ( #556, #1088, #1030, #1110 ) ) ;
#1085 = DIRECTION ( 'NONE',  ( 0.000000000000000000, -1.000000000000000000, 0.000000000000000000 ) ) ;
#1086 = ORIENTED_EDGE ( 'NONE', *, *, #580, .F. ) ;
#1087 = LINE ( 'NONE', #583, #261 ) ;
#1088 = ORIENTED_EDGE ( 'NONE', *, *, #442, .F. ) ;
#1089 = EDGE_CURVE ( 'NONE', #672, #962, #122, .T. ) ;
#1090 = LINE ( 'NONE', #1000, #263 ) ;
#1091 = LINE ( 'NONE', #810, #408 ) ;
#1092 = FACE_OUTER_BOUND ( 'NONE', #856, .T. ) ;
#1093 = CARTESIAN_POINT ( 'NONE',  ( -1.100000000000000089, 0.9499999999999998446, 1.149999999999999911 ) ) ;
#1094 = ORIENTED_EDGE ( 'NONE', *, *, #47, .F. ) ;
#1095 = FACE_OUTER_BOUND ( 'NONE', #1277, .T. ) ;
#1096 = UNCERTAINTY_MEASURE_WITH_UNIT (LENGTH_MEASURE( 1.000000000000000082E-05 ), #1119, 'distance_accuracy_value', 'NONE');
#1097 = AXIS2_PLACEMENT_3D ( 'NONE', #633, #506, #816 ) ;
#1098 = DIRECTION ( 'NONE',  ( 2.710505431213760099E-16, 0.000000000000000000, 1.000000000000000000 ) ) ;
#1099 = DIRECTION ( 'NONE',  ( 0.000000000000000000, 0.000000000000000000, -1.000000000000000000 ) ) ;
#1100 = CIRCLE ( 'NONE', #923, 0.04999999999999991257 ) ;
#1101 = AXIS2_PLACEMENT_3D ( 'NONE', #981, #162, #753 ) ;
#1102 = EDGE_LOOP ( 'NONE', ( #451, #196, #1192, #1170 ) ) ;
#1103 = DIRECTION ( 'NONE',  ( 0.000000000000000000, 0.000000000000000000, -1.000000000000000000 ) ) ;
#1104 = CARTESIAN_POINT ( 'NONE',  ( 1.150000000000000577, 0.8499999999999999778, 0.8999999999999998002 ) ) ;
#1105 = DIRECTION ( 'NONE',  ( -2.710505431213760099E-16, 0.000000000000000000, -1.000000000000000000 ) ) ;
#1106 = ORIENTED_EDGE ( 'NONE', *, *, #171, .F. ) ;
#1107 = DIRECTION ( 'NONE',  ( 1.000000000000000000, 0.000000000000000000, 3.523657060577885466E-16 ) ) ;
#1108 = CARTESIAN_POINT ( 'NONE',  ( -1.100000000000000089, -0.9499999999999999556, 1.149999999999999911 ) ) ;
#1109 = CARTESIAN_POINT ( 'NONE',  ( 0.000000000000000000, -0.9499999999999999556, 1.199999999999999956 ) ) ;
#1110 = ORIENTED_EDGE ( 'NONE', *, *, #360, .T. ) ;
#1111 = LINE ( 'NONE', #377, #1289 ) ;
#1112 =( NAMED_UNIT ( * ) PLANE_ANGLE_UNIT ( ) SI_UNIT ( $, .RADIAN. ) );
#1113 = LINE ( 'NONE', #69, #217 ) ;
#1114 = ORIENTED_EDGE ( 'NONE', *, *, #786, .F. ) ;
#1115 = ADVANCED_FACE ( 'NONE', ( #929 ), #739, .T. ) ;
#1116 = PRODUCT_DEFINITION_FORMATION_WITH_SPECIFIED_SOURCE ( 'ANY', '', #815, .NOT_KNOWN. ) ;
#1117 = AXIS2_PLACEMENT_3D ( 'NONE', #278, #181, #176 ) ;
#1118 = CARTESIAN_POINT ( 'NONE',  ( -1.100000000000000089, -0.9499999999999999556, 1.199999999999999956 ) ) ;
#1119 =( LENGTH_UNIT ( ) NAMED_UNIT ( * ) SI_UNIT ( .MILLI., .METRE. ) );
#1120 = FACE_OUTER_BOUND ( 'NONE', #101, .T. ) ;
#1121 = EDGE_LOOP ( 'NONE', ( #457, #218, #215 ) ) ;
#1122 = ADVANCED_FACE ( 'NONE', ( #414 ), #514, .F. ) ;
#1123 = ADVANCED_FACE ( 'NONE', ( #1226 ), #715, .T. ) ;
#1124 = LINE ( 'NONE', #627, #662 ) ;
#1125 = CARTESIAN_POINT ( 'NONE',  ( 1.149999999999999911, -0.8499999999999999778, 0.09999999999999954758 ) ) ;
#1126 = ORIENTED_EDGE ( 'NONE', *, *, #712, .F. ) ;
#1127 = EDGE_LOOP ( 'NONE', ( #869, #1249, #342, #1220 ) ) ;
#1128 = CARTESIAN_POINT ( 'NONE',  ( 1.250000000000000000, 0.8499999999999999778, 0.8999999999999998002 ) ) ;
#1129 = EDGE_CURVE ( 'NONE', #333, #759, #722, .T. ) ;
#1130 = LINE ( 'NONE', #1245, #282 ) ;
#1131 = DIRECTION ( 'NONE',  ( -2.710505431213760099E-16, 0.000000000000000000, -1.000000000000000000 ) ) ;
#1132 = ORIENTED_EDGE ( 'NONE', *, *, #590, .F. ) ;
#1133 = DIRECTION ( 'NONE',  ( 0.000000000000000000, 0.000000000000000000, 1.000000000000000000 ) ) ;
#1134 = ORIENTED_EDGE ( 'NONE', *, *, #679, .F. ) ;
#1135 = AXIS2_PLACEMENT_3D ( 'NONE', #1280, #34, #575 ) ;
#1136 = AXIS2_PLACEMENT_3D ( 'NONE', #1012, #477, #592 ) ;
#1137 = APPLICATION_CONTEXT ( 'automotive_design' ) ;
#1138 = CARTESIAN_POINT ( 'NONE',  ( 1.149999999999999911, 0.9499999999999999556, 1.149999999999999911 ) ) ;
#1139 = PLANE ( 'NONE',  #1097 ) ;
#1140 = CARTESIAN_POINT ( 'NONE',  ( -1.149999999999999911, -0.8499999999999999778, 6.776263578034407643E-17 ) ) ;
#1141 = ORIENTED_EDGE ( 'NONE', *, *, #1165, .F. ) ;
#1142 = LINE ( 'NONE', #839, #567 ) ;
#1143 = ORIENTED_EDGE ( 'NONE', *, *, #318, .T. ) ;
#1144 =( LENGTH_UNIT ( ) NAMED_UNIT ( * ) SI_UNIT ( .MILLI., .METRE. ) );
#1145 = CARTESIAN_POINT ( 'NONE',  ( 1.100000000000000089, -0.9499999999999999556, 1.149999999999999911 ) ) ;
#1146 = DIRECTION ( 'NONE',  ( 1.000000000000000000, 0.000000000000000000, 0.000000000000000000 ) ) ;
#1147 = ORIENTED_EDGE ( 'NONE', *, *, #399, .T. ) ;
#1148 = DIRECTION ( 'NONE',  ( -0.000000000000000000, -1.000000000000000000, -0.000000000000000000 ) ) ;
#1149 = ORIENTED_EDGE ( 'NONE', *, *, #919, .F. ) ;
#1150 = CARTESIAN_POINT ( 'NONE',  ( -1.149999999999999911, 0.9499999999999998446, 1.149999999999999911 ) ) ;
#1151 = FACE_OUTER_BOUND ( 'NONE', #1102, .T. ) ;
#1152 = CARTESIAN_POINT ( 'NONE',  ( 1.149999999999999911, -0.8499999999999999778, 0.09999999999999954758 ) ) ;
#1153 = ORIENTED_EDGE ( 'NONE', *, *, #701, .F. ) ;
#1154 = CARTESIAN_POINT ( 'NONE',  ( -1.100000000000000089, 0.9499999999999999556, 1.199999999999999956 ) ) ;
#1155 = ORIENTED_EDGE ( 'NONE', *, *, #930, .T. ) ;
#1156 = EDGE_CURVE ( 'NONE', #329, #1174, #847, .T. ) ;
#1157 = VECTOR ( 'NONE', #721, 1000.000000000000000 ) ;
#1158 = CARTESIAN_POINT ( 'NONE',  ( -1.149999999999999911, -0.9499999999999999556, 0.000000000000000000 ) ) ;
#1159 = AXIS2_PLACEMENT_3D ( 'NONE', #761, #1061, #639 ) ;
#1160 = DIRECTION ( 'NONE',  ( -0.000000000000000000, -1.000000000000000000, -0.000000000000000000 ) ) ;
#1161 = FACE_OUTER_BOUND ( 'NONE', #1084, .T. ) ;
#1162 = ORIENTED_EDGE ( 'NONE', *, *, #283, .F. ) ;
#1163 = CARTESIAN_POINT ( 'NONE',  ( 1.250000000000000000, 0.8499999999999999778, 0.8999999999999998002 ) ) ;
#1164 = VERTEX_POINT ( 'NONE', #855 ) ;
#1165 = EDGE_CURVE ( 'NONE', #291, #234, #640, .T. ) ;
#1166 = DIRECTION ( 'NONE',  ( -0.000000000000000000, -1.000000000000000000, -0.000000000000000000 ) ) ;
#1167 = CARTESIAN_POINT ( 'NONE',  ( 1.149999999999999911, -0.8499999999999999778, 0.09999999999999954758 ) ) ;
#1168 = FACE_OUTER_BOUND ( 'NONE', #1271, .T. ) ;
#1169 = VERTEX_POINT ( 'NONE', #212 ) ;
#1170 = ORIENTED_EDGE ( 'NONE', *, *, #824, .T. ) ;
#1171 = LINE ( 'NONE', #255, #126 ) ;
#1172 = ADVANCED_FACE ( 'NONE', ( #822 ), #629, .F. ) ;
#1173 = CARTESIAN_POINT ( 'NONE',  ( -1.150000000000000133, 0.8499999999999999778, 1.000000000000000000 ) ) ;
#1174 = VERTEX_POINT ( 'NONE', #230 ) ;
#1175 = SURFACE_STYLE_USAGE ( .BOTH. , #555 ) ;
#1176 = EDGE_LOOP ( 'NONE', ( #1014, #409, #165 ) ) ;
#1177 = DIRECTION ( 'NONE',  ( 1.000000000000000000, 0.000000000000000000, -5.963111948670267485E-16 ) ) ;
#1178 = AXIS2_PLACEMENT_3D ( 'NONE', #456, #569, #558 ) ;
#1179 = CARTESIAN_POINT ( 'NONE',  ( 1.129289321881345565, 1.000000000000000000, 0.02071067811865462752 ) ) ;
#1180 = AXIS2_PLACEMENT_3D ( 'NONE', #439, #877, #1075 ) ;
#1181 = FACE_OUTER_BOUND ( 'NONE', #863, .T. ) ;
#1182 = AXIS2_PLACEMENT_3D ( 'NONE', #959, #763, #441 ) ;
#1183 = EDGE_CURVE ( 'NONE', #257, #36, #1039, .T. ) ;
#1184 = ORIENTED_EDGE ( 'NONE', *, *, #884, .F. ) ;
#1185 = LINE ( 'NONE', #340, #1267 ) ;
#1186 = VECTOR ( 'NONE', #796, 1000.000000000000000 ) ;
#1187 = VERTEX_POINT ( 'NONE', #1252 ) ;
#1188 = LINE ( 'NONE', #179, #685 ) ;
#1189 = UNCERTAINTY_MEASURE_WITH_UNIT (LENGTH_MEASURE( 1.000000000000000082E-05 ), #699, 'distance_accuracy_value', 'NONE');
#1190 = DIRECTION ( 'NONE',  ( 0.000000000000000000, 1.000000000000000000, 0.000000000000000000 ) ) ;
#1191 = PRODUCT_RELATED_PRODUCT_CATEGORY ( 'part', '', ( #815 ) ) ;
#1192 = ORIENTED_EDGE ( 'NONE', *, *, #288, .F. ) ;
#1193 = DIRECTION ( 'NONE',  ( -1.000000000000000000, -0.000000000000000000, 1.113718303092468747E-16 ) ) ;
#1194 = DIRECTION ( 'NONE',  ( 5.963111948670267485E-16, 0.000000000000000000, 1.000000000000000000 ) ) ;
#1195 = LINE ( 'NONE', #915, #1017 ) ;
#1196 = CARTESIAN_POINT ( 'NONE',  ( -1.100000000000000089, 1.000000000000000000, 0.04999999999999991257 ) ) ;
#1197 = ORIENTED_EDGE ( 'NONE', *, *, #203, .F. ) ;
#1198 = EDGE_CURVE ( 'NONE', #38, #1074, #837, .T. ) ;
#1199 = DIRECTION ( 'NONE',  ( -1.084202172485504434E-15, 0.000000000000000000, 1.000000000000000000 ) ) ;
#1200 = UNCERTAINTY_MEASURE_WITH_UNIT (LENGTH_MEASURE( 1.000000000000000082E-05 ), #1276, 'distance_accuracy_value', 'NONE');
#1201 = SURFACE_STYLE_USAGE ( .BOTH. , #486 ) ;
#1202 = CARTESIAN_POINT ( 'NONE',  ( 1.149999999999999911, 0.8499999999999999778, 0.09999999999999954758 ) ) ;
#1203 = VECTOR ( 'NONE', #608, 1000.000000000000000 ) ;
#1204 = ORIENTED_EDGE ( 'NONE', *, *, #410, .T. ) ;
#1205 = VERTEX_POINT ( 'NONE', #1140 ) ;
#1206 = DIRECTION ( 'NONE',  ( 7.228014483236697541E-16, 0.000000000000000000, 1.000000000000000000 ) ) ;
#1207 = ADVANCED_FACE ( 'NONE', ( #24 ), #435, .F. ) ;
#1208 = ADVANCED_FACE ( 'NONE', ( #1168 ), #873, .F. ) ;
#1209 = CARTESIAN_POINT ( 'NONE',  ( 1.150000000000000577, -0.8499999999999999778, 0.8999999999999998002 ) ) ;
#1210 = CARTESIAN_POINT ( 'NONE',  ( 0.6499999999999994671, -0.8499999999999999778, 0.09999999999999983902 ) ) ;
#1211 = ORIENTED_EDGE ( 'NONE', *, *, #1156, .F. ) ;
#1212 = FACE_OUTER_BOUND ( 'NONE', #1303, .T. ) ;
#1213 = ADVANCED_FACE ( 'NONE', ( #1161 ), #155, .T. ) ;
#1214 = CARTESIAN_POINT ( 'NONE',  ( -1.149999999999999911, 0.9499999999999998446, 1.199999999999999956 ) ) ;
#1215 = ORIENTED_EDGE ( 'NONE', *, *, #4, .T. ) ;
#1216 = DIRECTION ( 'NONE',  ( 0.000000000000000000, 1.000000000000000000, 0.000000000000000000 ) ) ;
#1217 = LINE ( 'NONE', #98, #1157 ) ;
#1218 = CARTESIAN_POINT ( 'NONE',  ( 0.6499999999999995781, -0.8499999999999999778, -1.582202128689236671E-16 ) ) ;
#1219 = EDGE_CURVE ( 'NONE', #392, #626, #361, .T. ) ;
#1220 = ORIENTED_EDGE ( 'NONE', *, *, #1047, .F. ) ;
#1221 = VECTOR ( 'NONE', #1107, 1000.000000000000000 ) ;
#1222 = COLOUR_RGB ( '',0.8039215686274510109, 0.8039215686274510109, 0.8039215686274510109 ) ;
#1223 = DIRECTION ( 'NONE',  ( 0.000000000000000000, 0.000000000000000000, 1.000000000000000000 ) ) ;
#1224 = FILL_AREA_STYLE_COLOUR ( '', #707 ) ;
#1225 = DIRECTION ( 'NONE',  ( 1.000000000000000000, -0.000000000000000000, 4.336808689942025625E-15 ) ) ;
#1226 = FACE_OUTER_BOUND ( 'NONE', #364, .T. ) ;
#1227 = ORIENTED_EDGE ( 'NONE', *, *, #22, .F. ) ;
#1228 = ORIENTED_EDGE ( 'NONE', *, *, #308, .F. ) ;
#1229 = ADVANCED_FACE ( 'NONE', ( #355 ), #965, .T. ) ;
#1230 = CARTESIAN_POINT ( 'NONE',  ( -1.249999999999999778, -0.8499999999999999778, 0.09999999999999981126 ) ) ;
#1231 = CARTESIAN_POINT ( 'NONE',  ( -1.150000000000000133, 0.8499999999999999778, 0.9000000000000002442 ) ) ;
#1232 = ORIENTED_EDGE ( 'NONE', *, *, #210, .F. ) ;
#1233 = CARTESIAN_POINT ( 'NONE',  ( 0.6499999999999994671, 0.8499999999999999778, 0.09999999999999983902 ) ) ;
#1234 = ORIENTED_EDGE ( 'NONE', *, *, #276, .F. ) ;
#1235 = ADVANCED_FACE ( 'NONE', ( #1258 ), #1064, .T. ) ;
#1236 = DIRECTION ( 'NONE',  ( 0.000000000000000000, 0.000000000000000000, -1.000000000000000000 ) ) ;
#1237 = DIRECTION ( 'NONE',  ( -0.000000000000000000, -0.000000000000000000, 1.000000000000000000 ) ) ;
#1238 = DIRECTION ( 'NONE',  ( 1.000000000000000000, 0.000000000000000000, 3.523657060577885466E-16 ) ) ;
#1239 = EDGE_LOOP ( 'NONE', ( #421, #497, #637, #525 ) ) ;
#1240 = CARTESIAN_POINT ( 'NONE',  ( -0.6499999999999994671, -0.8499999999999999778, 0.1000000000000000056 ) ) ;
#1241 = EDGE_LOOP ( 'NONE', ( #540, #436, #985, #139 ) ) ;
#1242 = AXIS2_PLACEMENT_3D ( 'NONE', #1125, #419, #828 ) ;
#1243 = VECTOR ( 'NONE', #253, 1000.000000000000000 ) ;
#1244 = FILL_AREA_STYLE_COLOUR ( '', #259 ) ;
#1245 = CARTESIAN_POINT ( 'NONE',  ( -1.149999999999999911, -1.000000000000000000, 0.000000000000000000 ) ) ;
#1246 = DIRECTION ( 'NONE',  ( -1.084202172485504434E-15, -0.000000000000000000, 1.000000000000000000 ) ) ;
#1247 = ORIENTED_EDGE ( 'NONE', *, *, #22, .T. ) ;
#1248 = DIRECTION ( 'NONE',  ( -1.084202172485504434E-15, 0.000000000000000000, -1.000000000000000000 ) ) ;
#1249 = ORIENTED_EDGE ( 'NONE', *, *, #30, .F. ) ;
#1250 = LINE ( 'NONE', #40, #973 ) ;
#1251 = CARTESIAN_POINT ( 'NONE',  ( 1.100000000000000311, 1.000000000000000000, 0.04999999999999991257 ) ) ;
#1252 = CARTESIAN_POINT ( 'NONE',  ( -0.6499999999999995781, 0.8499999999999999778, 9.838710202321310719E-19 ) ) ;
#1253 = ADVANCED_FACE ( 'NONE', ( #35 ), #447, .F. ) ;
#1254 = ORIENTED_EDGE ( 'NONE', *, *, #872, .F. ) ;
#1255 = CARTESIAN_POINT ( 'NONE',  ( -1.129289321881345343, 0.9999999999999997780, 0.02071067811865465874 ) ) ;
#1256 = ORIENTED_EDGE ( 'NONE', *, *, #1047, .T. ) ;
#1257 = CARTESIAN_POINT ( 'NONE',  ( -1.129289321881345343, -1.000000000000000000, 0.02071067811865467609 ) ) ;
#1258 = FACE_OUTER_BOUND ( 'NONE', #1081, .T. ) ;
#1259 = ORIENTED_EDGE ( 'NONE', *, *, #97, .T. ) ;
#1260 = CARTESIAN_POINT ( 'NONE',  ( -1.149999999999999911, -1.000000000000000000, 1.149999999999999911 ) ) ;
#1261 = ADVANCED_FACE ( 'NONE', ( #655 ), #885, .F. ) ;
#1262 = VERTEX_POINT ( 'NONE', #989 ) ;
#1263 = ADVANCED_FACE ( 'NONE', ( #1181 ), #43, .T. ) ;
#1264 = CIRCLE ( 'NONE', #971, 0.09999999999999982514 ) ;
#1265 = CARTESIAN_POINT ( 'NONE',  ( -0.6499999999999995781, 0.8499999999999999778, 9.838710202321310719E-19 ) ) ;
#1266 = MECHANICAL_DESIGN_GEOMETRIC_PRESENTATION_REPRESENTATION (  '', ( #260 ), #1034 ) ;
#1267 = VECTOR ( 'NONE', #657, 1000.000000000000000 ) ;
#1268 = LINE ( 'NONE', #251, #1308 ) ;
#1269 = ORIENTED_EDGE ( 'NONE', *, *, #460, .F. ) ;
#1270 = CARTESIAN_POINT ( 'NONE',  ( -1.149999999999999911, 0.8499999999999999778, 0.09999999999999982514 ) ) ;
#1271 = EDGE_LOOP ( 'NONE', ( #17, #44, #969, #91 ) ) ;
#1272 = EDGE_CURVE ( 'NONE', #323, #896, #660, .T. ) ;
#1273 = CARTESIAN_POINT ( 'NONE',  ( 1.149999999999999911, 0.8499999999999999778, -2.139061280235471538E-16 ) ) ;
#1274 = CARTESIAN_POINT ( 'NONE',  ( 1.100000000000000089, 0.9499999999999999556, 1.199999999999999956 ) ) ;
#1275 = FILL_AREA_STYLE_COLOUR ( '', #195 ) ;
#1276 =( LENGTH_UNIT ( ) NAMED_UNIT ( * ) SI_UNIT ( .MILLI., .METRE. ) );
#1277 = EDGE_LOOP ( 'NONE', ( #1155, #990, #718, #459, #178, #231, #508, #516 ) ) ;
#1278 = LINE ( 'NONE', #767, #586 ) ;
#1279 = EDGE_CURVE ( 'NONE', #609, #825, #879, .T. ) ;
#1280 = CARTESIAN_POINT ( 'NONE',  ( -1.100000000000000089, -0.9499999999999999556, 1.149999999999999911 ) ) ;
#1281 = PRODUCT_DEFINITION_CONTEXT ( 'detailed design', #1137, 'design' ) ;
#1282 = ORIENTED_EDGE ( 'NONE', *, *, #210, .T. ) ;
#1283 = PLANE ( 'NONE',  #492 ) ;
#1284 = ORIENTED_EDGE ( 'NONE', *, *, #786, .T. ) ;
#1285 = CARTESIAN_POINT ( 'NONE',  ( -1.150000000000000133, 0.8499999999999999778, 1.000000000000000000 ) ) ;
#1286 = AXIS2_PLACEMENT_3D ( 'NONE', #1328, #405, #513 ) ;
#1287 = VECTOR ( 'NONE', #659, 1000.000000000000000 ) ;
#1288 = PRESENTATION_LAYER_ASSIGNMENT (  '', '', ( #1056 ) ) ;
#1289 = VECTOR ( 'NONE', #676, 1000.000000000000000 ) ;
#1290 = ADVANCED_FACE ( 'NONE', ( #54 ), #553, .T. ) ;
#1291 = ORIENTED_EDGE ( 'NONE', *, *, #47, .T. ) ;
#1292 = FILL_AREA_STYLE ('',( #984 ) ) ;
#1293 = VECTOR ( 'NONE', #1098, 1000.000000000000000 ) ;
#1294 = ORIENTED_EDGE ( 'NONE', *, *, #648, .F. ) ;
#1295 = FACE_OUTER_BOUND ( 'NONE', #208, .T. ) ;
#1296 = CARTESIAN_POINT ( 'NONE',  ( -1.250000000000000000, 0.8499999999999999778, 0.09999999999999981126 ) ) ;
#1297 = CARTESIAN_POINT ( 'NONE',  ( -1.149999999999999911, -0.8499999999999999778, 0.09999999999999982514 ) ) ;
#1298 = ADVANCED_FACE ( 'NONE', ( #394 ), #1323, .F. ) ;
#1299 = ORIENTED_EDGE ( 'NONE', *, *, #994, .T. ) ;
#1300 = DIRECTION ( 'NONE',  ( -0.000000000000000000, -1.000000000000000000, -0.000000000000000000 ) ) ;
#1301 = DIRECTION ( 'NONE',  ( 1.000000000000000000, 0.000000000000000000, -5.963111948670267485E-16 ) ) ;
#1302 = DIRECTION ( 'NONE',  ( 0.000000000000000000, 0.000000000000000000, -1.000000000000000000 ) ) ;
#1303 = EDGE_LOOP ( 'NONE', ( #270, #438, #992, #115 ) ) ;
#1304 = EDGE_CURVE ( 'NONE', #36, #234, #1111, .T. ) ;
#1305 = EDGE_LOOP ( 'NONE', ( #716, #316, #983, #1032 ) ) ;
#1306 = EDGE_CURVE ( 'NONE', #630, #202, #1091, .T. ) ;
#1307 = CARTESIAN_POINT ( 'NONE',  ( -1.100000000000000089, 0.9499999999999999556, 1.149999999999999911 ) ) ;
#1308 = VECTOR ( 'NONE', #854, 1000.000000000000000 ) ;
#1309 = VECTOR ( 'NONE', #1246, 1000.000000000000000 ) ;
#1310 = LINE ( 'NONE', #500, #197 ) ;
#1311 = CARTESIAN_POINT ( 'NONE',  ( -0.6499999999999994671, 0.8499999999999999778, 0.1000000000000000056 ) ) ;
#1312 = AXIS2_PLACEMENT_3D ( 'NONE', #249, #647, #859 ) ;
#1313 = AXIS2_PLACEMENT_3D ( 'NONE', #995, #534, #326 ) ;
#1314 = ORIENTED_EDGE ( 'NONE', *, *, #749, .T. ) ;
#1315 = ORIENTED_EDGE ( 'NONE', *, *, #180, .F. ) ;
#1316 = DIRECTION ( 'NONE',  ( -0.000000000000000000, -1.000000000000000000, -0.000000000000000000 ) ) ;
#1317 = EDGE_CURVE ( 'NONE', #880, #945, #927, .T. ) ;
#1318 = CARTESIAN_POINT ( 'NONE',  ( 1.149999999999999911, -0.8499999999999999778, -2.139061280235471538E-16 ) ) ;
#1319 = PLANE ( 'NONE',  #1136 ) ;
#1320 = ORIENTED_EDGE ( 'NONE', *, *, #930, .F. ) ;
#1321 = DIRECTION ( 'NONE',  ( 0.000000000000000000, 0.000000000000000000, -1.000000000000000000 ) ) ;
#1322 = ADVANCED_FACE ( 'NONE', ( #485 ), #693, .F. ) ;
#1323 = PLANE ( 'NONE',  #1016 ) ;
#1324 = DIRECTION ( 'NONE',  ( -1.000000000000000000, 0.000000000000000000, 1.113718303092468747E-16 ) ) ;
#1325 = DIRECTION ( 'NONE',  ( 0.000000000000000000, -0.000000000000000000, 1.000000000000000000 ) ) ;
#1326 = ORIENTED_EDGE ( 'NONE', *, *, #187, .F. ) ;
#1327 = CARTESIAN_POINT ( 'NONE',  ( -1.149999999999999911, -0.8499999999999999778, 0.09999999999999982514 ) ) ;
#1328 = CARTESIAN_POINT ( 'NONE',  ( -1.149999999999999911, -0.8499999999999999778, 0.09999999999999982514 ) ) ;
#1329 = DIRECTION ( 'NONE',  ( -1.000000000000000000, -0.000000000000000000, -0.000000000000000000 ) ) ;
#1330 = AXIS2_PLACEMENT_3D ( 'NONE', #1108, #395, #185 ) ;
#1331 = ORIENTED_EDGE ( 'NONE', *, *, #498, .T. ) ;
#1332 = CIRCLE ( 'NONE', #102, 0.09999999999999990841 ) ;
#1333 = AXIS2_PLACEMENT_3D ( 'NONE', #624, #15, #537 ) ;
#1334 = DIRECTION ( 'NONE',  ( 7.228014483236697541E-16, 0.000000000000000000, 1.000000000000000000 ) ) ;
#1335 = FILL_AREA_STYLE ('',( #1224 ) ) ;
#1336 = DIRECTION ( 'NONE',  ( -0.000000000000000000, 1.000000000000000000, -0.000000000000000000 ) ) ;
ENDSEC;
END-ISO-10303-21;
