M48
; DRILL file {KiCad 9.0.6} date 2025-12-18T11:53:50+0200
; FORMAT={-:-/ absolute / metric / decimal}
; #@! TF.CreationDate,2025-12-18T11:53:50+02:00
; #@! TF.GenerationSoftware,Kicad,Pcbnew,9.0.6
; #@! TF.FileFunction,Plated,1,2,PTH
FMAT,2
METRIC
; #@! TA.AperFunction,Plated,PTH,ViaDrill
T1C0.300
; #@! TA.AperFunction,Plated,PTH,ComponentDrill
T2C0.700
; #@! TA.AperFunction,Plated,PTH,ComponentDrill
T3C0.830
; #@! TA.AperFunction,Plated,PTH,ComponentDrill
T4C0.900
; #@! TA.AperFunction,Plated,PTH,ComponentDrill
T5C1.000
; #@! TA.AperFunction,Plated,PTH,ComponentDrill
T6C1.500
; #@! TA.AperFunction,Plated,PTH,ComponentDrill
T7C3.000
; #@! TA.AperFunction,Plated,PTH,ComponentDrill
T8C3.100
%
G90
G05
T1
X19.99Y-57.01
X19.99Y-67.49
X20.0Y-107.7
X20.03Y-37.17
X20.03Y-77.49
X20.15Y-96.63
X20.17Y-47.16
X20.17Y-87.44
X20.2Y-126.7
X20.2Y-140.2
X20.27Y-27.91
X20.27Y-130.01
X20.27Y-136.56
X21.15Y-165.67
X21.2Y-106.4
X21.2Y-109.1
X22.68Y-139.12
X22.7Y-128.3
X23.31Y-126.39
X24.7Y-106.4
X24.8Y-102.8
X24.8Y-103.6
X25.6Y-102.8
X25.6Y-103.6
X25.688Y-106.4
X25.7Y-108.8
X25.7Y-138.6
X26.02Y-99.1
X26.4Y-137.2
X26.6Y-106.4
X27.2Y-125.9
X27.75Y-138.36
X27.99Y-131.5
X28.6Y-127.2
X29.32Y-119.2
X29.52Y-127.96
X29.6Y-107.6
X29.76Y-137.24
X30.77Y-126.82
X30.8Y-106.3
X30.8Y-109.0
X31.01Y-138.04
X31.99Y-127.73
X32.51Y-137.35
X33.29Y-131.36
X34.3Y-106.4
X34.4Y-102.6
X34.4Y-103.4
X34.43Y-133.77
X34.94Y-132.15
X35.2Y-102.6
X35.2Y-103.4
X35.23Y-129.73
X35.288Y-106.4
X35.3Y-108.8
X35.7Y-127.6
X36.2Y-106.4
X36.61Y-120.69
X37.0Y-129.7
X37.26Y-127.81
X38.1Y-135.3
X38.88Y-118.73
X39.2Y-107.5
X39.5Y-129.7
X39.73Y-26.51
X40.4Y-106.2
X40.4Y-108.9
X40.4Y-135.7
X42.9Y-135.0
X43.9Y-106.4
X44.0Y-102.6
X44.0Y-103.4
X44.04Y-126.81
X44.43Y-122.95
X44.46Y-132.61
X44.8Y-102.6
X44.8Y-103.4
X44.887Y-106.4
X44.9Y-108.8
X44.9Y-130.1
X44.9Y-134.4
X45.8Y-106.4
X45.87Y-120.06
X46.05Y-159.52
X46.43Y-152.47
X46.54Y-137.7
X47.53Y-115.5
X48.1Y-134.5
X48.13Y-131.77
X48.2Y-130.0
X48.5Y-107.6
X48.62Y-165.3
X49.22Y-126.79
X49.43Y-155.41
X49.5Y-147.1
X49.6Y-151.7
X49.7Y-106.3
X49.7Y-109.0
X50.6Y-148.02
X50.6Y-150.6
X51.63Y-151.18
X52.0Y-132.5
X52.52Y-126.77
X53.25Y-106.4
X53.4Y-102.8
X53.4Y-103.6
X53.8Y-119.13
X54.2Y-102.8
X54.2Y-103.6
X54.21Y-122.32
X54.237Y-106.4
X54.25Y-108.8
X54.39Y-158.72
X54.52Y-147.44
X55.15Y-106.4
X55.9Y-137.7
X57.83Y-118.2
X57.9Y-107.6
X58.5Y-141.0
X58.52Y-139.42
X59.1Y-106.3
X59.1Y-109.0
X59.2Y-154.4
X59.246Y-137.51
X60.25Y-129.87
X60.3Y-136.56
X60.5Y-153.2
X62.0Y-153.2
X62.65Y-106.45
X62.8Y-102.8
X62.8Y-103.6
X62.9Y-135.2
X62.925Y-127.9
X63.0Y-140.8
X63.6Y-102.8
X63.6Y-103.6
X63.6Y-154.6
X63.637Y-106.45
X63.65Y-108.85
X64.1Y-137.7
X64.5Y-139.4
X64.55Y-106.45
X65.4Y-147.3
X65.8Y-164.9
X65.9Y-158.6
X65.925Y-127.9
X66.1Y-135.1
X66.355Y-145.755
X67.2Y-107.7
X67.5Y-143.0
X67.72Y-118.63
X68.4Y-106.4
X68.4Y-109.1
X68.52Y-144.48
X69.1Y-160.9
X69.2Y-164.6
X69.6Y-158.3
X70.035Y-149.435
X70.15Y-151.45
X70.74Y-126.93
X71.25Y-148.67
X72.0Y-106.45
X72.05Y-123.42
X72.2Y-103.0
X72.2Y-103.8
X72.65Y-148.7
X72.987Y-106.45
X73.0Y-103.0
X73.0Y-103.8
X73.0Y-108.85
X73.48Y-26.54
X73.9Y-106.45
X74.48Y-125.39
X74.5Y-161.0
X74.6Y-158.1
X75.76Y-133.43
X76.3Y-156.6
X76.3Y-162.6
X76.8Y-107.7
X77.06Y-139.54
X78.0Y-106.4
X78.0Y-109.1
X78.21Y-142.75
X79.2Y-156.6
X79.3Y-162.7
X80.6Y-148.7
X80.78Y-151.75
X80.8Y-158.0
X80.8Y-161.1
X81.6Y-106.45
X81.8Y-103.0
X81.8Y-103.8
X82.1Y-164.81
X82.587Y-106.45
X82.6Y-103.0
X82.6Y-103.8
X82.6Y-108.85
X82.91Y-123.39
X83.0Y-148.7
X83.5Y-106.45
X83.6Y-149.9
X83.7Y-164.8
X84.8Y-146.9
X85.24Y-128.92
X85.76Y-134.7
X87.2Y-106.4
X87.2Y-109.1
X88.27Y-109.34
X88.29Y-164.78
X88.39Y-148.43
X90.74Y-106.41
X90.8Y-102.8
X90.8Y-103.6
X91.272Y-164.84
X91.6Y-102.8
X91.6Y-103.6
X91.688Y-106.5
X91.7Y-108.9
X92.55Y-122.1
X92.66Y-106.47
X93.86Y-143.88
X94.42Y-165.35
X94.47Y-163.97
X95.13Y-163.25
X95.4Y-148.1
X95.6Y-107.7
X96.1Y-125.55
X96.27Y-162.26
X96.8Y-106.4
X96.8Y-109.1
X96.8Y-147.0
X97.0Y-164.4
X99.33Y-155.84
X100.1Y-164.5
X100.26Y-106.41
X100.8Y-103.0
X100.8Y-103.8
X100.94Y-117.19
X101.387Y-106.5
X101.4Y-108.9
X101.6Y-103.0
X101.6Y-103.8
X102.42Y-137.54
X102.47Y-106.45
X104.0Y-164.4
X104.12Y-151.13
X105.9Y-106.3
X105.9Y-109.0
X106.9Y-109.11
X107.2Y-164.3
X108.725Y-131.662
X109.45Y-106.42
X109.51Y-118.13
X109.6Y-103.0
X109.6Y-103.8
X110.1Y-130.3
X110.1Y-133.1
X110.1Y-159.61
X110.387Y-106.5
X110.4Y-103.0
X110.4Y-103.8
X110.4Y-108.9
X111.5Y-106.43
X113.01Y-119.22
X113.41Y-26.52
X114.0Y-123.62
X114.1Y-159.8
X114.2Y-161.7
X114.2Y-163.4
X114.3Y-107.6
X115.5Y-106.3
X115.5Y-109.0
X117.33Y-135.97
X118.47Y-134.64
X119.1Y-106.4
X119.2Y-102.8
X119.2Y-103.6
X119.44Y-117.69
X119.67Y-131.76
X120.0Y-102.8
X120.0Y-103.6
X120.087Y-106.4
X120.1Y-108.8
X121.0Y-106.4
X121.3Y-119.94
X121.53Y-134.69
X121.6Y-160.2
X121.6Y-162.0
X121.6Y-163.7
X122.07Y-129.36
X122.4Y-128.1
X122.43Y-123.69
X123.1Y-128.7
X123.27Y-131.31
X123.7Y-107.6
X124.8Y-135.8
X124.9Y-106.3
X124.9Y-109.0
X126.7Y-129.3
X127.38Y-151.86
X127.8Y-130.6
X128.51Y-106.44
X128.6Y-102.8
X128.6Y-103.6
X128.77Y-117.91
X129.4Y-102.8
X129.4Y-103.6
X129.487Y-106.5
X129.5Y-108.9
X129.62Y-120.71
X130.49Y-106.45
X130.773Y-130.607
X131.0Y-147.5
X132.09Y-130.65
X133.54Y-132.09
X133.9Y-106.4
X133.9Y-109.1
X135.05Y-109.32
X135.1Y-122.4
X135.8Y-124.0
X135.8Y-124.8
X136.6Y-131.4
X136.6Y-132.2
X136.8Y-124.0
X136.8Y-124.8
X137.58Y-106.4
X137.6Y-103.0
X137.6Y-103.8
X137.6Y-131.4
X137.6Y-132.2
X137.7Y-124.0
X137.7Y-124.8
X138.06Y-117.29
X138.4Y-103.0
X138.4Y-103.8
X138.5Y-131.4
X138.5Y-132.2
X138.588Y-106.5
X138.6Y-108.9
X138.7Y-124.0
X138.7Y-124.8
X138.85Y-135.01
X138.85Y-135.81
X138.85Y-136.71
X139.35Y-150.64
X139.5Y-131.4
X139.5Y-132.2
X139.55Y-106.41
X140.05Y-124.53
X140.08Y-123.4
X140.5Y-131.4
X140.5Y-132.2
X140.7Y-121.6
X141.28Y-118.63
X141.29Y-26.65
X141.33Y-123.4
X141.33Y-124.55
X142.4Y-107.6
X142.43Y-126.26
X142.46Y-125.13
X143.57Y-164.26
X143.6Y-106.3
X143.6Y-109.0
X143.71Y-125.13
X143.71Y-126.28
X144.3Y-121.6
X146.45Y-114.42
X147.11Y-106.42
X147.4Y-103.0
X147.4Y-103.8
X147.4Y-165.4
X147.54Y-158.65
X148.1Y-108.9
X148.14Y-106.4
X148.2Y-103.0
X148.2Y-103.8
X148.3Y-137.7
X148.39Y-140.6
X148.8Y-160.4
X148.8Y-162.1
X148.8Y-163.9
X149.14Y-115.46
X149.16Y-106.472
X149.96Y-128.27
X150.17Y-126.78
X150.2Y-125.65
X150.4Y-107.42
X150.43Y-106.29
X150.49Y-135.3
X151.45Y-125.65
X151.45Y-126.8
X151.67Y-138.27
X151.68Y-106.29
X151.68Y-107.44
X151.91Y-133.87
X152.23Y-13.87
X152.25Y-10.49
X152.64Y-118.32
X152.67Y-117.19
X152.81Y-143.8
X152.9Y-102.72
X152.93Y-101.59
X152.94Y-100.47
X153.92Y-117.19
X153.92Y-118.34
X154.0Y-147.88
X154.18Y-101.59
X154.18Y-102.74
X154.83Y-136.55
X155.27Y-102.74
X155.89Y-149.31
X156.03Y-135.12
X156.885Y-143.765
X157.26Y-135.11
X157.98Y-160.99
X158.16Y-146.74
X158.54Y-126.71
X158.57Y-125.58
X159.82Y-125.58
X159.82Y-126.73
X160.64Y-131.54
X160.65Y-117.16
X160.68Y-116.03
X161.2Y-13.8
X161.2Y-14.6
X161.6Y-20.6
X161.6Y-21.4
X161.6Y-27.2
X161.6Y-28.0
X161.6Y-34.2
X161.6Y-35.0
X161.6Y-47.8
X161.6Y-48.6
X161.6Y-54.6
X161.6Y-55.4
X161.6Y-61.4
X161.6Y-62.2
X161.6Y-68.2
X161.6Y-69.0
X161.6Y-75.0
X161.6Y-75.8
X161.6Y-81.8
X161.6Y-82.6
X161.6Y-88.8
X161.6Y-89.6
X161.6Y-95.8
X161.6Y-96.6
X161.6Y-102.6
X161.6Y-103.4
X161.8Y-41.0
X161.8Y-41.8
X161.93Y-116.03
X161.93Y-117.18
X162.0Y-13.8
X162.0Y-14.6
X162.4Y-20.6
X162.4Y-21.4
X162.4Y-27.2
X162.4Y-28.0
X162.4Y-34.2
X162.4Y-35.0
X162.4Y-47.8
X162.4Y-48.6
X162.4Y-54.6
X162.4Y-55.4
X162.4Y-61.4
X162.4Y-62.2
X162.4Y-68.2
X162.4Y-69.0
X162.4Y-75.0
X162.4Y-75.8
X162.4Y-81.8
X162.4Y-82.6
X162.4Y-88.8
X162.4Y-89.6
X162.4Y-95.8
X162.4Y-96.6
X162.4Y-102.6
X162.4Y-103.4
X162.6Y-41.0
X162.6Y-41.8
X162.94Y-110.01
X162.97Y-108.88
X163.58Y-71.89
X163.58Y-92.47
X163.58Y-97.37
X163.59Y-21.94
X163.59Y-28.84
X163.6Y-15.3
X163.6Y-16.212
X163.6Y-17.2
X163.6Y-42.51
X163.6Y-99.43
X163.6Y-104.09
X163.61Y-23.92
X163.61Y-37.59
X163.61Y-69.96
X163.61Y-106.16
X163.62Y-51.39
X163.62Y-63.02
X163.62Y-65.06
X163.62Y-76.78
X163.62Y-78.81
X163.62Y-83.56
X163.62Y-85.62
X163.63Y-35.72
X163.63Y-44.54
X163.63Y-49.53
X163.64Y-56.24
X163.64Y-58.19
X163.65Y-90.51
X163.66Y-30.81
X163.7Y-23.012
X163.7Y-29.912
X163.7Y-36.712
X163.7Y-43.512
X163.7Y-50.412
X163.7Y-57.212
X163.7Y-64.112
X163.7Y-70.912
X163.7Y-77.712
X163.7Y-84.612
X163.7Y-91.513
X163.7Y-98.412
X163.7Y-105.212
X164.14Y-39.16
X164.15Y-25.41
X164.22Y-108.88
X164.22Y-110.03
X165.0Y-143.98
X166.0Y-16.2
X166.02Y-156.89
X166.1Y-23.0
X166.1Y-29.9
X166.1Y-36.7
X166.1Y-43.5
X166.1Y-50.4
X166.1Y-57.2
X166.1Y-64.1
X166.1Y-70.9
X166.1Y-77.7
X166.1Y-84.6
X166.1Y-91.5
X166.1Y-98.4
X166.1Y-105.2
X166.3Y-126.46
X166.33Y-125.33
X166.425Y-145.35
X166.58Y-160.66
X167.23Y-135.46
X167.24Y-153.99
X167.3Y-155.45
X167.32Y-127.82
X167.41Y-147.4
X167.58Y-125.33
X167.58Y-126.48
X168.0Y-128.8
X168.76Y-125.27
X168.79Y-124.14
X169.0Y-152.29
X169.1Y-128.74
X169.57Y-120.74
X169.58Y-117.62
X169.6Y-119.61
X169.61Y-116.49
X169.87Y-127.79
X170.04Y-124.14
X170.04Y-125.29
X170.85Y-119.61
X170.85Y-120.76
X170.86Y-116.49
X170.86Y-117.64
X171.51Y-36.71
X171.67Y-43.61
X171.68Y-23.19
X171.68Y-98.18
X171.75Y-29.85
X171.75Y-77.8
X171.76Y-57.33
X171.76Y-105.01
X171.79Y-50.53
X171.8Y-115.65
X171.82Y-16.31
X171.83Y-84.87
X171.83Y-114.52
X171.88Y-64.2
X171.98Y-71.02
X172.0Y-91.67
X172.05Y-107.4
X172.11Y-141.45
X172.7Y-27.65
X172.76Y-48.26
X172.78Y-41.53
X172.8Y-34.42
X172.87Y-68.62
X172.93Y-55.01
X172.95Y-82.4
X172.98Y-39.5
X172.98Y-62.08
X172.98Y-75.55
X173.08Y-114.52
X173.08Y-115.67
X173.22Y-141.36
X173.27Y-154.1
X175.08Y-25.85
X175.09Y-19.09
X175.28Y-53.17
X175.3Y-46.31
X175.31Y-60.03
X175.31Y-80.67
X175.31Y-100.75
X175.32Y-34.42
X175.33Y-66.82
X175.34Y-33.05
X175.34Y-73.65
X175.39Y-94.19
X175.46Y-87.05
X175.64Y-48.66
X175.68Y-39.62
X176.0Y-66.47
X176.03Y-80.32
X176.12Y-52.8
X176.17Y-59.49
X176.19Y-42.01
X176.25Y-73.28
X176.27Y-45.93
X176.27Y-83.09
X176.27Y-93.8
X176.34Y-55.65
X176.35Y-96.59
X176.36Y-18.76
X176.38Y-86.7
X176.38Y-99.35
X176.44Y-24.49
X176.46Y-17.68
X176.46Y-44.88
X176.47Y-31.23
X176.47Y-38.11
X176.5Y-72.21
X176.54Y-51.75
X176.58Y-58.5
X176.59Y-69.53
X176.59Y-107.6
X176.64Y-85.54
X176.7Y-79.82
X177.69Y-107.06
X178.11Y-90.66
X178.4Y-66.6
X178.44Y-63.83
X178.47Y-64.65
X178.48Y-91.57
X178.56Y-48.41
X178.65Y-49.26
X178.73Y-47.61
X178.76Y-63.14
X178.78Y-77.13
X178.89Y-86.83
X178.89Y-89.99
X178.94Y-59.59
X178.94Y-60.66
X178.95Y-45.23
X178.96Y-103.47
X178.97Y-58.65
X178.97Y-76.24
X178.98Y-104.28
X178.99Y-44.27
X179.04Y-73.0
X179.1Y-77.92
X179.16Y-99.76
X179.17Y-32.56
X179.19Y-88.08
X179.22Y-20.92
X179.23Y-100.57
X179.24Y-74.11
X179.31Y-16.56
X179.33Y-29.42
X179.34Y-17.64
X179.41Y-28.13
X179.46Y-85.32
X179.62Y-141.57
X179.68Y-23.77
X179.88Y-71.61
X180.04Y-149.92
X180.5Y-135.22
X180.55Y-51.51
X180.81Y-111.72
X180.82Y-93.88
X180.88Y-80.32
X181.52Y-35.49
X181.58Y-25.68
X181.93Y-58.19
X182.26Y-115.07
X183.07Y-43.37
X183.3Y-86.33
X183.35Y-72.42
X183.51Y-50.02
X183.59Y-112.55
X183.69Y-16.03
X184.14Y-100.1
X184.26Y-33.89
X184.79Y-60.22
X184.88Y-87.08
X185.03Y-92.73
X185.07Y-11.13
X185.07Y-44.66
X185.11Y-73.35
X185.14Y-105.4
X185.15Y-100.08
X185.53Y-28.56
X185.72Y-65.7
X185.8Y-92.78
X185.84Y-50.0
X185.87Y-105.38
X185.98Y-59.96
X185.99Y-79.06
X186.03Y-44.71
X186.03Y-100.19
X186.05Y-118.92
X186.18Y-73.31
X186.19Y-87.17
X186.2Y-22.34
X186.32Y-16.93
X186.36Y-34.06
X186.41Y-28.61
X186.44Y-97.96
X186.61Y-92.73
X186.86Y-164.48
X186.87Y-65.26
X186.9Y-50.03
X187.01Y-78.74
X187.13Y-64.11
X187.21Y-48.63
X187.31Y-77.52
X187.35Y-84.89
X187.38Y-22.25
X187.39Y-33.78
X187.41Y-61.05
X187.46Y-74.19
X187.48Y-45.83
X187.64Y-21.08
X187.7Y-29.41
X187.75Y-17.96
X187.87Y-32.46
X188.0Y-72.15
X188.66Y-58.36
X189.13Y-47.41
X189.29Y-43.72
X190.01Y-153.57
X190.08Y-30.6
X190.63Y-20.61
X190.67Y-138.22
X195.18Y-88.34
X195.46Y-30.17
X195.48Y-44.27
X195.89Y-153.63
X195.98Y-64.63
X196.13Y-112.7
X196.53Y-164.52
X197.2Y-10.98
T2
X28.65Y-110.75
X28.65Y-113.25
X38.35Y-110.75
X38.35Y-113.25
X47.75Y-110.5
X47.75Y-113.0
X57.0Y-110.7
X57.0Y-113.2
X66.45Y-110.65
X66.45Y-113.15
X75.944Y-110.544
X75.944Y-113.044
X85.3Y-110.6
X85.3Y-113.1
X94.9Y-110.65
X94.9Y-113.15
X104.05Y-110.75
X104.05Y-113.25
X113.55Y-110.6
X113.55Y-113.1
X122.85Y-110.6
X122.85Y-113.1
X132.15Y-110.55
X132.15Y-113.05
X141.5Y-110.6
X141.5Y-113.1
X146.312Y-121.9
X146.312Y-123.4
X148.146Y-112.322
X150.646Y-112.322
X150.8Y-121.9
X150.8Y-123.4
X164.3Y-126.4
X164.3Y-128.9
X167.95Y-13.7
X167.95Y-20.527
X167.95Y-27.4
X167.95Y-34.3
X167.95Y-41.1
X167.95Y-47.9
X167.95Y-54.8
X167.95Y-61.6
X167.95Y-68.5
X167.95Y-75.3
X167.95Y-82.0
X167.95Y-88.9
X167.95Y-95.9
X168.05Y-102.7
X170.45Y-13.7
X170.45Y-20.527
X170.45Y-27.4
X170.45Y-34.3
X170.45Y-41.1
X170.45Y-47.9
X170.45Y-54.8
X170.45Y-61.6
X170.45Y-68.5
X170.45Y-75.3
X170.45Y-82.0
X170.45Y-88.9
X170.45Y-95.9
X170.55Y-102.7
T3
X156.838Y-126.5
X156.838Y-129.0
T4
X53.015Y-148.98
X56.215Y-148.98
T5
X21.669Y-33.847
X21.669Y-44.007
X21.669Y-54.167
X21.669Y-64.327
X21.669Y-74.487
X21.669Y-84.647
X21.669Y-94.807
X28.669Y-30.647
X28.669Y-40.807
X28.669Y-50.967
X28.669Y-61.127
X28.669Y-71.287
X28.669Y-81.447
X28.669Y-91.607
X31.205Y-33.846
X31.205Y-44.006
X31.205Y-54.166
X31.205Y-64.326
X31.205Y-74.486
X31.205Y-84.646
X31.205Y-94.806
X38.205Y-30.646
X38.205Y-40.806
X38.205Y-50.966
X38.205Y-61.126
X38.205Y-71.286
X38.205Y-81.446
X38.205Y-91.606
X40.683Y-33.897
X40.683Y-44.057
X40.683Y-54.217
X40.683Y-64.377
X40.683Y-74.537
X40.683Y-84.697
X40.683Y-94.857
X43.9Y-148.44
X43.9Y-150.98
X43.9Y-153.52
X43.9Y-156.06
X43.9Y-158.6
X47.683Y-30.697
X47.683Y-40.857
X47.683Y-51.017
X47.683Y-61.177
X47.683Y-71.337
X47.683Y-81.497
X47.683Y-91.657
X50.14Y-33.9
X50.14Y-44.06
X50.14Y-54.22
X50.14Y-64.38
X50.14Y-74.54
X50.14Y-84.7
X50.14Y-94.86
X57.14Y-30.7
X57.14Y-40.86
X57.14Y-51.02
X57.14Y-61.18
X57.14Y-71.34
X57.14Y-81.5
X57.14Y-91.66
X59.54Y-33.9
X59.54Y-44.06
X59.54Y-54.22
X59.54Y-64.38
X59.54Y-74.54
X59.54Y-84.7
X59.54Y-94.86
X66.54Y-30.7
X66.54Y-40.86
X66.54Y-51.02
X66.54Y-61.18
X66.54Y-71.34
X66.54Y-81.5
X66.54Y-91.66
X68.95Y-33.89
X68.95Y-44.05
X68.95Y-54.21
X68.95Y-64.37
X68.95Y-74.53
X68.95Y-84.69
X68.95Y-94.85
X75.95Y-30.69
X75.95Y-40.85
X75.95Y-51.01
X75.95Y-61.17
X75.95Y-71.33
X75.95Y-81.49
X75.95Y-91.65
X78.34Y-33.89
X78.34Y-44.05
X78.34Y-54.21
X78.34Y-64.37
X78.34Y-74.53
X78.34Y-84.69
X78.34Y-94.85
X85.34Y-30.69
X85.34Y-40.85
X85.34Y-51.01
X85.34Y-61.17
X85.34Y-71.33
X85.34Y-81.49
X85.34Y-91.65
X87.689Y-33.89
X87.689Y-44.05
X87.689Y-54.21
X87.689Y-64.37
X87.689Y-74.53
X87.689Y-84.69
X87.689Y-94.85
X94.689Y-30.69
X94.689Y-40.85
X94.689Y-51.01
X94.689Y-61.17
X94.689Y-71.33
X94.689Y-81.49
X94.689Y-91.65
X97.18Y-33.83
X97.18Y-43.99
X97.18Y-54.15
X97.18Y-64.31
X97.18Y-74.47
X97.18Y-84.63
X97.18Y-94.79
X104.18Y-30.63
X104.18Y-40.79
X104.18Y-50.95
X104.18Y-61.11
X104.18Y-71.27
X104.18Y-81.43
X104.18Y-91.59
X106.55Y-33.83
X106.55Y-43.99
X106.55Y-54.15
X106.55Y-64.31
X106.55Y-74.47
X106.55Y-84.63
X106.55Y-94.79
X113.55Y-30.63
X113.55Y-40.79
X113.55Y-50.95
X113.55Y-61.11
X113.55Y-71.27
X113.55Y-81.43
X113.55Y-91.59
X115.92Y-33.83
X115.92Y-43.99
X115.92Y-54.15
X115.92Y-64.31
X115.92Y-74.47
X115.92Y-84.63
X115.92Y-94.79
X122.92Y-30.63
X122.92Y-40.79
X122.92Y-50.95
X122.92Y-61.11
X122.92Y-71.27
X122.92Y-81.43
X122.92Y-91.59
X125.29Y-33.83
X125.29Y-43.99
X125.29Y-54.15
X125.29Y-64.31
X125.29Y-74.47
X125.29Y-84.63
X125.29Y-94.79
X132.29Y-30.63
X132.29Y-40.79
X132.29Y-50.95
X132.29Y-61.11
X132.29Y-71.27
X132.29Y-81.43
X132.29Y-91.59
X134.66Y-33.83
X134.66Y-43.99
X134.66Y-54.15
X134.66Y-64.31
X134.66Y-74.47
X134.66Y-84.63
X134.66Y-94.79
X141.66Y-30.63
X141.66Y-40.79
X141.66Y-50.95
X141.66Y-61.11
X141.66Y-71.27
X141.66Y-81.43
X141.66Y-91.59
X144.023Y-33.83
X144.023Y-43.99
X144.023Y-54.15
X144.023Y-64.31
X144.023Y-74.47
X144.023Y-84.63
X144.023Y-94.79
X151.023Y-30.63
X151.023Y-40.79
X151.023Y-50.95
X151.023Y-61.11
X151.023Y-71.27
X151.023Y-81.43
X151.023Y-91.59
T6
X113.25Y-157.243
X119.6Y-154.702
X128.7Y-146.843
X128.702Y-162.843
X135.05Y-144.302
X135.052Y-160.302
X144.15Y-157.142
X150.5Y-154.602
T7
X37.01Y-141.43
X192.6Y-159.39
X193.76Y-14.3
T8
X176.425Y-150.6
X176.425Y-156.4
X181.225Y-153.6
M30
