%TF.GenerationSoftware,KiCad,Pcbnew,9.0.6*%
%TF.CreationDate,2025-12-18T11:53:56+02:00*%
%TF.ProjectId,Emaplaat,456d6170-6c61-4617-942e-6b696361645f,rev?*%
%TF.SameCoordinates,Original*%
%TF.FileFunction,Paste,Bot*%
%TF.FilePolarity,Positive*%
%FSLAX46Y46*%
G04 Gerber Fmt 4.6, Leading zero omitted, Abs format (unit mm)*
G04 Created by KiCad (PCBNEW 9.0.6) date 2025-12-18 11:53:56*
%MOMM*%
%LPD*%
G01*
G04 APERTURE LIST*
%ADD10R,2.250000X1.600000*%
G04 APERTURE END LIST*
D10*
%TO.C,D395*%
X148445714Y-40730000D03*
X144445714Y-40730000D03*
%TD*%
%TO.C,D45*%
X35569011Y-91620989D03*
X31569011Y-91620989D03*
%TD*%
%TO.C,D139*%
X63940000Y-50900000D03*
X59940000Y-50900000D03*
%TD*%
%TO.C,D78*%
X43282857Y-74957143D03*
X47282857Y-74957143D03*
%TD*%
%TO.C,D363*%
X138982857Y-50850000D03*
X134982857Y-50850000D03*
%TD*%
%TO.C,D19*%
X26069011Y-81807143D03*
X22069011Y-81807143D03*
%TD*%
%TO.C,D199*%
X82740000Y-40790000D03*
X78740000Y-40790000D03*
%TD*%
%TO.C,D147*%
X63940000Y-30600000D03*
X59940000Y-30600000D03*
%TD*%
%TO.C,D215*%
X92075714Y-81410000D03*
X88075714Y-81410000D03*
%TD*%
%TO.C,D59*%
X35569011Y-40820989D03*
X31569011Y-40820989D03*
%TD*%
%TO.C,D354*%
X137340000Y-95100000D03*
X141340000Y-95100000D03*
%TD*%
%TO.C,D17*%
X26069011Y-91807143D03*
X22069011Y-91807143D03*
%TD*%
%TO.C,D31*%
X26269011Y-41007143D03*
X22269011Y-41007143D03*
%TD*%
%TO.C,D213*%
X92075714Y-91660000D03*
X88075714Y-91660000D03*
%TD*%
%TO.C,D224*%
X90432857Y-54660000D03*
X94432857Y-54660000D03*
%TD*%
%TO.C,D223*%
X92075714Y-50910000D03*
X88075714Y-50910000D03*
%TD*%
%TO.C,D301*%
X120268571Y-71100000D03*
X116268571Y-71100000D03*
%TD*%
%TO.C,D245*%
X101554286Y-71100000D03*
X97554286Y-71100000D03*
%TD*%
%TO.C,D63*%
X35569011Y-30420989D03*
X31569011Y-30420989D03*
%TD*%
%TO.C,D335*%
X129625714Y-50850000D03*
X125625714Y-50850000D03*
%TD*%
%TO.C,D64*%
X33769011Y-34220989D03*
X37769011Y-34220989D03*
%TD*%
%TO.C,D60*%
X33769011Y-44420989D03*
X37769011Y-44420989D03*
%TD*%
%TO.C,D244*%
X99804286Y-85100000D03*
X103804286Y-85100000D03*
%TD*%
%TO.C,D20*%
X24269011Y-85407143D03*
X28269011Y-85407143D03*
%TD*%
%TO.C,D371*%
X139050000Y-30460000D03*
X135050000Y-30460000D03*
%TD*%
%TO.C,D214*%
X90432857Y-95160000D03*
X94432857Y-95160000D03*
%TD*%
%TO.C,D330*%
X127875714Y-74850000D03*
X131875714Y-74850000D03*
%TD*%
%TO.C,D372*%
X137274286Y-34200000D03*
X141274286Y-34200000D03*
%TD*%
%TO.C,D131*%
X63890000Y-81400000D03*
X59890000Y-81400000D03*
%TD*%
%TO.C,D272*%
X109161429Y-85100000D03*
X113161429Y-85100000D03*
%TD*%
%TO.C,D18*%
X24269011Y-95207143D03*
X28269011Y-95207143D03*
%TD*%
%TO.C,D22*%
X24269011Y-75007143D03*
X28269011Y-75007143D03*
%TD*%
%TO.C,D111*%
X54490000Y-50900000D03*
X50490000Y-50900000D03*
%TD*%
%TO.C,D367*%
X139079592Y-40730000D03*
X135079592Y-40730000D03*
%TD*%
%TO.C,D77*%
X45082857Y-71257143D03*
X41082857Y-71257143D03*
%TD*%
%TO.C,D216*%
X90325714Y-85160000D03*
X94325714Y-85160000D03*
%TD*%
%TO.C,D328*%
X127875714Y-85100000D03*
X131875714Y-85100000D03*
%TD*%
%TO.C,D308*%
X118625714Y-54600000D03*
X122625714Y-54600000D03*
%TD*%
%TO.C,D396*%
X146632857Y-44360000D03*
X150632857Y-44360000D03*
%TD*%
%TO.C,D200*%
X80940000Y-44420000D03*
X84940000Y-44420000D03*
%TD*%
%TO.C,D387*%
X148332857Y-61100000D03*
X144332857Y-61100000D03*
%TD*%
%TO.C,D388*%
X146582857Y-64600000D03*
X150582857Y-64600000D03*
%TD*%
%TO.C,D356*%
X137232857Y-85100000D03*
X141232857Y-85100000D03*
%TD*%
%TO.C,D219*%
X92075714Y-61160000D03*
X88075714Y-61160000D03*
%TD*%
%TO.C,D56*%
X33769011Y-54620989D03*
X37769011Y-54620989D03*
%TD*%
%TO.C,D329*%
X129625714Y-71100000D03*
X125625714Y-71100000D03*
%TD*%
%TO.C,D382*%
X146690000Y-95100000D03*
X150690000Y-95100000D03*
%TD*%
%TO.C,D280*%
X109268572Y-54600000D03*
X113268572Y-54600000D03*
%TD*%
%TO.C,D46*%
X33769011Y-95220989D03*
X37769011Y-95220989D03*
%TD*%
%TO.C,D92*%
X43282857Y-34157143D03*
X47282857Y-34157143D03*
%TD*%
%TO.C,D385*%
X148332857Y-71100000D03*
X144332857Y-71100000D03*
%TD*%
%TO.C,D247*%
X101554286Y-61100000D03*
X97554286Y-61100000D03*
%TD*%
%TO.C,D167*%
X73300000Y-50900000D03*
X69300000Y-50900000D03*
%TD*%
%TO.C,D340*%
X127897143Y-44360000D03*
X131897143Y-44360000D03*
%TD*%
%TO.C,D32*%
X24069011Y-44607143D03*
X28069011Y-44607143D03*
%TD*%
%TO.C,D251*%
X101554286Y-50850000D03*
X97554286Y-50850000D03*
%TD*%
%TO.C,D353*%
X138982857Y-91600000D03*
X134982857Y-91600000D03*
%TD*%
%TO.C,D52*%
X33769011Y-64620989D03*
X37769011Y-64620989D03*
%TD*%
%TO.C,D186*%
X81097143Y-95160000D03*
X85097143Y-95160000D03*
%TD*%
%TO.C,D283*%
X110959796Y-40730000D03*
X106959796Y-40730000D03*
%TD*%
%TO.C,D188*%
X80990000Y-85160000D03*
X84990000Y-85160000D03*
%TD*%
%TO.C,D162*%
X71550000Y-74900000D03*
X75550000Y-74900000D03*
%TD*%
%TO.C,D343*%
X129680000Y-30460000D03*
X125680000Y-30460000D03*
%TD*%
%TO.C,D344*%
X127908571Y-34200000D03*
X131908571Y-34200000D03*
%TD*%
%TO.C,D129*%
X63940000Y-91550000D03*
X59940000Y-91550000D03*
%TD*%
%TO.C,D273*%
X110911429Y-71100000D03*
X106911429Y-71100000D03*
%TD*%
%TO.C,D175*%
X73300000Y-30600000D03*
X69300000Y-30600000D03*
%TD*%
%TO.C,D275*%
X110911429Y-61100000D03*
X106911429Y-61100000D03*
%TD*%
%TO.C,D144*%
X62140000Y-44500000D03*
X66140000Y-44500000D03*
%TD*%
%TO.C,D24*%
X24069011Y-64207143D03*
X28069011Y-64207143D03*
%TD*%
%TO.C,D386*%
X146582857Y-74850000D03*
X150582857Y-74850000D03*
%TD*%
%TO.C,D105*%
X54490000Y-71250000D03*
X50490000Y-71250000D03*
%TD*%
%TO.C,D50*%
X33769011Y-74820989D03*
X37769011Y-74820989D03*
%TD*%
%TO.C,D172*%
X71550000Y-44450000D03*
X75550000Y-44450000D03*
%TD*%
%TO.C,D163*%
X73300000Y-61050000D03*
X69300000Y-61050000D03*
%TD*%
%TO.C,D76*%
X43282857Y-85057143D03*
X47282857Y-85057143D03*
%TD*%
%TO.C,D315*%
X120310000Y-30460000D03*
X116310000Y-30460000D03*
%TD*%
%TO.C,D355*%
X138982857Y-81350000D03*
X134982857Y-81350000D03*
%TD*%
%TO.C,D316*%
X118542857Y-34200000D03*
X122542857Y-34200000D03*
%TD*%
%TO.C,D339*%
X129706326Y-40730000D03*
X125706326Y-40730000D03*
%TD*%
%TO.C,D102*%
X52790000Y-95200000D03*
X56790000Y-95200000D03*
%TD*%
%TO.C,D256*%
X99782857Y-44360000D03*
X103782857Y-44360000D03*
%TD*%
%TO.C,D185*%
X82740000Y-91660000D03*
X78740000Y-91660000D03*
%TD*%
%TO.C,D47*%
X35569011Y-81420989D03*
X31569011Y-81420989D03*
%TD*%
%TO.C,D287*%
X110940000Y-30460000D03*
X106940000Y-30460000D03*
%TD*%
%TO.C,D87*%
X45082857Y-40857143D03*
X41082857Y-40857143D03*
%TD*%
%TO.C,D51*%
X35569011Y-61020989D03*
X31569011Y-61020989D03*
%TD*%
%TO.C,D311*%
X120333061Y-40730000D03*
X116333061Y-40730000D03*
%TD*%
%TO.C,D228*%
X90290000Y-44420000D03*
X94290000Y-44420000D03*
%TD*%
%TO.C,D79*%
X45082857Y-61057143D03*
X41082857Y-61057143D03*
%TD*%
%TO.C,D119*%
X54590000Y-30550000D03*
X50590000Y-30550000D03*
%TD*%
%TO.C,D326*%
X127982857Y-95100000D03*
X131982857Y-95100000D03*
%TD*%
%TO.C,D80*%
X43282857Y-64757143D03*
X47282857Y-64757143D03*
%TD*%
%TO.C,D400*%
X146632857Y-34200000D03*
X150632857Y-34200000D03*
%TD*%
%TO.C,D331*%
X129625714Y-61100000D03*
X125625714Y-61100000D03*
%TD*%
%TO.C,D112*%
X52740000Y-54600000D03*
X56740000Y-54600000D03*
%TD*%
%TO.C,D392*%
X146690000Y-54600000D03*
X150690000Y-54600000D03*
%TD*%
%TO.C,D312*%
X118525714Y-44360000D03*
X122525714Y-44360000D03*
%TD*%
%TO.C,D190*%
X80990000Y-74910000D03*
X84990000Y-74910000D03*
%TD*%
%TO.C,D107*%
X54490000Y-61050000D03*
X50490000Y-61050000D03*
%TD*%
%TO.C,D368*%
X137268571Y-44360000D03*
X141268571Y-44360000D03*
%TD*%
%TO.C,D171*%
X73350000Y-40750000D03*
X69350000Y-40750000D03*
%TD*%
%TO.C,D357*%
X138982857Y-71100000D03*
X134982857Y-71100000D03*
%TD*%
%TO.C,D302*%
X118518571Y-74850000D03*
X122518571Y-74850000D03*
%TD*%
%TO.C,D304*%
X118518571Y-64600000D03*
X122518571Y-64600000D03*
%TD*%
%TO.C,D161*%
X73300000Y-71250000D03*
X69300000Y-71250000D03*
%TD*%
%TO.C,D255*%
X101586531Y-40730000D03*
X97586531Y-40730000D03*
%TD*%
%TO.C,D21*%
X26069011Y-71407143D03*
X22069011Y-71407143D03*
%TD*%
%TO.C,D135*%
X63890000Y-61050000D03*
X59890000Y-61050000D03*
%TD*%
%TO.C,D157*%
X73396154Y-91710000D03*
X69396154Y-91710000D03*
%TD*%
%TO.C,D203*%
X82730000Y-30520000D03*
X78730000Y-30520000D03*
%TD*%
%TO.C,D148*%
X62190000Y-34300000D03*
X66190000Y-34300000D03*
%TD*%
%TO.C,D243*%
X101554286Y-81350000D03*
X97554286Y-81350000D03*
%TD*%
%TO.C,D133*%
X63890000Y-71250000D03*
X59890000Y-71250000D03*
%TD*%
%TO.C,D242*%
X99911429Y-95100000D03*
X103911429Y-95100000D03*
%TD*%
%TO.C,D189*%
X82740000Y-71160000D03*
X78740000Y-71160000D03*
%TD*%
%TO.C,D168*%
X71600000Y-54600000D03*
X75600000Y-54600000D03*
%TD*%
%TO.C,D232*%
X90324285Y-34260000D03*
X94324285Y-34260000D03*
%TD*%
%TO.C,D195*%
X82740000Y-50910000D03*
X78740000Y-50910000D03*
%TD*%
%TO.C,D271*%
X110911429Y-81350000D03*
X106911429Y-81350000D03*
%TD*%
%TO.C,D23*%
X26069011Y-60807143D03*
X22069011Y-60807143D03*
%TD*%
%TO.C,D91*%
X45082857Y-30557143D03*
X41082857Y-30557143D03*
%TD*%
%TO.C,D192*%
X80990000Y-64660000D03*
X84990000Y-64660000D03*
%TD*%
%TO.C,D49*%
X35569011Y-71220989D03*
X31569011Y-71220989D03*
%TD*%
%TO.C,D246*%
X99804286Y-74850000D03*
X103804286Y-74850000D03*
%TD*%
%TO.C,D303*%
X120268571Y-61100000D03*
X116268571Y-61100000D03*
%TD*%
%TO.C,D220*%
X90325714Y-64660000D03*
X94325714Y-64660000D03*
%TD*%
%TO.C,D360*%
X137232857Y-64600000D03*
X141232857Y-64600000D03*
%TD*%
%TO.C,D132*%
X62140000Y-85100000D03*
X66140000Y-85100000D03*
%TD*%
%TO.C,D103*%
X54490000Y-81350000D03*
X50490000Y-81350000D03*
%TD*%
%TO.C,D143*%
X63940000Y-40800000D03*
X59940000Y-40800000D03*
%TD*%
%TO.C,D164*%
X71600000Y-64750000D03*
X75600000Y-64750000D03*
%TD*%
%TO.C,D83*%
X45082857Y-50957143D03*
X41082857Y-50957143D03*
%TD*%
%TO.C,D270*%
X109268572Y-95100000D03*
X113268572Y-95100000D03*
%TD*%
%TO.C,D384*%
X146582857Y-85100000D03*
X150582857Y-85100000D03*
%TD*%
%TO.C,D48*%
X33769011Y-85020989D03*
X37769011Y-85020989D03*
%TD*%
%TO.C,D74*%
X43282857Y-95157143D03*
X47282857Y-95157143D03*
%TD*%
%TO.C,D191*%
X82740000Y-61160000D03*
X78740000Y-61160000D03*
%TD*%
%TO.C,D160*%
X71596154Y-85310000D03*
X75596154Y-85310000D03*
%TD*%
%TO.C,D217*%
X92075714Y-71160000D03*
X88075714Y-71160000D03*
%TD*%
%TO.C,D325*%
X129625714Y-91600000D03*
X125625714Y-91600000D03*
%TD*%
%TO.C,D297*%
X120268571Y-91600000D03*
X116268571Y-91600000D03*
%TD*%
%TO.C,D399*%
X148412857Y-30460000D03*
X144412857Y-30460000D03*
%TD*%
%TO.C,D269*%
X110911429Y-91600000D03*
X106911429Y-91600000D03*
%TD*%
%TO.C,D28*%
X24069011Y-54807143D03*
X28069011Y-54807143D03*
%TD*%
%TO.C,D358*%
X137232857Y-74850000D03*
X141232857Y-74850000D03*
%TD*%
%TO.C,D158*%
X71596154Y-95110000D03*
X75596154Y-95110000D03*
%TD*%
%TO.C,D101*%
X54490000Y-91550000D03*
X50490000Y-91550000D03*
%TD*%
%TO.C,D106*%
X52740000Y-74900000D03*
X56740000Y-74900000D03*
%TD*%
%TO.C,D288*%
X109177143Y-34200000D03*
X113177143Y-34200000D03*
%TD*%
%TO.C,D259*%
X101570000Y-30460000D03*
X97570000Y-30460000D03*
%TD*%
%TO.C,D381*%
X148332857Y-91600000D03*
X144332857Y-91600000D03*
%TD*%
%TO.C,D116*%
X52740000Y-44400000D03*
X56740000Y-44400000D03*
%TD*%
%TO.C,D252*%
X99911429Y-54600000D03*
X103911429Y-54600000D03*
%TD*%
%TO.C,D55*%
X35569011Y-50820989D03*
X31569011Y-50820989D03*
%TD*%
%TO.C,D299*%
X120268571Y-81350000D03*
X116268571Y-81350000D03*
%TD*%
%TO.C,D359*%
X138982857Y-61100000D03*
X134982857Y-61100000D03*
%TD*%
%TO.C,D248*%
X99804286Y-64600000D03*
X103804286Y-64600000D03*
%TD*%
%TO.C,D104*%
X52740000Y-85100000D03*
X56740000Y-85100000D03*
%TD*%
%TO.C,D187*%
X82740000Y-81410000D03*
X78740000Y-81410000D03*
%TD*%
%TO.C,D364*%
X137340000Y-54600000D03*
X141340000Y-54600000D03*
%TD*%
%TO.C,D241*%
X101554286Y-91600000D03*
X97554286Y-91600000D03*
%TD*%
%TO.C,D176*%
X71600000Y-34250000D03*
X75600000Y-34250000D03*
%TD*%
%TO.C,D300*%
X118518571Y-85100000D03*
X122518571Y-85100000D03*
%TD*%
%TO.C,D231*%
X92078571Y-30520000D03*
X88078571Y-30520000D03*
%TD*%
%TO.C,D75*%
X45082857Y-81357143D03*
X41082857Y-81357143D03*
%TD*%
%TO.C,D284*%
X109154286Y-44360000D03*
X113154286Y-44360000D03*
%TD*%
%TO.C,D227*%
X92091836Y-40790000D03*
X88091836Y-40790000D03*
%TD*%
%TO.C,D274*%
X109161429Y-74850000D03*
X113161429Y-74850000D03*
%TD*%
%TO.C,D279*%
X110911429Y-50850000D03*
X106911429Y-50850000D03*
%TD*%
%TO.C,D391*%
X148332857Y-50850000D03*
X144332857Y-50850000D03*
%TD*%
%TO.C,D36*%
X24269011Y-34007143D03*
X28269011Y-34007143D03*
%TD*%
%TO.C,D27*%
X26069011Y-51207143D03*
X22069011Y-51207143D03*
%TD*%
%TO.C,D383*%
X148332857Y-81350000D03*
X144332857Y-81350000D03*
%TD*%
%TO.C,D276*%
X109161429Y-64600000D03*
X113161429Y-64600000D03*
%TD*%
%TO.C,D204*%
X80980000Y-34260000D03*
X84980000Y-34260000D03*
%TD*%
%TO.C,D84*%
X43282857Y-54557143D03*
X47282857Y-54557143D03*
%TD*%
%TO.C,D115*%
X54540000Y-40700000D03*
X50540000Y-40700000D03*
%TD*%
%TO.C,D134*%
X62140000Y-74900000D03*
X66140000Y-74900000D03*
%TD*%
%TO.C,D73*%
X45082857Y-91557143D03*
X41082857Y-91557143D03*
%TD*%
%TO.C,D307*%
X120268571Y-50850000D03*
X116268571Y-50850000D03*
%TD*%
%TO.C,D130*%
X62240000Y-95250000D03*
X66240000Y-95250000D03*
%TD*%
%TO.C,D88*%
X43282857Y-44457143D03*
X47282857Y-44457143D03*
%TD*%
%TO.C,D136*%
X62140000Y-64750000D03*
X66140000Y-64750000D03*
%TD*%
%TO.C,D35*%
X26069011Y-30607143D03*
X22069011Y-30607143D03*
%TD*%
%TO.C,D298*%
X118625714Y-95100000D03*
X122625714Y-95100000D03*
%TD*%
%TO.C,D159*%
X73396154Y-81710000D03*
X69396154Y-81710000D03*
%TD*%
%TO.C,D140*%
X62140000Y-54650000D03*
X66140000Y-54650000D03*
%TD*%
%TO.C,D120*%
X52790000Y-34250000D03*
X56790000Y-34250000D03*
%TD*%
%TO.C,D336*%
X127982857Y-54600000D03*
X131982857Y-54600000D03*
%TD*%
%TO.C,D108*%
X52740000Y-64750000D03*
X56740000Y-64750000D03*
%TD*%
%TO.C,D332*%
X127875714Y-64600000D03*
X131875714Y-64600000D03*
%TD*%
%TO.C,D218*%
X90325714Y-74910000D03*
X94325714Y-74910000D03*
%TD*%
%TO.C,D196*%
X81097143Y-54660000D03*
X85097143Y-54660000D03*
%TD*%
%TO.C,D327*%
X129625714Y-81350000D03*
X125625714Y-81350000D03*
%TD*%
%TO.C,D260*%
X99811429Y-34200000D03*
X103811429Y-34200000D03*
%TD*%
M02*
